<svg data-name="Layer 1" xmlns="http://www.w3.org/2000/svg" viewBox="0 0 53.53 33.05"><path d="M0 0c16.76 0 12.57 33.05 23 33.05h30.53V0z" fill="#3f70b7"/><path d="M42.08 18.12l1.62-7.32a.84.84 0 00-.8-1H29.48l-.31-1.58a.84.84 0 00-.81-.68h-3.5a.84.84 0 00-.82.85v.56a.84.84 0 00.82.85h2.39l2.4 12.08a2 2 0 00-1 1.71 1.91 1.91 0 103.82 0 2 2 0 00-.57-1.41h7.2a2 2 0 00-.58 1.41 1.92 1.92 0 103.83 0 2 2 0 00-1.08-1.77l.19-.86a.83.83 0 00-.8-1h-9.17l-.22-1.12h10a.83.83 0 00.81-.72z" fill="#fff"/></svg>