<svg width="12" height="12" fill="none" xmlns="http://www.w3.org/2000/svg"><path d="M3.6 9.6c-.66 0-1.194.54-1.194 1.2 0 .66.534 1.2 1.194 1.2.66 0 1.2-.54 1.2-1.2 0-.66-.54-1.2-1.2-1.2zM0 0v1.2h1.2l2.16 4.554-.81 1.47a1.16 1.16 0 00-.15.576c0 .66.54 1.2 1.2 1.2h7.2V7.8H3.852a.149.149 0 01-.15-.15l.018-.072.54-.978h4.47c.45 0 .846-.246 1.05-.618l2.148-3.894A.602.602 0 0011.4 1.2H2.526L1.962 0H0zm9.6 9.6c-.66 0-1.194.54-1.194 1.2 0 .66.534 1.2 1.194 1.2.66 0 1.2-.54 1.2-1.2 0-.66-.54-1.2-1.2-1.2z" fill="#fff"/></svg>