<svg width="20" height="17" fill="none" xmlns="http://www.w3.org/2000/svg"><path d="M18.337 10.005l1.642-6.907c.118-.498-.278-.973-.813-.973H5.528L5.21.637A.825.825 0 004.393 0H.833C.373 0 0 .357 0 .797v.531c0 .44.373.797.833.797H3.26l2.439 11.403a1.846 1.846 0 00-.977 1.613c0 1.027.87 1.859 1.945 1.859 1.074 0 1.944-.832 1.944-1.86 0-.52-.224-.99-.584-1.328h7.28c-.36.338-.585.808-.585 1.329 0 1.027.87 1.859 1.945 1.859 1.074 0 1.944-.832 1.944-1.86 0-.736-.447-1.372-1.096-1.673l.191-.806c.119-.499-.278-.973-.812-.973h-9.32l-.228-1.063h10.179a.828.828 0 00.813-.62z" fill="#fff"/></svg>