<svg width="12" height="12" fill="none" xmlns="http://www.w3.org/2000/svg"><path d="M3.571 9.6c-.654 0-1.184.54-1.184 1.2 0 .66.53 1.2 1.184 1.2.655 0 1.19-.54 1.19-1.2 0-.66-.535-1.2-1.19-1.2zm5.953 0c-.655 0-1.185.54-1.185 1.2 0 .66.53 1.2 1.185 1.2s1.19-.54 1.19-1.2c0-.66-.535-1.2-1.19-1.2zM3.673 7.65l.017-.072.536-.978h4.435c.446 0 .839-.246 1.041-.618L12 1.776 10.964 1.2h-.006l-.654 1.2-1.643 3H4.482l-.077-.162L3.07 2.4l-.565-1.2-.56-1.2H0v1.2h1.19l2.143 4.554-.803 1.47A1.199 1.199 0 003.572 9h7.142V7.8H3.821a.152.152 0 01-.148-.15z" fill="#fff"/></svg>