<svg width="22" height="22" fill="none" xmlns="http://www.w3.org/2000/svg"><path d="M11.502 7.654A3.84 3.84 0 007.657 11.5a3.84 3.84 0 003.845 3.846 3.84 3.84 0 003.845-3.846 3.84 3.84 0 00-3.845-3.846zm0 6.346a2.505 2.505 0 01-2.5-2.5c0-1.379 1.121-2.5 2.5-2.5 1.378 0 2.5 1.121 2.5 2.5s-1.125 2.5-2.5 2.5zM16.4 7.497a.895.895 0 01-.897.897.897.897 0 11.897-.897zm2.546.91c-.057-1.201-.331-2.266-1.211-3.143-.877-.877-1.941-1.151-3.142-1.211-1.238-.07-4.95-.07-6.188 0-1.198.057-2.262.331-3.142 1.208-.88.877-1.151 1.941-1.211 3.143-.07 1.238-.07 4.95 0 6.189.057 1.201.331 2.266 1.211 3.143.88.877 1.941 1.151 3.142 1.211 1.238.07 4.95.07 6.188 0 1.201-.057 2.265-.331 3.142-1.211.877-.877 1.151-1.942 1.211-3.143.07-1.239.07-4.947 0-6.186zm-1.6 7.514a2.531 2.531 0 01-1.425 1.426c-.987.392-3.33.302-4.42.302-1.091 0-3.437.087-4.42-.302a2.531 2.531 0 01-1.426-1.426c-.392-.987-.302-3.33-.302-4.421 0-1.091-.087-3.437.302-4.422A2.531 2.531 0 017.08 5.653c.987-.392 3.33-.302 4.42-.302 1.092 0 3.437-.087 4.421.302a2.53 2.53 0 011.426 1.425c.391.988.3 3.33.3 4.422 0 1.091.091 3.438-.3 4.421z" fill="#fff"/></svg>