<svg width="22" height="22" fill="none" xmlns="http://www.w3.org/2000/svg"><path d="M11.5 5C8.46 5 6 7.684 6 11s2.46 6 5.5 6a5.19 5.19 0 003.003-.973.615.615 0 00.123-.856l-.226-.3a.501.501 0 00-.695-.125 3.848 3.848 0 01-2.205.706c-2.25 0-4.08-1.997-4.08-4.452s1.83-4.452 4.08-4.452c2.22 0 4.08 1.394 4.08 3.871 0 .939-.467 1.93-1.29 2.025-.384-.01-.374-.31-.298-.726l.52-2.93c.063-.359-.189-.691-.523-.691h-.998a.286.286 0 00-.2.083.338.338 0 00-.098.207v.002c-.326-.433-.897-.527-1.33-.527-1.654 0-3.057 1.506-3.057 3.665 0 1.58.816 2.561 2.13 2.561.598 0 1.272-.378 1.663-.927.21.825.9.825 1.568.825 2.415 0 3.333-1.733 3.333-3.567C17 7.121 14.561 5 11.5 5zm-.48 7.365c-.494 0-.8-.378-.8-.986 0-1.089.682-1.76 1.3-1.76.494 0 .79.369.79.987 0 1.09-.752 1.76-1.29 1.76z" fill="#fff"/></svg>