<svg width="22" height="22" fill="none" xmlns="http://www.w3.org/2000/svg"><path d="M13.862 13.13c-.8.476-1.902.664-2.63.735l.611.563 2.23 2.086c.815.782-.512 2.004-1.336 1.25-.558-.531-1.376-1.296-2.23-2.095l-2.23 2.092c-.823.751-2.15-.482-1.326-1.25.567-.53 1.376-1.295 2.23-2.085l.602-.563c-.72-.072-1.838-.25-2.648-.736-.953-.574-1.37-.91-1.002-1.613.216-.399.81-.735 1.595-.155 0 0 1.061.79 2.774.79 1.712 0 2.773-.79 2.773-.79.786-.577 1.376-.244 1.595.155.363.703-.055 1.04-1.008 1.616zM6.708 7.545C6.708 5.585 8.412 4 10.498 4c2.087 0 3.791 1.585 3.791 3.545 0 1.952-1.704 3.538-3.79 3.538-2.087 0-3.79-1.586-3.79-3.538zm1.93 0c0 .96.835 1.742 1.86 1.742 1.027 0 1.862-.782 1.862-1.742 0-.967-.835-1.75-1.861-1.75s-1.862.783-1.862 1.75z" fill="#fff"/></svg>