<svg width="10" height="11" fill="none" xmlns="http://www.w3.org/2000/svg"><path d="M4.893.232h.119c-.499.279-.831.766-.831 1.323h.237c0-.58.404-1.068.998-1.253.593.209.997.696.997 1.253h.238C6.65.998 6.318.51 5.819.232h.12c.83 0 1.52.603 1.52 1.323h.237C7.696.696 6.912 0 5.938 0c-.19 0-.356.023-.522.07A1.893 1.893 0 004.893 0C3.92 0 3.135.696 3.135 1.555h.238c0-.72.689-1.323 1.52-1.323zM6.556 8.47L10 7.148 9.549 1.81H.784L0 11h9.454L6.556 8.47zm1.639 2.066H1.164l5.06-4.85-.12 2.784v.21l.167.139 1.924 1.717z" fill="#48B865"/></svg>