<svg width="22" height="22" fill="none" xmlns="http://www.w3.org/2000/svg"><path d="M8.2 15.2c-.77 0-1.393.63-1.393 1.4 0 .77.623 1.4 1.393 1.4s1.4-.63 1.4-1.4c0-.77-.63-1.4-1.4-1.4zM4 4v1.4h1.4l2.52 5.313-.945 1.715a1.353 1.353 0 00-.175.672c0 .77.63 1.4 1.4 1.4h8.4v-1.4H8.494a.173.173 0 01-.175-.175l.021-.084.63-1.141h5.215c.525 0 .987-.287 1.225-.721l2.506-4.543A.702.702 0 0017.3 5.4H6.947L6.289 4H4zm11.2 11.2c-.77 0-1.393.63-1.393 1.4 0 .77.623 1.4 1.393 1.4s1.4-.63 1.4-1.4c0-.77-.63-1.4-1.4-1.4z" fill="#787878"/></svg>