<svg width="22" height="22" fill="none" xmlns="http://www.w3.org/2000/svg"><path d="M16.56 7.99c.01.132.01.263.01.394 0 4.003-2.887 8.616-8.164 8.616A7.802 7.802 0 014 15.64c.231.029.453.038.693.038a5.558 5.558 0 003.562-1.294c-1.261-.028-2.318-.9-2.683-2.1.178.028.356.047.542.047.258 0 .515-.037.755-.103-1.314-.281-2.3-1.5-2.3-2.972V9.22c.381.225.826.365 1.296.384a3.073 3.073 0 01-1.279-2.522c0-.562.142-1.078.391-1.528 1.413 1.838 3.536 3.038 5.916 3.169a3.6 3.6 0 01-.07-.694C10.822 6.36 12.1 5 13.691 5c.826 0 1.572.366 2.096.956a5.472 5.472 0 001.821-.731 2.996 2.996 0 01-1.261 1.669A5.516 5.516 0 0018 6.425c-.39.6-.88 1.134-1.44 1.566z" fill="#fff"/></svg>