<svg width="22" height="22" fill="none" xmlns="http://www.w3.org/2000/svg"><path d="M19.567 6.678c.13-.39 0-.678-.628-.678h-2.077c-.53 0-.773.247-.903.522 0 0-1.059 2.284-2.554 3.765-.483.429-.705.566-.97.566-.13 0-.332-.137-.332-.528V6.678c0-.469-.148-.678-.585-.678H8.252c-.332 0-.53.219-.53.422 0 .444.749.547.826 1.797v2.712c0 .594-.12.703-.384.703-.706 0-2.42-2.293-3.436-4.918C4.524 6.206 4.323 6 3.79 6H1.712C1.12 6 1 6.247 1 6.522c0 .487.705 2.91 3.284 6.11C6.002 14.815 8.42 16 10.622 16c1.323 0 1.485-.262 1.485-.716 0-2.087-.12-2.284.543-2.284.307 0 .836.137 2.07 1.19 1.411 1.25 1.644 1.81 2.434 1.81h2.078c.593 0 .892-.262.72-.781-.396-1.09-3.066-3.335-3.186-3.485-.306-.35-.218-.506 0-.818.004-.004 2.54-3.166 2.801-4.238z" fill="#fff"/></svg>