<svg width="20" height="12" viewBox="0 0 20 12" fill="none" xmlns="http://www.w3.org/2000/svg">
<path d="M19.5442 0.803704C19.6816 0.340741 19.5442 0 18.8833 0H16.6965C16.1395 0 15.8834 0.292592 15.746 0.618518C15.746 0.618518 14.6322 3.32593 13.0579 5.08148C12.5493 5.58889 12.3154 5.75185 12.0369 5.75185C11.8995 5.75185 11.6879 5.58889 11.6879 5.12593V0.803704C11.6879 0.248148 11.532 0 11.0716 0H7.63352C7.28452 0 7.0766 0.259259 7.0766 0.5C7.0766 1.02593 7.86371 1.14815 7.9454 2.62963V5.84444C7.9454 6.54815 7.81916 6.67778 7.5407 6.67778C6.79814 6.67778 4.99372 3.95926 3.92443 0.848148C3.70909 0.244445 3.49746 0 2.93683 0H0.749986C0.126235 0 0 0.292592 0 0.618518C0 1.1963 0.74256 4.06667 3.45662 7.85926C5.26475 10.4481 7.81173 11.8519 10.1285 11.8519C11.5208 11.8519 11.6916 11.5407 11.6916 11.0037C11.6916 8.52963 11.5654 8.2963 12.2634 8.2963C12.5864 8.2963 13.1433 8.45926 14.4428 9.70741C15.9279 11.1889 16.173 11.8519 17.0046 11.8519H19.1915C19.8152 11.8519 20.1308 11.5407 19.9489 10.9259C19.5331 9.63333 16.7225 6.97407 16.5962 6.7963C16.2732 6.38148 16.366 6.1963 16.5962 5.82593C16.5999 5.82222 19.2694 2.07407 19.5442 0.803704V0.803704Z" fill="white"/>
</svg>
