<svg width="24" height="25" fill="none" xmlns="http://www.w3.org/2000/svg"><path d="M19.724 4.333A11.45 11.45 0 0011.592.977C5.256.977.1 6.11.097 12.418a11.376 11.376 0 001.534 5.72L0 24.067l6.094-1.591a11.527 11.527 0 005.493 1.393h.005c6.336 0 11.493-5.134 11.496-11.442a11.346 11.346 0 00-3.364-8.094zm-8.132 17.603h-.004a9.576 9.576 0 01-4.863-1.326l-.349-.206-3.616.945.966-3.51-.228-.36a9.454 9.454 0 01-1.46-5.06c.001-5.244 4.288-9.51 9.558-9.51A9.514 9.514 0 0118.35 5.7a9.43 9.43 0 012.796 6.728c-.002 5.243-4.288 9.51-9.555 9.51z" fill="#E0E0E0"/><path d="M.528 23.409l1.556-5.658A10.86 10.86 0 01.62 12.293C.622 6.273 5.543 1.375 11.59 1.375a10.925 10.925 0 017.76 3.202 10.826 10.826 0 013.21 7.724c-.002 6.02-4.924 10.918-10.97 10.918h-.005a11 11 0 01-5.242-1.328L.528 23.409z" fill="url(#paint0_linear)"/><path fill-rule="evenodd" clip-rule="evenodd" d="M8.751 7.561c-.212-.47-.436-.48-.638-.488-.166-.008-.355-.007-.545-.007-.189 0-.497.07-.757.354-.26.282-.994.966-.994 2.357 0 1.391 1.018 2.735 1.16 2.924.142.188 1.964 3.134 4.85 4.267 2.399.941 2.887.754 3.407.707.521-.047 1.68-.684 1.917-1.344.236-.66.236-1.226.166-1.344-.072-.118-.26-.188-.545-.33-.284-.141-1.68-.825-1.94-.92-.26-.094-.45-.14-.639.142-.19.283-.733.92-.899 1.108-.165.19-.331.213-.615.071-.284-.142-1.198-.44-2.283-1.403-.844-.749-1.414-1.674-1.58-1.957-.166-.283-.018-.436.125-.577.127-.127.284-.33.426-.495.141-.165.189-.283.283-.471.095-.19.048-.354-.023-.496-.071-.141-.623-1.54-.876-2.098z" fill="#fff"/><path d="M19.63 4.296A11.318 11.318 0 0011.592.98C5.328.98.23 6.053.228 12.29c0 1.993.522 3.939 1.517 5.654l-1.613 5.86 6.025-1.572a11.397 11.397 0 005.43 1.377h.005c6.263 0 11.36-5.074 11.363-11.31a11.216 11.216 0 00-3.325-8.002zm-8.038 17.402h-.004a9.464 9.464 0 01-4.807-1.31l-.345-.204-3.575.933.954-3.469-.225-.356a9.345 9.345 0 01-1.444-5.002c.003-5.184 4.24-9.4 9.45-9.4a9.404 9.404 0 016.677 2.757 9.322 9.322 0 012.764 6.65c-.003 5.183-4.24 9.4-9.445 9.4z" fill="#fff"/><defs><linearGradient id="paint0_linear" x1="11.544" y1="23.409" x2="11.544" y2="1.375" gradientUnits="userSpaceOnUse"><stop stop-color="#20B038"/><stop offset="1" stop-color="#60D66A"/></linearGradient></defs></svg>