<?xml version="1.0" standalone="no"?>
<!DOCTYPE svg PUBLIC "-//W3C//DTD SVG 20010904//EN"
 "http://www.w3.org/TR/2001/REC-SVG-20010904/DTD/svg10.dtd">
<svg version="1.0" xmlns="http://www.w3.org/2000/svg"
 width="700.000000pt" height="700.000000pt" viewBox="0 0 700.000000 700.000000"
 preserveAspectRatio="xMidYMid meet">
<metadata>
Created by potrace 1.11, written by Peter Selinger 2001-2013
</metadata>
<g transform="translate(0.000000,700.000000) scale(0.100000,-0.100000)"
fill="#000000" stroke="none">
<path d="M3960 6142 c-261 -132 -538 -301 -746 -456 -23 -17 -55 -40 -70 -51
-55 -40 -296 -239 -367 -304 -100 -91 -269 -262 -349 -351 -102 -115 -115
-129 -176 -210 -31 -41 -63 -81 -70 -88 -58 -63 -244 -357 -338 -537 -227
-435 -340 -863 -348 -1315 -6 -311 56 -603 187 -884 248 -534 732 -940 1299
-1090 109 -29 207 -47 336 -61 48 -6 315 -6 367 0 103 11 138 16 205 31 14 3
38 7 53 10 15 3 65 17 110 30 45 14 90 27 99 29 10 2 62 22 115 45 335 142
622 365 836 648 183 243 325 568 371 852 3 19 8 46 11 60 26 121 24 468 -4
630 -22 126 -68 300 -100 375 -81 188 -192 374 -315 525 -72 88 -251 270 -390
395 -391 353 -605 681 -683 1048 -18 86 -24 337 -9 407 18 87 26 119 46 174
11 33 26 69 33 80 14 23 38 76 34 76 -1 0 -63 -31 -137 -68z m-505 -814 c-44
-45 -85 -87 -91 -92 -6 -6 -46 -51 -89 -101 -44 -49 -82 -92 -85 -95 -3 -3
-41 -50 -84 -105 -42 -55 -83 -108 -91 -117 -30 -37 -176 -247 -214 -308 -123
-199 -247 -428 -306 -570 -15 -36 -33 -78 -40 -95 -89 -202 -188 -561 -221
-795 -2 -19 -6 -48 -9 -65 -25 -173 -26 -622 0 -697 2 -7 7 -31 10 -53 24
-169 105 -409 202 -600 l35 -70 -38 35 c-72 67 -99 95 -154 160 -30 36 -58 67
-61 70 -30 27 -169 274 -201 358 -4 12 -12 32 -17 45 -34 81 -71 225 -89 347
-10 62 -9 381 1 460 65 527 281 1009 674 1500 119 149 413 450 568 582 105 89
363 288 373 288 4 0 -29 -37 -73 -82z"/>
</g>
</svg>
