<?xml version="1.0" encoding="utf-8"?>
<!-- Generator: Adobe Illustrator 24.3.0, SVG Export Plug-In . SVG Version: 6.00 Build 0)  -->
<svg version="1.1" id="Слой_1" xmlns="http://www.w3.org/2000/svg" xmlns:xlink="http://www.w3.org/1999/xlink" x="0px" y="0px"
	 viewBox="0 0 512 512" style="enable-background:new 0 0 512 512;" xml:space="preserve">
<style type="text/css">
	.st0{fill:#3A3F4C;}
	.st1{fill:#3970C2;}
</style>
<path class="st0" d="M68.5,307h132.7L182,358.2h-19.7v17.1H350v-17.1h-19.7L311.1,307h132.7c18.8,0,34.1-15.3,34.1-34.1V34.1
	c0-18.8-15.3-34.1-34.1-34.1H68.5C49.7,0,34.4,15.3,34.4,34.1v238.8C34.4,291.8,49.7,307,68.5,307z M312.1,358.2H200.2l19.2-51.2
	h73.5L312.1,358.2z M460.9,272.9c0,9.4-7.6,17.1-17.1,17.1H68.5c-9.4,0-17.1-7.6-17.1-17.1v-17.1h409.4L460.9,272.9L460.9,272.9z
	 M51.5,34.1c0-9.4,7.6-17.1,17.1-17.1h375.3c9.4,0,17.1,7.6,17.1,17.1v204.7H51.5V34.1z"/>
<path class="st0" d="M77.1,392.3c-4.7,0-8.5,3.8-8.5,8.5v102.3c0,4.7,3.8,8.5,8.5,8.5h238.8c4.7,0,8.5-3.8,8.5-8.5V400.9
	c0-4.7-3.8-8.5-8.5-8.5H77.1V392.3z M307.3,494.7H85.6v-85.3h221.8v85.3H307.3z"/>
<path class="st0" d="M102.7,460.6h17.1v17.1h-17.1V460.6z"/>
<path class="st0" d="M273.2,460.6h17.1v17.1h-17.1V460.6z"/>
<path class="st0" d="M102.7,426.5h17.1v17.1h-17.1V426.5z"/>
<path class="st0" d="M136.8,426.5h17.1v17.1h-17.1V426.5z"/>
<path class="st0" d="M170.9,426.5H188v17.1h-17.1V426.5z"/>
<path class="st0" d="M205,426.5h17.1v17.1H205V426.5z"/>
<path class="st0" d="M239.1,426.5h17.1v17.1h-17.1V426.5z"/>
<path class="st0" d="M273.2,426.5h17.1v17.1h-17.1V426.5z"/>
<path class="st0" d="M136.8,460.6h119.4v17.1H136.8V460.6z"/>
<path class="st0" d="M358.5,435v34.1c0,23.6,19.1,42.6,42.6,42.6s42.6-19.1,42.6-42.6V435c0-23.6-19.1-42.6-42.6-42.6
	S358.5,411.4,358.5,435z M426.8,435v34.1c0,14.1-11.5,25.6-25.6,25.6s-25.6-11.5-25.6-25.6V435c0-10.8,6.9-20.4,17.1-24v24h17.1v-24
	C419.9,414.6,426.7,424.2,426.8,435z"/>
<path class="st1" d="M304.9,99.8l-85.3,85.3L207.5,173l85.3-85.3L304.9,99.8z"/>
<path class="st1" d="M262.2,91.3L211,142.5l-12-12.1l51.2-51.2L262.2,91.3z"/>
<path class="st1" d="M313.4,142.5l-51.2,51.2l-12.1-12.1l51.2-51.2L313.4,142.5z"/>
</svg>
