<?xml version="1.0" encoding="utf-8"?>
<!-- Generator: Adobe Illustrator 24.3.0, SVG Export Plug-In . SVG Version: 6.00 Build 0)  -->
<svg version="1.1" id="Слой_1" xmlns="http://www.w3.org/2000/svg" xmlns:xlink="http://www.w3.org/1999/xlink" x="0px" y="0px"
	 viewBox="0 0 512 512" style="enable-background:new 0 0 512 512;" xml:space="preserve">
<style type="text/css">
	.st0{fill:#3A3F4C;}
	.st1{fill:#3970C2;}
</style>
<path class="st0" d="M256.1,16c-97,0-184.6,58.5-221.7,148.2S17.8,357.1,86.5,425.8c93.7,93.7,245.7,93.7,339.4,0
	s93.7-245.7,0-339.4C380.9,41.2,319.8,15.9,256.1,16z M256.1,473.8c-120,0-217.7-97.7-217.7-217.7S136.1,38.4,256.1,38.4
	s217.7,97.7,217.7,217.7S376.1,473.8,256.1,473.8z"/>
<path class="st1" d="M370.2,182.3L226.1,320l-78.6-78.5c-4.3-4.3-11.4-4.3-15.7,0s-4.3,11.4,0,15.7l86.3,86.3c2.1,2.1,5,3.3,7.9,3.2
	c2.9,0,5.7-1.1,7.7-3.1l151.9-145.2c4.4-4.3,4.5-11.3,0.3-15.7C381.7,178.3,374.7,178.1,370.2,182.3z"/>
</svg>
