<?xml version="1.0" encoding="utf-8"?>
<!-- Generator: Adobe Illustrator 24.3.0, SVG Export Plug-In . SVG Version: 6.00 Build 0)  -->
<svg version="1.1" id="Слой_1" xmlns="http://www.w3.org/2000/svg" xmlns:xlink="http://www.w3.org/1999/xlink" x="0px" y="0px"
	 viewBox="0 0 512 512" style="enable-background:new 0 0 512 512;" xml:space="preserve">
<style type="text/css">
	.st0{fill:#3A3F4C;}
	.st1{fill:#3970C2;}
</style>
<path class="st0" d="M503.2,34.4H435V0.3h-17.1v34.1h-68.2V0.3h-17.1v34.1h-68.2V0.3h-17.1v34.1h-68.2V0.3H162v34.1H93.8V0.3h-17
	v34.1H8.5c-4.7,0-8.5,3.8-8.5,8.5v460.6c0,4.7,3.8,8.5,8.5,8.5h494.7c4.7,0,8.5-3.8,8.5-8.5V42.9C511.7,38.2,507.9,34.4,503.2,34.4z
	 M494.7,341.4h-76.8c-4.7,0-8.5,3.8-8.5,8.5v76.8H17.1v-290h477.6V341.4z M482.6,358.5l-56.2,56.2v-56.2H482.6z M17.1,443.8H418
	c2.3,0,4.4-0.9,6-2.5l70.7-70.7v90.3H17.1V443.8z M17.1,51.4h59.7v34.1h17.1V51.4h68.2v34.1h17.1V51.4h68.2v34.1h17.1V51.4h68.2
	v34.1h17.1V51.4H418v34.1h17V51.4h59.7v68.2H17.1V51.4z M494.7,494.9H17.1v-17.1h477.6V494.9z"/>
<path class="st0" d="M230.3,222h51.2c4.7,0,8.5-3.8,8.5-8.5v-51.2c0-4.7-3.8-8.5-8.5-8.5h-51.2c-4.7,0-8.5,3.8-8.5,8.5v51.2
	C221.8,218.2,225.6,222,230.3,222z M238.8,170.8h34.1V205h-34.1L238.8,170.8L238.8,170.8z"/>
<path class="st0" d="M315.6,222h51.2c4.7,0,8.5-3.8,8.5-8.5v-51.2c0-4.7-3.8-8.5-8.5-8.5h-51.2c-4.7,0-8.5,3.8-8.5,8.5v51.2
	C307,218.2,310.9,222,315.6,222z M324.1,170.8h34.1V205h-34.1V170.8z"/>
<path class="st0" d="M400.9,222H452c4.7,0,8.5-3.8,8.5-8.5v-51.2c0-4.7-3.8-8.5-8.5-8.5h-51.2c-4.7,0-8.5,3.8-8.5,8.5v51.2
	C392.3,218.2,396.2,222,400.9,222z M409.4,170.8h34.1V205h-34.1V170.8z"/>
<path class="st0" d="M315.6,392.6h51.2c4.7,0,8.5-3.8,8.5-8.5v-51.2c0-4.7-3.8-8.5-8.5-8.5h-51.2c-4.7,0-8.5,3.8-8.5,8.5v51.2
	C307,388.8,310.9,392.6,315.6,392.6z M324.1,341.4h34.1v34.1h-34.1V341.4z"/>
<path class="st0" d="M145,222h51.2c4.7,0,8.5-3.8,8.5-8.5v-51.2c0-4.7-3.8-8.5-8.5-8.5H145c-4.7,0-8.5,3.8-8.5,8.5v51.2
	C136.5,218.2,140.3,222,145,222z M153.5,170.8h34.1V205h-34.1V170.8z"/>
<path class="st1" d="M230.3,307.3h51.2c4.7,0,8.5-3.8,8.5-8.5v-51.2c0-4.7-3.8-8.5-8.5-8.5h-51.2c-4.7,0-8.5,3.8-8.5,8.5v51.2
	C221.8,303.5,225.6,307.3,230.3,307.3z M238.8,256.1h34.1v34.1h-34.1L238.8,256.1L238.8,256.1z"/>
<path class="st0" d="M315.6,307.3h51.2c4.7,0,8.5-3.8,8.5-8.5v-51.2c0-4.7-3.8-8.5-8.5-8.5h-51.2c-4.7,0-8.5,3.8-8.5,8.5v51.2
	C307,303.5,310.9,307.3,315.6,307.3z M324.1,256.1h34.1v34.1h-34.1V256.1z"/>
<path class="st0" d="M400.9,307.3H452c4.7,0,8.5-3.8,8.5-8.5v-51.2c0-4.7-3.8-8.5-8.5-8.5h-51.2c-4.7,0-8.5,3.8-8.5,8.5v51.2
	C392.3,303.5,396.2,307.3,400.9,307.3z M409.4,256.1h34.1v34.1h-34.1V256.1z"/>
<path class="st0" d="M59.7,307.3h51.2c4.7,0,8.5-3.8,8.5-8.5v-51.2c0-4.7-3.8-8.5-8.5-8.5H59.7c-4.7,0-8.5,3.8-8.5,8.5v51.2
	C51.2,303.5,55,307.3,59.7,307.3z M68.2,256.1h34.1v34.1H68.2V256.1z"/>
<path class="st0" d="M145,307.3h51.2c4.7,0,8.5-3.8,8.5-8.5v-51.2c0-4.7-3.8-8.5-8.5-8.5H145c-4.7,0-8.5,3.8-8.5,8.5v51.2
	C136.5,303.5,140.3,307.3,145,307.3z M153.5,256.1h34.1v34.1h-34.1V256.1z"/>
<path class="st0" d="M230.3,392.6h51.2c4.7,0,8.5-3.8,8.5-8.5v-51.2c0-4.7-3.8-8.5-8.5-8.5h-51.2c-4.7,0-8.5,3.8-8.5,8.5v51.2
	C221.8,388.8,225.6,392.6,230.3,392.6z M238.8,341.4h34.1v34.1h-34.1L238.8,341.4L238.8,341.4z"/>
<path class="st0" d="M59.7,392.6h51.2c4.7,0,8.5-3.8,8.5-8.5v-51.2c0-4.7-3.8-8.5-8.5-8.5H59.7c-4.7,0-8.5,3.8-8.5,8.5v51.2
	C51.2,388.8,55,392.6,59.7,392.6z M68.2,341.4h34.1v34.1H68.2V341.4z"/>
<path class="st0" d="M145,392.6h51.2c4.7,0,8.5-3.8,8.5-8.5v-51.2c0-4.7-3.8-8.5-8.5-8.5H145c-4.7,0-8.5,3.8-8.5,8.5v51.2
	C136.5,388.8,140.3,392.6,145,392.6z M153.5,341.4h34.1v34.1h-34.1V341.4z"/>
</svg>
