<?xml version="1.0" encoding="utf-8"?>
<!-- Generator: Adobe Illustrator 24.3.0, SVG Export Plug-In . SVG Version: 6.00 Build 0)  -->
<svg version="1.1" id="Слой_1" xmlns="http://www.w3.org/2000/svg" xmlns:xlink="http://www.w3.org/1999/xlink" x="0px" y="0px"
	 viewBox="0 0 512 512" style="enable-background:new 0 0 512 512;" xml:space="preserve">
<style type="text/css">
	.st0{fill:#3A3F4C;}
	.st1{fill:#3970C2;}
</style>
<path class="st0" d="M59.6,59.7v443.5c0,4.7,3.8,8.5,8.5,8.5h324.1c4.7,0,8.5-3.8,8.5-8.5V145c0-0.2-0.1-0.4-0.1-0.5
	c0-0.7-0.2-1.5-0.4-2.2c-0.1-0.3-0.2-0.5-0.3-0.8c-0.4-0.9-1-1.8-1.7-2.5l-85.3-85.3c-0.7-0.7-1.6-1.3-2.5-1.7
	c-0.3-0.1-0.5-0.2-0.8-0.3c-0.7-0.2-1.5-0.4-2.2-0.4c-0.1,0-0.3-0.1-0.5-0.1H68.1C63.4,51.2,59.6,55,59.6,59.7z M371.6,136.5h-56.2
	V80.3L371.6,136.5z M76.6,68.2h221.8V145c0,4.7,3.8,8.5,8.5,8.5h76.8v341.2h-307V68.2H76.6z"/>
<path class="st0" d="M417.8,443.5v17.1h25.6c4.7,0,8.5-3.8,8.5-8.5V8.5c0-4.7-3.8-8.5-8.5-8.5H119.3c-4.7,0-8.5,3.8-8.5,8.5v25.6
	h17.1v-17h307v426.5h-17.1V443.5z"/>
<path class="st1" d="M127.8,170.6h204.7v17.1H127.8V170.6z"/>
<path class="st1" d="M127.8,119.4H196v17.1h-68.2V119.4z"/>
<path class="st0" d="M127.8,221.8h136.5v17.1H127.8V221.8z"/>
<path class="st0" d="M281.3,221.8h51.2v17.1h-51.2V221.8z"/>
<path class="st0" d="M127.8,272.9h204.7V290H127.8V272.9z"/>
<path class="st0" d="M127.8,375.3h204.7v17.1H127.8V375.3z"/>
<path class="st0" d="M204.6,324.1h127.9v17.1H204.6V324.1z"/>
<path class="st0" d="M127.8,324.1h59.7v17.1h-59.7V324.1z"/>
<path class="st0" d="M127.8,426.5h34.1v17.1h-34.1C127.8,443.6,127.8,426.5,127.8,426.5z"/>
<path class="st0" d="M179,426.5h153.5v17.1H179V426.5z"/>
</svg>
