<svg width="93" height="93" fill="none" xmlns="http://www.w3.org/2000/svg"><path fill="#fff" d="M0 0h93v93H0z"/><path d="M21.437 60.894c-3.611-2.547-5.538-5.974-5.756-9.719-.283-4.922 2.59-10.234 8.694-14.763 6.1-4.528 14.268-7.414 22.543-8.42 6.722-.819 18.87.036 24.338 3.376-6.322-5.236-21.531-5.847-27.595-5.114-8.391 1.02-16.666 3.942-22.841 8.526-6.176 4.584-9.089 9.967-8.8 14.96.222 3.81 4.825 9.855 9.417 11.154z" fill="#F9F8F8"/><path d="M25 25.5a1.5 1.5 0 00-1.5 1.5v3.9a1.5 1.5 0 001.5 1.5h2.951l6.285 13.25-2.257 4.095a5.27 5.27 0 00-.679 2.605 5.413 5.413 0 003.083 4.876 5.41 5.41 0 00-3.064 4.874c0 2.964 2.398 5.4 5.381 5.4 2.973 0 5.4-2.427 5.4-5.4a5.4 5.4 0 00-2.207-4.35h13.12a5.407 5.407 0 00-2.194 4.35c0 2.964 2.398 5.4 5.381 5.4 2.973 0 5.4-2.427 5.4-5.4a5.4 5.4 0 00-2.207-4.35h.707a1.5 1.5 0 001.5-1.5v-3.9a1.5 1.5 0 00-1.5-1.5H39.233l.497-.9h13.643a5.382 5.382 0 004.727-2.787s0 0 0 0l6.975-12.644c.299-.529.425-1.12.425-1.669 0-1.9-1.55-3.45-3.45-3.45H34.162l-1.428-3.038a1.5 1.5 0 00-1.358-.862H25z" fill="#F9B300" stroke="#fff" stroke-width="3" stroke-linejoin="round"/><path d="M81.937 44.12c-.273-4.761-3.601-9.3-9.918-12.666.652.768 6.029 4.428 6.256 11.236.167 4.927-2.59 10.234-8.689 14.763-6.1 4.528-14.243 7.697-22.542 8.42-11.466.995-18.679-.688-20.009-.82 7.07 2.725 15.34 3.519 23.27 2.553 8.392-1.02 16.666-3.942 22.842-8.521 4.375-3.25 7.11-6.899 8.229-10.523.46-1.5.647-2.987.561-4.442z" fill="#E8E8E8"/></svg>