<svg width="81" height="74" fill="none" xmlns="http://www.w3.org/2000/svg"><path d="M72.95.99H7.495c-4 0-7.272 3.285-7.272 7.3v43.8c0 4.015 3.272 7.3 7.272 7.3H32.95v7.3h-3.636c-2 0-3.637 1.642-3.637 3.65 0 2.007 1.637 3.65 3.637 3.65h21.818c2 0 3.636-1.643 3.636-3.65 0-2.008-1.636-3.65-3.636-3.65h-3.637v-7.3H72.95c4 0 7.273-3.285 7.273-7.3V8.29c0-4.015-3.273-7.3-7.273-7.3zm-3.636 51.1H11.132c-2 0-3.637-1.643-3.637-3.65v-36.5c0-2.008 1.637-3.65 3.637-3.65h58.182c2 0 3.636 1.642 3.636 3.65v36.5c0 2.007-1.636 3.65-3.636 3.65z" fill="#fff"/></svg>