<svg width="174" height="46" fill="none" xmlns="http://www.w3.org/2000/svg"><path d="M10.146 37.517c-3.882-2.739-5.954-6.423-6.188-10.45-.305-5.292 2.784-11.003 9.348-15.872 6.558-4.869 15.34-7.972 24.236-9.053 7.227-.88 20.289.038 26.167 3.63C56.912.142 40.56-.515 34.04.272 25.02 1.37 16.122 4.513 9.483 9.44 2.843 14.368-.29 20.156.02 25.524c.24 4.098 5.188 10.596 10.125 11.993z" fill="url(#paint0_linear)"/><path d="M75.194 19.482c-.294-5.12-3.872-9.999-10.663-13.618.7.826 6.481 4.76 6.726 12.08.18 5.298-2.784 11.004-9.342 15.872-6.558 4.87-15.313 8.276-24.237 9.053-12.327 1.07-20.082-.739-21.512-.88 7.602 2.929 16.493 3.782 25.02 2.744 9.021-1.097 17.917-4.238 24.557-9.161 4.704-3.494 7.646-7.418 8.848-11.314.494-1.614.696-3.211.603-4.776z" fill="url(#paint1_radial)"/><path d="M61.463 10.64c-.141-.706-.766-1.026-1.087-1.624-.288-.32-.218-.766-.408-1.087-.25-.212-.517-.413-.707-.674.081-.185-.016-.489-.196-.641-.038-.26.066-.598-.108-.831-.136-.12-.272-.24-.425-.326l-.12.01c.011.147.044.522.06.674l-.108.13c-.071.006-.163.011-.234.022l-.027-.315c-.082-.038-.19-.081-.283-.054-.054.076-.141.147-.169.239-1-.07-1.838.712-2.294 1.44-.261.304-1.365.272-.675.804-.745.022-1.038.81-1.365 1.397-.592.049-.669.348-.125.64-.266.365-.364.979-.299 1.36-.587.086-.919.467-1.261.896-.229.326-.56.859-.604 1.25-.424.136-.88.288-1.305.434-1.718.163-3.562-.19-5.231.375-1.066.408-2.148.902-3.03 1.625A4.451 4.451 0 0040.12 18.7c-.093-.337-.365-.62-.555-.913a6.293 6.293 0 00-1.082-1.103 6.019 6.019 0 00-1.164-.7c-.26-.088-.533-.267-.81-.25l-.022-.278c-.913.141-1.838-.087-2.686-.408-.587-.173-1.626-.19-2.164.11-1.442.08-3.203.14-4.574.635-.326.13-.755.244-.897.598-.26.103-.538.222-.805.31l.006.037c-.604-.038-1.8.022-1.79.837-.462.201-.924.554-1.31.875-.43.196-.848.43-1.202.745-1.734 1.608-2.028 4.173-1.707 6.422-.952-.005-1.92.337-2.605.984-.223.212-.457.418-.658.657-.12.202-.32.392-.386.555-1.43 2.179-1.664 5.39-.261 7.656.408.614.973 1.136 1.664 1.413.935.342 2.148.478 3.094.092 1.708-.69 2.888-2.592 3.192-4.358 1.838.261 3.687.614 5.53.805-.228 2.385.555 5.325 2.942 6.298 1.202.385 2.692.505 3.823-.174 2.812-1.663 3.698-5.385 3.078-8.461.3-.206.604-.413.892-.636.027.364-.022.576-.196.897-.098.195-.043.804.044.994.114.228.489.19.44.522-.185.456-.304 1.244.419 1.2.636-.059 1.392-.151 1.843-.64.055.342.332.624.511.913.289.326.615.63.985.874 1.033.538 2.43.718 3.545.288 2.382-1.06 3.584-4.13 3.274-6.634a.274.274 0 00.163.027c.07.353-.033.766.016 1.12.109.184.218.407.435.477.348.07.876-.06 1.213-.146.217-.087.44-.207.598-.375.076-.256.087-.56-.18-.701-.195-.32-.413-.625-.706-.859-.011-.282.163-.592.125-.891a15.4 15.4 0 01.51-1.446c.202-.45.267-.978.643-1.33.2.429.233 1.456.282 1.934-.032.386-.163 1.288.457 1.2.267.31.12.903.533 1.153.054.135.81-.011.908 0 .332-.066.74-.153.952-.44.016-.392-.174-.734-.44-1a2.6 2.6 0 01-.534-.234c-.103-.163-.103-.609-.184-.783-.077-.195-.207-.407-.25-.62-.071-.57-.088-1.542-.142-2.102-.092-.418-.228-.945-.234-1.38.354-.56.544-1.223.876-1.793.337-.316.641-.68.94-1.038.104-.098.158-.245.207-.375.109-.207.228-.462.218-.701l.076-.006.049.555c.212-.006.783-.017.984-.044-.022-.391-.087-1.049-.201-1.424l.076-.005c.168-.147.391-.244.516-.446.11-.331-.06-.76-.456-.755-.185-.01-.332.147-.5.201-.022-.25-.17-.5-.262-.733l-.038.005c.136-.418.348-.831.408-1.272.093-1.228-.12-2.532.158-3.738.299.157.701.043 1.006.201.31.26.745.315 1.077.543.065.544.723.5 1.093.305.173-.098.31-.256.483-.359.164-.212.087-.717.06-.946zM19.641 26.741c.157.767.582 1.462.892 2.158-.18.239-.332.5-.534.722-.228-.13-.625-.136-.88-.125-.272-.782-.522-1.586-.794-2.369.299-.282.93-.331 1.316-.386zm-2.018.935l.038-.005c.245.76.539 1.526.75 2.293-.146.152-.25.331-.353.51-.108.278-.25.593-.201.897-.604.12-1.24.31-1.822.516.104-1.532.539-3.07 1.588-4.211zm.843 6.678c-.06.522-.169 1.054-.223 1.576l-.038.044c-1.37-.468-1.92-1.967-2.137-3.288.609-.092 1.207-.397 1.816-.478.104.402.343.739.674.978l.087-.005c-.087.375-.103.793-.179 1.173zm.538 1.75c.196-.891.294-1.842.408-2.75.452-.043.794-.39 1.088-.695.141 0 .25.152.375.206.158.13.354.218.506.359l.081-.005v.038c.055.043.12.097.169.146l.081-.005.006.038.043.038.087-.005c-.56 1.282-1.354 2.407-2.844 2.635zm3.04-5.298c-.13.141-.337.288-.315.505-.25-.049-.544-.125-.8-.092.017-.364-.168-.707-.32-1.01.048-.12.331-.479.424-.599.2.212.38.446.57.669.104.087.463.413.523.516l-.082.01zm9.06 6.13c-.365-.892-.539-2.223-.506-3.196.62-.043 1.25.234 1.876.196.006.228.06.668.152.864-.087.141-.195.282-.282.424-.115.114-.175.266-.283.386-.076.092-.278.369-.316.467-.212.244-.359.522-.565.771l.005.082-.081.005zm3.975 1.608c-.539.484-1.55.494-2.197.228-.261-.092-.479-.277-.707-.418a9.846 9.846 0 01-.522-.555l-.011-.12c.125-.151.218-.325.354-.467.114-.222.299-.418.424-.635.266-.326.467-.701.745-1.022l-.006-.087c.343.152.696.364 1.088.272.01.26.152.527.223.777.239.663.43 1.358.685 2.016l-.076.01zm2.528-5.173c-.12 1.63-.685 3.244-1.756 4.466a16.869 16.869 0 01-.8-2.407c.262-.223.512-.478.686-.777.19-.348.223-.76.299-1.146.522-.147 1.06-.326 1.582-.457l-.01.32zm-.141-1.185c-.544.18-1.131.294-1.659.505-.021-.217-.2-.402-.326-.57-.157-.245-.495-.554-.805-.533.104-.347.098-.744.19-1.092l.468-.081c.544.081 1.224-.142 1.664-.462.392.646.479 1.489.626 2.222l-.158.011zm6.933-1.282c.158-.05.38-.109.539-.169.005.283.174.55.348.75a1.894 1.894 0 01-.354.033c-.022-.05-.076-.125-.103-.174-.07-.022-.245-.044-.321-.055-.022-.016-.065-.054-.087-.07l-.065-.315h.043zm1.11 1.902l-.028.163c-.049.521-.212 1.06-.184 1.58-1.387-.456-1.974-1.944-2.176-3.292.294-.033.604-.169.887-.24l.038-.043c-.022.337.234.74.609.669.027.163.027.37-.033.521.027.18.098.424.245.538l.669-.06.01.12-.037.044zm.081-.451l-.587.054-.022-.277c.082-.07.06-.24.05-.332.168 0 .325-.032.505-.076 0 .006.081.033.087.038.032.18-.05.408-.033.593zm.185-5.25l.022-.2c.228-.256.364-.571.56-.848.054-.169.217-.321.234-.5l.038-.006c.032-.054.12-.081.147-.13.62.005 1.169.43 1.577.864l.005.081c-.234.283-.435.593-.636.892-.169.195-.506.711-.669.934-.092.027-.201-.016-.283-.054-.076-.055-.538.01-.63.016-.088-.342-.196-.744-.365-1.049zm.93 4.913a1.053 1.053 0 01-.305.146l.028-.163.032-.081.234-.06.01.158zm1.56 1.108c-.5.745-1.261 1.424-2.207 1.473.081-.68.26-1.38.26-2.06.441-.065.947-.348.68-.858.213-.07.338-.315.517-.446l.038-.005c.403.271.81.543 1.218.815-.043.396-.348.728-.505 1.081zm.79-1.87c-.398-.25-.79-.51-1.175-.776.065-.304.038-.973-.071-1.272-.038-.146-.19-.271-.196-.423.103-.142.196-.3.32-.43.055-.141.18-.25.246-.38.233-.283.424-.598.636-.897h.038c.364.766.522 1.668.49 2.516-.044.549-.071 1.158-.289 1.663zm3.224-8.59c-.082.364-.272.69-.386 1.032-.169.902-.44 1.783-.805 2.625-.201.391-.25.94-.61 1.212a.355.355 0 00-.07.125c-.022 0-.06.005-.076.005-.212-1.337-1.147-2.505-2.322-3.114.8-.532 1.56-1.103 2.355-1.64.5-.332.957-.734 1.495-1.011v-.038c.223-.017.451-.158.653-.256.076.37-.022.755-.234 1.06z" fill="#fff"/><path d="M61.463 10.64c-.141-.706-.766-1.026-1.087-1.624-.288-.32-.218-.766-.408-1.087-.25-.212-.517-.413-.707-.674.081-.185-.016-.489-.196-.641-.038-.26.066-.598-.108-.831-.136-.12-.272-.24-.425-.326l-.12.01c.011.147.044.522.06.674l-.108.13c-.071.006-.163.011-.234.022l-.027-.315c-.082-.038-.19-.081-.283-.054-.054.076-.141.147-.169.239-1-.07-1.838.712-2.294 1.44-.261.304-1.365.272-.675.804-.745.022-1.038.81-1.365 1.397-.592.049-.669.348-.125.64-.266.365-.364.979-.299 1.36-.587.086-.919.467-1.261.896-.229.326-.56.859-.604 1.25-.424.136-.88.288-1.305.434-1.718.163-3.562-.19-5.231.375-1.066.408-2.148.902-3.03 1.625A4.451 4.451 0 0040.12 18.7c-.093-.337-.365-.62-.555-.913a6.293 6.293 0 00-1.082-1.103 6.019 6.019 0 00-1.164-.7c-.26-.088-.533-.267-.81-.25l-.022-.278c-.913.141-1.838-.087-2.686-.408-.587-.173-1.626-.19-2.164.11-1.442.08-3.203.14-4.574.635-.326.13-.755.244-.897.598-.26.103-.538.222-.805.31l.006.037c-.604-.038-1.8.022-1.79.837-.462.201-.924.554-1.31.875-.43.196-.848.43-1.202.745-1.734 1.608-2.028 4.173-1.707 6.422-.952-.005-1.92.337-2.605.984-.223.212-.457.418-.658.657-.12.202-.32.392-.386.555-1.43 2.179-1.664 5.39-.261 7.656.408.614.973 1.136 1.664 1.413.935.342 2.148.478 3.094.092 1.708-.69 2.888-2.592 3.192-4.358 1.838.261 3.687.614 5.53.805-.228 2.385.555 5.325 2.942 6.298 1.202.385 2.692.505 3.823-.174 2.812-1.663 3.698-5.385 3.078-8.461.3-.212.61-.413.897-.636l-.005-.038c.033.392-.016.609-.196.935-.098.195-.043.804.044.994.114.228.489.19.44.522-.185.456-.304 1.244.419 1.2.636-.059 1.392-.151 1.843-.64.055.342.332.624.511.913.289.326.615.63.985.874 1.033.538 2.43.718 3.545.288 2.382-1.06 3.584-4.13 3.274-6.634a.274.274 0 00.163.027c.07.353-.033.766.016 1.12.109.184.218.407.435.477.348.07.876-.06 1.213-.146.217-.087.44-.207.598-.37.076-.255.087-.56-.18-.7-.195-.316-.413-.626-.706-.86-.011-.282.163-.592.125-.89a15.4 15.4 0 01.51-1.446c.202-.451.267-.978.637-1.331.201.429.234 1.456.283 1.934-.033.386-.163 1.288.457 1.201.266.31.12.902.533 1.152.054.136.81-.01.908 0 .331-.065.74-.152.951-.44.017-.391-.174-.734-.44-1a2.594 2.594 0 01-.533-.234c-.103-.163-.103-.608-.185-.782-.076-.196-.207-.408-.25-.62-.07-.57-.087-1.543-.141-2.103-.093-.418-.229-.945-.234-1.38.353-.56.543-1.222.875-1.793.337-.315.642-.68.941-1.038.103-.098.158-.244.207-.375.108-.206.228-.462.217-.7l.076-.006.05.554c.211-.005.782-.016.983-.043-.021-.392-.087-1.05-.2-1.424l.075-.006c.169-.146.392-.244.517-.445.109-.332-.06-.76-.457-.755-.185-.011-.331.146-.5.2-.022-.25-.169-.5-.261-.733l-.038.005c.136-.418.348-.825.408-1.271.092-1.228-.12-2.532.157-3.739.3.158.702.044 1.006.201.31.261.745.316 1.077.55.065.543.723.5 1.093.304.174-.098.31-.256.484-.36.169-.222.092-.727.065-.956zm-2.48-3.667c.142.31-.32.347-.472.565-.055-.25.108-.74-.104-.973.24.038.517.245.577.408zm-5.432 3.494c.229-.267-.185-.234-.332-.348.756-.141.544-1.386 1.398-1.408.386-.065.794-.304.223-.554 1.066-.288 1.42-1.766 2.67-1.733-.093.212-.07.636.027.934l.011-.005-.038.049c-.593.141-.8.63-.68 1.163-1.093-.875-.5 1.64-1.022 2.054-.408-1.853-1.267.37-.37 1.94.098.2.109.494.109.663-.103-.142-.234-.267-.348-.402-.125-.125-.3-.212-.386-.364-.163-.05-.256-.234-.419-.283-.169-.114-.37-.277-.576-.272 0 0-.223-.163-.642-.141-.07-.364.065-1.081.375-1.293zm-12.79 7.406c.13-.304.343-.57.522-.842.169-.217.386-.386.582-.57l.038-.006c-.26.304-.418.668-.669.978-.114.19-.331.272-.473.44l-.005.049-.038-.044.043-.005zm-.375 1.19c.109-.288.294-.538.446-.799.141-.174.337-.31.517-.445.255-.272.413-.603.636-.897.185-.353.468-.663.75-.945.473-.359 1.05-.57 1.594-.815 2.099-.854 4.518-.066 6.634-.576l-.017-.196-.043-.038c.228-.125.5-.217.674-.418l-.005-.038c.19 0 .44-.077.62-.136.049-.038.06-.13.103-.169l-.005-.038c.402-.136.777-.435 1.044-.772l-.006-.038.044.038c1.457.163 2.86 3.174 3.224 4.473-1.261.874-2.506 1.771-3.768 2.646l.005.038-.081.005a.452.452 0 00.022-.239c-.06-.07-.202-.07-.283-.054-.06.049.005.457.005.522-.326.136-.593.418-.897.597-.522.359-1.033.745-1.566 1.093l.005.038a11.863 11.863 0 01-1.566-.305c-.022-.467.163-.972.076-1.445l-.277.027c-.065.603-.12 1.223-.24 1.82-.037.234-.08.5-.217.696-.087.081-.185.163-.255.26-.267.327-.647.762-.69 1.18l-.077.005c-.359.25-1.36.076-1.757.316l-.032.043c.169-.75-.087-.93-.702-1.255-.326-.31-.63-.663-.804-1.087-.098-.239-.218-.489-.3-.733.028-.37.164-.886-.065-1.234-.125-.32-.402-.549-.587-.826-.261-.489-.288-1.125-.18-1.663.039-.195.196-.375.19-.576-.08-.016-.157-.114-.244-.098-.462.69-.408 1.75-.065 2.484.223.37.598.652.685 1.097.087.555-.304 1.033-.424 1.554-.316 1.027.016 2.272.337 3.255-.033-.14-.163-.239-.25-.342l-.038.005c-.05.088.087 1.424.092 1.55h-.038c-.168.227-.239.526-.408.755-.19.152-.435.266-.592.45a3.048 3.048 0 00-.174-.662c-.028 0-.212.016-.234.021-.24-.456-.593-.858-.783-1.331l.038-.005c.913-2.049.908-4.69-.093-6.706l.022-.087zm8.037 2.853c.365.12.778.24 1.164.223l.005.081-.081.006c-.696.516-1.42 1.005-2.126 1.505.092-.163.223-.304.315-.467.12-.082.294-.283.402-.397.136-.294.289-.63.321-.951zm-3.806 2.733c-.533.229-.925.658-1.338 1.038l.005.038c-.06-.32-.217-.663-.282-.973.331-.483.451-1.097.777-1.586.202.315.533.467.849.646.223.245-.011.566-.011.837zm-1.762-.288c-.103-.82-.31-1.777.141-2.527.125.386.392.734.49 1.114-.223.462-.424.946-.631 1.413zm.016 1.12c.011.157-.016-.158 0 0zm-1.822 2.755c-.2.027-.342.239-.527.326-.185.016-.413-.071-.598-.027.016-.451-.196-.946-.316-1.37l.039-.005c.13-.158.26-.326.353-.511.082-.109.201-.24.207-.38.239.26.391.608.592.907.267.332.245.668.25 1.06zm-11.212 2.14l-1.99.316c.211-.424.804-1.044.897-1.544.435.006 1.593-.19 2.033-.266l-.973 1.467.033.028zm-2.638 1.538l-1.348-.049c1.125-.5 2.43-1.325 3.844-1.287-.587.576-1.381 1.195-2.496 1.336zm1.338.408c-.392-.038-.81-.12-1.202-.174.207-.005.69 0 .908-.038.142 0 .212.12.294.212zm.669-3.353l-.359.011.468-1.907 2.12-.277c-.043.597-.282 1.293-.435 1.836l-1.794.337zm.886-2.163l-.788.055c.032-.56.016-1.695-.114-2.228l2.218-.51c-.01.113.109 2.439.05 2.472l-1.366.212zm-.185-6.531c.289.359.43.739.67 1.12-.327.19-2.035.483-2.11.744l-.077.005c-.103-.603-1.033-1.625-1.321-2.081l2.034-.739c.244.31.527.603.804.95zm-.19-1.125c.402-.337 6.134-1.413 7.27-1.51.343.461 1.131 1.374 1.355 2-1.844.33-5.292 1.091-7.222 1.586-.19-.576-1.017-1.695-1.403-2.076zm.957 2.434c.234.723.593 1.386.674 2.337l-2.207.538c-.05-.76-.463-1.598-.664-2.25l2.197-.625zm.538-.162c.316-.245 6.281-1.506 7.222-1.587.082.049.506 1.717.55 1.787-.017.087-.23.185-.501.278-.07-.19-.136-.38-.207-.57-.163.037-.326.08-.495.119l-.114.695c-.272.076-.348.109-.57.19-.023-.233-.039-.467-.06-.706-.414.103-.833.201-1.251.304.021.261.049.522.06.783-.17.043-.272.07-.42.103-.179-1.163-1.652-.576-1.533.413-.125.038-.212.07-.342.109.299-1.022-.778-.723-1.365-.533.027.294.049.587.076.875a3.89 3.89 0 01-.37.065c-.092-1-.435-1.576-.68-2.325zm8.603 2.564c.038-.668-.125-1.63-.196-2.298l1.191-.386c.087.581.098 1.771.055 2.358l-1.05.326zm.974-.136c-.126.767-.223 2.109-1.164 2.07l.174-1.651.99-.419zm-.653 2.098c-.158.397-.604 1.12-.908 1.37l.304-1.066.604-.304zm-1.137 1.907c.153-.021.223-.212.332-.31l-.005-.038.076-.005c.005.31.228.625.201.94-.283-.016-.593-.13-.875-.081l-.006-.082.038-.005c.087-.12.147-.267.245-.38l-.006-.039zm-5.894-4.428c-.065.103-.245.108-.36.146-.01-.141-.02-.282-.032-.424.245-.12.533-.038.392.278zm.098.521c.223.288-.12.473-.392.495a12.1 12.1 0 00-.038-.451c.136-.017.326-.12.43-.044zm0 .886c.576-.043.82-1.125.185-1.25.212-.065.337-.103.51-.152-.043 1.739 1.991 1.005 1.567-.424.13-.032.26-.076.391-.114.006.256-.016.516-.049.755a2.035 2.035 0 01-.152.038l.082.979.375-.098c-.016-.158-.027-.315-.044-.473.321-.081.637-.163.952-.245.016.158.027.316.044.473.125-.032.244-.065.37-.098l-.082-.967a1.214 1.214 0 00-.158.044l-.065-.783.522-.163c-.076.467-.152.935-.223 1.402.152-.038.31-.081.462-.12.017-.125.027-.25.044-.374.168-.044.342-.087.51-.13.033.113.072.222.104.336.158-.038.316-.081.468-.12-.158-.429-.31-.853-.468-1.282l.506-.163.054.158.147 2.222c-2.268.875-4.834 1.717-7.21 2.185-.011-.114-.077-2.408-.093-2.51.082-.012.201-.034.332-.066l.098 1.157c.266-.076.543-.146.82-.217zm1.794-1.695c.24.864-.685 1.157-.63.168.212-.054.418-.114.63-.168zm-.625-.044c-.011-.375.478-.581.582-.157-.19.054-.386.103-.582.157zm1.903-.185v-.14l.386-.115.065.76c-.157.044-.315.082-.473.12.011-.228.022-.434.022-.625zm-.022-.538l.37-.092.016.206-.375.115c0-.076 0-.152-.01-.229zm1.893-.184c.049.163.103.331.152.5-.109.027-.218.054-.32.081.02-.18.037-.364.064-.543a.576.576 0 01.104-.038zm-.087-.152c.005-.028.005-.055.01-.087.006.027.017.048.022.076a.076.076 0 01-.032.01zm-6.047 4.63c1.952-.403 5.465-1.566 7.216-2.147l-.218 1.62c-.75.505-2.425.972-3.295 1.244-1.028-.413-3.05-.093-3.904.58l.2-1.298zm6.873-.158l-.456 1.157c-.115.076-1.24.549-1.376.56-.196-.218-.865-.522-1.05-.75l2.882-.967zm-.669 1.456l-.647.777-.37-.397 1.017-.38zm-.087 1.326c.381.038.784.13 1.17.157l-.082.028c-.228.168-.576.45-.821.548a5.46 5.46 0 00-.38-.728l.113-.005zm.055-.326l.32-.386 1.68.255c-.342.582-1.56.256-2 .13zm2.126-9.428c.18.315.413 1.13.451 1.614l-1.19.391-.055-.12-.495-1.673 1.289-.212zm-1.365-2.109c.348.196 1.158 1.484 1.316 1.968-.005-.006-1.278.152-1.332.157-.13-.396-1.012-1.804-1.273-1.967l1.29-.158zm-.13-.146l-1.333.114c-.098-.277-1.68-1.527-1.995-1.587.543-.413 3.164 1.016 3.328 1.473zm-6.243-1.772c.62-.054 1.044.234 1.446.234l-1.598.277.18-.266-.028-.245zm1.936.43c.75.418 1.734.853 2.262 1.521-1.854.294-5.307.978-7.227 1.505-.582-.679-1.452-1.163-2.191-1.608.304-.234 6.438-1.522 7.156-1.418zm-8.288.679c.43.18 1.474.348 2.078.26l.005.039-1.278.31-1.3-.408c.077-.082.332-.185.495-.201zm-2.294.962c.669-.402 1.544-.207 2.17-.071l-1.572.641c.049.277.212.109.408.022 1.479-1.032 2.87.022 3.991.967a62.02 62.02 0 01-1.99.772c-1.18-1.082-2.355-1.837-4.204-1.554l1.197-.777zm-3.644 2.934c2.725-4.83 8.663-.01 8.674 4.14l.076-.005c.848 3.494-1.697 8.608-5.563 6.717.348-.207 1.022-.114 1.381.01l.022-.293-.566-.109c.44-.032.854-.098.783-.549-.049-.565-.74-.184-1.055-.31l.033-.08c.718-.24 2.235.5 3.089.488-.462-.505-1.963-.494-2.632-.69.701-1.038-1.637-.956-2.056-.424-.93-.092-1.305-1.157-1.631-1.978l7.341 1.207c-1.98-.734-4.687-.837-6.884-1.31-1.006.017-.805-1.146-1.066-1.956 2.632.407 5.634 1.103 8.27 1.44-2.386-.848-5.655-1.049-8.243-1.603l.011.12-.043.01c-.5-1.885.038-4.738 1.354-5.553l4.855.375-.016-.18-4.65-.336c.24-.316 1.208-.652 1.692-.55l-.022-.238c-4.937.271-4.035 7.662-1.93 10.357-.087.125.005.228.174.184l-.033.033 1.115 1.07-.38.153c-2.725-1.99-3.84-7.151-2.1-10.14zm2.73 10.531c-.609.054-.663.435-.767.93-.62 3.428-1.098-1.164.49-1.278.538-.277.837-.712 1.365-.348 1.087-.347 1.098.479.043.479-.092.467-.94.358-1.13.217zm.283.532c-.185-.027-.626 0-.685-.179l.304-.146c.136.157.337.119.38.326zm-3.883 1.777c.452-.043.794-.39 1.088-.695.141 0 .25.152.375.206.158.13.354.218.506.354l.081-.006v.038c.055.044.12.098.169.147l.081-.006.006.038.043.038.087-.005c-.549 1.288-1.343 2.413-2.833 2.641.185-.891.288-1.842.397-2.75zm-.418-1.684c.097.277.43.397.707.342a.59.59 0 01-.566.37c-.261-.093-.196-.74-.24-.94a1.63 1.63 0 01.436-.919c.359-.114.44.272.554.517-.473-.19-1.044.054-.892.63zm.26-.141c.12-.647 1.91.108 2.42.07l-.12.451c-.62-.18-1.88-.076-2.3-.521zm2.475-.218c-.25-.049-.544-.125-.8-.092.017-.364-.168-.707-.32-1.01.048-.12.331-.479.424-.599.2.212.38.446.57.669.104.087.463.413.523.516l-.082.005c-.13.153-.342.294-.315.511zm1.229-.989l-.305-.293.566.157-.076.006-.11.13h-.075zm-.577-.489l-.31-.331.3.043.01.288zm-1.843-.934c-.18.239-.332.5-.533.722-.228-.13-.625-.136-.881-.125-.272-.782-.522-1.586-.794-2.369.294-.288.925-.337 1.31-.397.164.777.582 1.473.898 2.169zm1.305 6.412c-2.072 3.053-6.879 1.396-7.015-2.397-.31-3.13 1.17-7.015 4.666-6.993 0 .076.076.467.092.549-2.702.01-.979 1.89-.625 3.412.364-.125.837-.109 1.12.141l.18-.114c-.006-.19.364-.679.494-.782.338.239-.435.788-.462 1.081-.016.163.38.598.36.967l-.48-.054c-.255-1.7-1.729-.668-1.571.63-.098 1.065 1.082 1.234 1.37.321.49-.005 1.588.288 1.452.793-.293-.054-.663-.581-1.076-.543-.055.326-.691.739-1.202.782l-.457 3.283c1.006.222 2.501-1.163 2.719-1.408 0-.196.658-1.087.734-1.625l-.081-.032c.516-.478.097-1.087 1.038-.81.044.723-.875 2.337-1.256 2.799zm7.156-2.19l-6.607-.984.082-.407 6.563.972-.038.419zm-.331-1.13c.13-.05.407-.082.543-.087l-.108.532-.436-.445zm8.896 5.21c-2.034 4.076-7.95 2.973-8.331-1.825-1.006-4.543 3.877-10.732 8.015-6.602 1.942 1.929 1.686 6.38.316 8.428zm1.05-6.395c-.691-.533 3.017-2.57 3.43-2.934-.445 1.467-2.354 1.94-3.43 2.934zm2.838-1.049l.12.027c-.05.386.01 1.163.054 1.554-.234-.44-.19-1.092-.25-1.575l.076-.006zm-.386-.326c.266-.31.837-.663.598.065l-.598-.065zm.49 2.478c.021-.109.08-.255.086-.364.011.136.038.505.093.63-.06-.027-.158-.049-.207-.103a.28.28 0 01.027-.163zm-1.507.413a.542.542 0 00-.25-.136c-.147-.304-.082-.739.114-1.01.093-.294.087-.702.07-1.006.202-.027.343-.239.528-.326.136-.147.348-.158.538-.168.022.26.093 1.114.12 1.39.044.19.185.44.093.631-.174.473-.093.598.342.81-.424.26-.87.45-1.348.462.005-.196-.011-.544-.207-.647zm1.93.831c-.402.484-1.19.506-1.772.555-.153-.104-.082-.31-.044-.457.555.022 1.175-.217 1.632-.543.038.06.092.152.13.212h.038l.005.038.044.032-.033.163zm7.374-.06c-1.066 2.326-4.269 3.217-6.15 1.337-2.686-2.852-1.289-9.716 3.143-9.895 4.187-.07 4.753 5.885 3.007 8.559zm1.126-5.558a.355.355 0 00-.07.125c-.023 0-.06.005-.077.005-.212-1.337-1.147-2.505-2.322-3.114.8-.532 1.56-1.103 2.355-1.64.5-.332.957-.734 1.495-1.011v-.038c.223-.017.451-.158.653-.256.081.37-.017.755-.229 1.06-.081.364-.272.69-.386 1.032-.169.902-.44 1.783-.805 2.625-.206.391-.255.94-.614 1.212zm1.936 1.798c.043.07.108.158.174.218l.081-.006-.022.24c-.342.304-1 .336-1.435.363-.114-.06-.158-.228-.185-.342l-.044-.038.006-.06c.484.011.979-.18 1.425-.375zm3.485-1.38c.098.141.245.299.234.49-.359.238-.892.282-1.316.314-.12-.06-.13-.223-.223-.299l-.01-.114c.44.011.913-.195 1.315-.39zm-1.152-1.87c.043.213.174.42.25.62.032.104.054.74.185.783.13.098.244.244.407.299-.337.146-.663.282-1.027.277-.093-.267-.272-.576-.599-.55-.152-.33.033-.83-.021-1.195-.022-.624-.19-1.325-.321-1.929.32-.456.391-1.065.745-1.505.343 1.027.18 2.158.38 3.2zm1.821-7.39c-.125.337-.255.669-.516.924-.245.316-.522.593-.794.87-.343.603-.539 1.293-.908 1.875l.005.081-.081.005c-.229.267-.43.56-.555.886-.142.326-.223.696-.473.962-.06.098-.196.136-.218.26-.081.11-.207.207-.245.343-.184.332-.26.728-.424 1.076-.239.625-.527 1.25-.549 1.924-.087.206-.163.473-.06.684.022.028.093.06.125.071.11.152.261.283.37.435-.386.163-.794.337-1.218.337-.022-.256.027-.832-.348-.864a.375.375 0 00-.13-.147c-.055-.234.054-.467.179-.652.147-.076.218-.245.283-.386.255-.516.43-1.081.652-1.614.278-.668.408-1.386.577-2.086.244-.451.386-1.066.663-1.538.022-.375.141-.766.18-1.136l.038-.005c1.125-.859 2.316-1.636 3.469-2.457l-.005-.038c.021.038 0 .147-.017.19zm-4.307 2.522c-.924.473-4.584 3.728-5.23 3.125l9.711-6.825c.745.64-3.948 3.135-4.48 3.7zm5.721-4.521c.419.163.011.614-.299.668l-.114-.429c.114-.076.255-.223.413-.24zm-.266 1.94l.01.12-.467.037c-.07-2.303-3.241-8.775-5.231-5.26l-.582.13c1.92-4.629 6.106 2.044 6.27 4.973zm3.23-8.07c-.033.038-.076.093-.109.13 0 .273-.218.62.109.789-.202.163-.468.304-.734.223a5.48 5.48 0 01-.104-.272c-.228-.245-.57-.31-.87-.446-.157-.092-.32-.206-.5-.277-.212-.098-.533-.049-.761-.092l-.044-.038-.081.005c.016-.396-.256-.717-.446-1.038-.098 0-.201.07-.267.142.011.222.185.418.288.614.136.222.022.467-.06.684a4.092 4.092 0 00-.125.853c-.087 1.19.229 2.5-.288 3.62-.272-.702-.745-1.38-1.196-1.979.25-.75-.805-2.613-.332-3.238.38 2.13 1.044-.745 1.05-1.543 1.19.722.103-1.022 1.136-1.044.142-.07.321-.391.376-.521-.087-.19-.31-.473-.136-.669.027.114.125.212.184.305.044.016.131.048.175.07.021.386-.158 1.044.445 1.114-.021-.239.147-.337.37-.456.174.233.403.424.63.608.126.076.093.267.115.392.05.195.136.413.245.576.283.576.81.896 1.071 1.467l-.141.022zm-40.415 10.9c2.366.104 4.878.555 7.222.653l-.016-.147-7.178-.706-.027.2zm-.348 1.87l8.2 1.125.028-.157-8.244-1.163.016.195zm25.868 5.146c.31-.136.762-.087 1.001.109l.234-.06c.375-1.342 2.501-2.163.43-3.14-.61-.463-2.17-.381-2.692.255.239.744.603 2.228 1.027 2.836zm-.331-2.048a.487.487 0 01-.104.168c.006-.092-.07-.223-.065-.315.147-.076.272-.196.413-.277l-.005-.038.043.038c-.114.125-.174.299-.282.424zm.636-.375c.054-.169.217-.321.234-.5l.038-.006c.032-.054.12-.081.147-.13.62.005 1.169.43 1.577.864l.005.081c-.234.283-.435.593-.636.892-.169.195-.506.711-.669.934-.092.027-.201-.016-.283-.054-.076-.05-.538.01-.63.016-.088-.342-.202-.744-.365-1.049l.022-.2c.228-.256.364-.571.56-.848zm-1-.152c-.006-.11-.028-.11-.066-.229l.995-.337.027.066-.93.652-.027-.152zm4.203 2.472c-.076-.886-.49-1.288-.669-1.858-.136.146-1.642 2.184-1.588 2.293.305.39.424 1.385.245 1.798l1.702 1.109c.217-.924.538-2.141.31-3.342zm-.212 1.217c-.05.549-.076 1.158-.294 1.663-.397-.25-.788-.51-1.175-.777.066-.304.039-.973-.07-1.272-.038-.146-.19-.271-.196-.423.103-.142.196-.3.32-.43.055-.141.18-.25.246-.38.233-.283.424-.598.636-.897h.038c.37.766.527 1.668.495 2.516zm-12.333-.277c-.452-.799-1.316-1.087-2.089-1.342l-.549 3.83c.593-.005 1.273.75 1.23 1.256.56-.152 1.707-.614 2.316-.68-.066-1.14-.435-2.298-.908-3.064zm-1.882-.962l.011-.049.81.305-.913.304.092-.56zm-.06.76c.511-.244 1.338-.542 1.637.218-.06.06-1.713.794-1.789.837-.07-.098.038-.978.152-1.054zm2.393 3.071c-.544.18-1.131.294-1.659.505-.021-.217-.2-.402-.326-.57-.157-.245-.495-.554-.805-.533.104-.347.098-.744.19-1.092l.468-.081c.544.081 1.224-.142 1.659-.462.391.646.478 1.489.625 2.222l-.152.011zm-19.19-1.489c1-.924-.321-2.364-.457-3.515-1.468 1.043-2.1 3.244-2.056 5.134.207-.135 2.007-.695 2.35-.722-.022-.305.07-.701.163-.897zm-.218-.223c-.108.278-.25.593-.201.897-.604.12-1.24.31-1.822.516.098-1.532.533-3.07 1.588-4.211l.038-.005c.245.76.539 1.526.75 2.293-.146.152-.25.331-.353.51zm.664 4.244c.554-2.38-.19-1.12-.588-2.89-.636.016-1.664.565-2.316.64.022 1.816 1.147 3.685 2.702 3.88-.043-.494.147-1.162.202-1.63zm-.256-.364c-.06.522-.169 1.054-.223 1.576l-.038.044c-1.37-.468-1.92-1.967-2.137-3.288.609-.092 1.207-.397 1.816-.478.104.402.343.739.674.978l.087-.005c-.087.375-.103.793-.179 1.173zm26.69-4.32c-.039-.445.287-1.217.597-1.331-.021-.717-.788-2.152-.919-2.918-1.153.75-2.18 3.19-2.023 5.091.229-.146 1.942-.646 2.355-.684l-.01-.158zm-.458-3.847l.087.326-.641.348.554-.674zm-1.354 2.57c.017-.146.13-.299.12-.45.196.206.272.505.38.766-.152-.006-.358-.06-.521-.077a.608.608 0 01.021-.239zm.44 1.478c-.217.071-.489.125-.695.218a1.53 1.53 0 00.005-.446c.294.049.625.12.92.125l.005.076-.234.027zm1.132-.472c-.076.51-1.387-.125-1.81-.028l.059-.44c.348.076 1.925.022 1.75.468zm.196-.723a.233.233 0 00-.06.212c-.277-.038-.598-.125-.876-.087.006-.196-.087-.408-.168-.582-.05-.14-.098-.336-.234-.418l-.076-.435c.065-.054.087-.152.141-.212.05-.076.174-.098.223-.179.267-.174.538-.353.783-.549.147.267.207.609.316.891l.038-.005c-.104.326-.05.94-.011 1.282l-.038.006-.038.076zm.609 4.238c.054-.483.26-1.233.195-1.711-.402-.06-.728-.652-.777-1.18l-2.311.674c.174 1.772.913 3.483 2.691 3.82-.021-.358.158-1.179.202-1.603zm-.19-1.56c0 .006.08.033.086.039.038.185-.043.418-.027.603l-.587.054-.022-.277c.082-.07.06-.239.05-.331.168-.011.325-.044.5-.087zm-1.132-.814c.158-.05.38-.109.539-.169.005.283.174.55.348.75a1.894 1.894 0 01-.354.033c-.022-.05-.076-.125-.103-.174-.07-.022-.245-.044-.321-.055-.022-.016-.065-.054-.087-.07l-.065-.315h.043zm1.082 2.06c-.049.52-.212 1.059-.184 1.58-1.387-.456-1.974-1.945-2.176-3.292.294-.033.604-.169.887-.24l.038-.043c-.022.337.234.739.609.668.027.163.027.37-.033.522.027.18.098.424.245.538l.669-.06.01.12-.037.043-.028.163zm.952-4.196c-.772.022-1.283 2.435-.185 2.494 1.077-.108 1.343-2.33.185-2.494zm-.56 1.364c-.092-.353.25-.663.413-.277.066.26-.223.353-.413.277zm.99-.005c-.044.277-.169.592-.408.755l.005.038c-.277-.027-.44-.272-.516-.516l.043.038c.707.065.827-.913.147-1.054.103-.125.109-.196.25-.3l.158-.015c.331.217.37.695.32 1.054zm-13.731 2.711c-.109-.32.495-.799.756-.94.343-.157.201-.141.26-.516.104-.772.474-2.646.474-3.386-1.909.202-3.252 1.75-3.747 3.364.006.109 2.023 1.446 2.257 1.478zm-.75-.891c-.022.016-.082.06-.115.049-.255-.152-.489-.353-.756-.495.615-.032 1.18-.375 1.779-.472-.114.114-.174.266-.283.386-.185.195-.386.39-.625.532zm1.473-.288c-.288.049-.853.565-.951.804l-.365-.228-.016-.06c.37-.125.783-.771.957-.804 0-.234.261-.603.5-.641l-.125.929zm-.924-2.782c.32-.24.892-.522 1.397-.576.196 1.358-1.36 1.212-2.36 1.565.038-.228.745-.826.963-.99zm-1.425 1.625c.38-.712 1.969-.81 2.68-1.07l-.162 1.091c-.5.174-2.404.886-2.882.815 0-.217.272-.657.364-.836zm1.028 5.07c0-.267.506-.74.49-.843-.137-.494-.273-1.239-.033-1.673l-.196.016c-.158-.136-1.99-1.451-2.132-1.332-.522 1.767-.538 4.076.408 5.717.294-.109 1.158-1.837 1.463-1.886zm-1.653-2.978l.038-.484.136.038-.027.473c.37-.098.87-.017 1.125.299l-1.446-.234c.032-.174.038-.114.174-.092zm-.24.342l1.893.277-.05.467-1.892-.266.05-.478zm1.703 2.293c-.115.114-.175.266-.283.386-.076.092-.278.37-.316.467-.212.245-.359.522-.565.772l.005.081-.076.006c-.364-.891-.538-2.223-.506-3.195.62-.044 1.251.233 1.877.195.005.228.06.669.152.864-.093.142-.201.277-.288.424zm1.076-1.293c.413 3.08 3.067-1.24.925-1.68-.544.012-.968 1.11-.925 1.68zm.31-.51c.69-.093.511.673-.054.44l.054-.44zm.278-.544c.06-.152.19-.326.37-.31.364.331.396 1.092.25 1.538-.224.706-.756.907-.903.032l.081.038c.87.104.925-.978.11-1.048l-.006-.076c.038-.044.049-.13.098-.174zm13.431-2.005c-.109.065-.767.896-1.278.788l-.451 3.282c1.783-.06 3.056-1.484 3.398-3.06-.277-.043-1.44-1.065-1.669-1.01zM46.428 32l.032-.081.234-.06.016.158a1.055 1.055 0 01-.304.146l.022-.163zm1.12-.777c.402.272.81.544 1.218.815-.038.397-.343.728-.5 1.082-.5.744-1.262 1.423-2.208 1.472.081-.679.26-1.38.26-2.06.441-.064.947-.347.68-.858.213-.07.338-.315.517-.445l.033-.006zm-11.844 2.054c.087.81-.32 1.772-1.066 1.984l1.012 3.032c1.61-1.043 2.262-3.614 2.251-5.63l-2.197.614zm1.903.093c-.12 1.63-.685 3.244-1.756 4.466a16.869 16.869 0 01-.8-2.407c.262-.223.512-.478.686-.777.19-.348.223-.76.299-1.146.522-.147 1.06-.326 1.582-.457l-.01.32zm-4.404 1.7c-.104.006-1.914 2.576-1.909 2.685.495.842 1.512 1.554 2.616 1.489.418.005 1.5-.326 1.528-.652-.028-.288-.941-2.962-1.06-3.147-.93.087-.969-.39-1.175-.374zm1.267 1.451c.239.663.43 1.359.685 2.016l-.082.006c-.538.484-1.55.494-2.197.228-.26-.092-.478-.277-.706-.418a9.861 9.861 0 01-.523-.555l-.01-.12c.125-.151.217-.325.353-.467.114-.222.3-.418.424-.635.267-.326.468-.701.745-1.022l-.005-.087c.342.152.696.364 1.087.272.017.26.158.532.229.782zM58.554 8.434c-.337.109-.005.359.212.288-.043.343.397.517.653.337-.017.212.293.277.299.044-.06-.669-.892-.669-1.164-.669zm.538.354c-.005.01-.005.027-.01.038a.076.076 0 01-.038-.06c.016.005.032.01.048.01.006.006 0 .006 0 .012z" fill="#5080C1"/><path d="M94.457 10.213H90.76v3.024h4.295v.92h-5.42V5.625h5.361v.926H90.76v2.742h3.697v.92zm1.775 3.059l.375-.463c.422-.547.662-1.367.721-2.46l.1-2.532h4.084v5.455h.814v2.748h-1.084v-1.863h-4.424v1.863h-1.084l.006-2.748h.492zm1.284 0h2.912V8.819h-1.951l-.065 1.512c-.066 1.261-.365 2.242-.896 2.941zm10.113-5.455h1.084v6.34h-1.084V9.534l-2.924 4.623h-1.084v-6.34h1.084v4.629l2.924-4.63zm8.004 6.34h-1.084V11.45h-2.912v2.707h-1.09v-6.34h1.09v2.748h2.912V7.817h1.084v6.34zm5.66 0c-.063-.125-.113-.348-.152-.668-.504.523-1.106.785-1.805.785-.625 0-1.139-.176-1.541-.527a1.727 1.727 0 01-.598-1.348c0-.66.25-1.172.75-1.535.504-.367 1.211-.551 2.121-.551h1.055v-.498c0-.379-.113-.68-.34-.902-.226-.227-.56-.34-1.002-.34-.386 0-.711.097-.972.293-.262.195-.393.431-.393.709h-1.09c0-.317.112-.621.334-.914.227-.297.531-.532.914-.703a3.098 3.098 0 011.272-.258c.73 0 1.302.183 1.716.55.415.364.629.866.645 1.506v2.918c0 .582.074 1.045.223 1.389v.094h-1.137zm-1.799-.826c.34 0 .662-.088.967-.264.305-.176.525-.404.662-.686v-1.3h-.85c-1.328 0-1.992.388-1.992 1.166 0 .34.114.605.34.796.227.192.518.288.873.288zm9.258-5.514v6.34h-1.09V11.69h-1.635l-1.494 2.467h-1.172l1.594-2.631c-.406-.149-.719-.377-.937-.686a1.876 1.876 0 01-.323-1.09c0-.578.217-1.042.651-1.394.433-.356 1.013-.535 1.74-.54h2.666zm-3.967 1.945c0 .309.106.559.317.75.21.188.49.283.837.287h1.723V8.696h-1.558c-.403 0-.723.1-.961.299a.943.943 0 00-.358.767zm11.227 3.628a1.56 1.56 0 001.013-.352 1.24 1.24 0 00.481-.88h1.025a1.957 1.957 0 01-.375 1.038 2.46 2.46 0 01-.926.785 2.642 2.642 0 01-1.218.293c-.864 0-1.551-.287-2.063-.861-.508-.579-.761-1.368-.761-2.368v-.181c0-.617.113-1.166.339-1.647.227-.48.551-.853.973-1.119.426-.265.928-.398 1.506-.398.711 0 1.301.213 1.769.638.473.426.725.979.756 1.659h-1.025a1.478 1.478 0 00-.469-1.008 1.432 1.432 0 00-1.031-.399c-.551 0-.979.2-1.283.598-.301.395-.452.967-.452 1.717v.205c0 .73.151 1.293.452 1.687.3.395.73.592 1.289.592zm8.935-5.573v6.34h-1.09V8.713h-2.156l-.129 2.373c-.07 1.09-.254 1.87-.551 2.338-.292.47-.759.713-1.4.733h-.433v-.955l.31-.024c.352-.039.604-.242.756-.61.152-.366.25-1.046.293-2.038l.117-2.713h4.283zm3.815 4.752l1.476-4.752h1.16l-2.548 7.318c-.395 1.055-1.022 1.582-1.881 1.582l-.205-.017-.405-.076v-.88l.293.024c.368 0 .653-.074.856-.223.207-.148.377-.42.51-.814l.24-.645-2.262-6.27h1.184l1.582 4.753zm8.666-1.166h-.762v2.754h-1.084v-2.754h-.762l-1.775 2.754h-1.371l2.267-3.281-2.05-3.06h1.312l1.635 2.626h.744V7.817h1.084v2.625h.738l1.647-2.625h1.312l-2.056 3.064 2.267 3.276h-1.371l-1.775-2.754zm6.914-3.223c.797 0 1.433.268 1.91.803.48.531.721 1.232.721 2.103v.1c0 .598-.116 1.133-.346 1.605a2.585 2.585 0 01-.996 1.096c-.43.258-.926.387-1.488.387-.852 0-1.538-.283-2.057-.85-.52-.57-.779-1.334-.779-2.29v-.528c0-1.332.246-2.39.738-3.176.496-.785 1.226-1.263 2.191-1.435.547-.098.916-.217 1.108-.358a.681.681 0 00.287-.58h.89c0 .488-.111.87-.333 1.143-.219.273-.571.466-1.055.58l-.809.181c-.644.153-1.129.41-1.453.774-.32.36-.529.84-.627 1.441.574-.664 1.274-.996 2.098-.996zm-.211.89c-.531 0-.953.18-1.266.54-.312.355-.469.85-.469 1.482v.094c0 .68.157 1.219.469 1.617.317.395.742.592 1.278.592.539 0 .964-.2 1.277-.598.312-.398.469-.98.469-1.746 0-.597-.159-1.076-.475-1.435-.312-.364-.74-.545-1.283-.545zm7.974 5.087c-.062-.125-.113-.348-.152-.668-.504.523-1.105.785-1.805.785-.625 0-1.138-.176-1.541-.527a1.729 1.729 0 01-.597-1.348c0-.66.25-1.172.75-1.535.504-.367 1.211-.551 2.121-.551h1.055v-.498c0-.379-.114-.68-.34-.902-.227-.227-.561-.34-1.002-.34-.387 0-.711.097-.973.293-.262.195-.392.431-.392.709h-1.09c0-.317.111-.621.334-.914a2.31 2.31 0 01.914-.703 3.09 3.09 0 011.271-.258c.731 0 1.303.183 1.717.55.414.364.629.866.645 1.506v2.918c0 .582.074 1.045.222 1.389v.094h-1.137zm-1.798-.826a1.9 1.9 0 00.966-.264c.305-.176.526-.404.663-.686v-1.3h-.85c-1.328 0-1.992.388-1.992 1.166 0 .34.113.605.34.796.226.192.517.288.873.288zM89.412 27.272l.375-.463c.422-.547.662-1.367.72-2.46l.1-2.532h4.084v5.455h.815v2.748h-1.084v-1.863h-4.424v1.863h-1.084l.006-2.748h.492zm1.283 0h2.912v-4.453h-1.95l-.065 1.512c-.067 1.261-.365 2.242-.897 2.941zm5.725-2.344c0-.62.121-1.18.363-1.676a2.758 2.758 0 011.02-1.148 2.79 2.79 0 011.494-.404c.863 0 1.56.299 2.092.896.535.598.802 1.393.802 2.385v.076c0 .617-.119 1.172-.357 1.664-.234.488-.572.87-1.014 1.143-.437.273-.941.41-1.511.41-.86 0-1.557-.299-2.092-.897-.531-.597-.797-1.388-.797-2.373v-.076zm1.09.13c0 .702.162 1.267.486 1.692.328.426.766.64 1.313.64.55 0 .988-.216 1.312-.645.324-.434.486-1.04.486-1.817 0-.695-.166-1.258-.498-1.687a1.563 1.563 0 00-1.312-.65c-.535 0-.967.212-1.295.638-.328.426-.492 1.035-.492 1.828zm8.584 2.332a1.56 1.56 0 001.013-.352 1.24 1.24 0 00.481-.88h1.025a1.957 1.957 0 01-.375 1.038 2.46 2.46 0 01-.926.785 2.642 2.642 0 01-1.218.293c-.864 0-1.551-.287-2.063-.861-.508-.579-.761-1.368-.761-2.368v-.181c0-.617.113-1.166.339-1.647.227-.48.551-.853.973-1.119.426-.265.928-.398 1.506-.398.711 0 1.301.213 1.769.638.473.426.725.979.756 1.659h-1.025a1.477 1.477 0 00-.469-1.008 1.432 1.432 0 00-1.031-.399c-.551 0-.979.2-1.283.598-.301.395-.451.967-.451 1.717v.205c0 .73.15 1.293.451 1.687.3.395.73.592 1.289.592zm8.449-4.694h-2.127v5.46h-1.084v-5.46h-2.086v-.88h5.297v.88zm4.875 5.461c-.063-.125-.113-.348-.152-.668-.504.523-1.106.785-1.805.785-.625 0-1.139-.176-1.541-.527a1.727 1.727 0 01-.598-1.348c0-.66.25-1.172.75-1.535.504-.367 1.211-.551 2.121-.551h1.055v-.498c0-.379-.113-.68-.34-.902-.226-.227-.56-.34-1.002-.34-.386 0-.711.097-.972.293-.262.195-.393.431-.393.709h-1.09c0-.317.111-.621.334-.914.227-.297.531-.532.914-.704a3.098 3.098 0 011.272-.257c.73 0 1.302.183 1.717.55.414.364.628.866.644 1.506v2.918c0 .582.074 1.045.223 1.389v.094h-1.137zm-1.799-.826c.34 0 .662-.088.967-.264.305-.176.525-.404.662-.686v-1.3h-.85c-1.328 0-1.992.388-1.992 1.166 0 .34.114.605.34.797.227.19.518.287.873.287zm4.512.826v-6.34h2.473c.843 0 1.49.148 1.939.445.453.293.68.725.68 1.295 0 .293-.088.559-.264.797-.176.234-.436.414-.779.54.382.089.689.265.92.526.234.262.351.575.351.938 0 .582-.215 1.027-.644 1.336-.426.308-1.03.463-1.811.463h-2.865zm1.084-2.784v1.91h1.793c.453 0 .791-.083 1.013-.251.227-.168.34-.405.34-.71 0-.632-.465-.948-1.394-.948h-1.752zm0-.867h1.4c1.016 0 1.524-.297 1.524-.89 0-.594-.481-.9-1.442-.92h-1.482v1.81zm7.646.95h-.791v2.7h-1.09v-6.34h1.09V24.5h.709l2.133-2.683h1.313l-2.508 3.047 2.719 3.293h-1.377l-2.198-2.701zm8.608-3.639h1.084v6.34h-1.084v-4.623l-2.924 4.623h-1.084v-6.34h1.084v4.629l2.924-4.63zM94.65 42.157h-1.084v-5.444h-2.918v5.444h-1.09v-6.34h5.092v6.34zm5.842-6.34h1.084v6.34h-1.084v-4.623l-2.924 4.623h-1.084v-6.34h1.084v4.629l2.924-4.63zm7.535.879H105.9v5.46h-1.084v-5.46h-2.086v-.88h5.297v.88zm2.239 1.306h1.646c.719.008 1.287.196 1.705.563.418.367.627.865.627 1.494 0 .633-.215 1.14-.644 1.524-.43.382-1.008.574-1.735.574h-2.683v-6.34h1.084v2.185zm0 .885v2.385h1.611c.406 0 .721-.103.943-.31.223-.212.334-.499.334-.862 0-.352-.109-.639-.328-.861-.215-.227-.517-.344-.908-.352h-1.652zm7.963 3.387c-.86 0-1.559-.281-2.098-.844-.539-.566-.809-1.322-.809-2.267v-.2c0-.629.119-1.19.358-1.681a2.81 2.81 0 011.008-1.16 2.532 2.532 0 011.406-.422c.824 0 1.465.271 1.922.814.457.543.685 1.32.685 2.332v.451h-4.295c.016.625.198 1.131.545 1.518.352.383.797.574 1.336.574.383 0 .707-.078.973-.234a2.45 2.45 0 00.697-.621l.662.515c-.531.817-1.328 1.225-2.39 1.225zm-.135-5.684c-.438 0-.805.16-1.102.48-.297.317-.48.763-.551 1.337h3.176v-.082c-.031-.551-.179-.977-.445-1.278-.266-.304-.625-.457-1.078-.457zm3.967 5.567v-6.34h2.472c.844 0 1.49.148 1.94.445.453.293.679.725.679 1.295 0 .293-.088.559-.263.797-.176.234-.436.414-.78.54.383.089.69.265.92.526.235.262.352.575.352.938 0 .582-.215 1.027-.645 1.336-.425.308-1.029.463-1.81.463h-2.865zm1.084-2.783v1.91h1.793c.453 0 .791-.084 1.013-.252.227-.168.34-.405.34-.71 0-.632-.465-.949-1.395-.949h-1.751zm0-.868h1.4c1.016 0 1.523-.297 1.523-.89 0-.594-.48-.9-1.441-.92h-1.482v1.81zm5.384.422c0-.62.121-1.18.364-1.676a2.76 2.76 0 011.019-1.148c.438-.27.936-.404 1.494-.404.864 0 1.561.298 2.092.896.535.598.803 1.393.803 2.385v.076c0 .617-.119 1.172-.358 1.664-.234.489-.572.87-1.013 1.143-.438.273-.942.41-1.512.41-.859 0-1.557-.299-2.092-.897-.531-.597-.797-1.388-.797-2.373v-.076zm1.09.13c0 .702.162 1.267.486 1.693.329.425.766.638 1.313.638.551 0 .988-.215 1.312-.644.325-.434.487-1.04.487-1.817 0-.695-.166-1.258-.498-1.687a1.564 1.564 0 00-1.313-.65c-.535 0-.967.212-1.295.638-.328.426-.492 1.035-.492 1.828zm10.143-3.241h1.084v6.34h-1.084v-4.623l-2.924 4.623h-1.084v-6.34h1.084v4.629l2.924-4.63zm.293-2.309c0 .473-.162.854-.487 1.143-.32.285-.742.428-1.265.428-.524 0-.948-.145-1.272-.434-.324-.289-.486-.668-.486-1.137h.885c0 .274.074.489.222.645.149.152.366.228.651.228.273 0 .486-.076.638-.228.157-.152.235-.367.235-.645h.879zm5.607 8.649v-6.34h2.473c.844 0 1.49.148 1.939.445.453.293.68.725.68 1.295 0 .293-.088.559-.264.797-.176.234-.435.414-.779.54.383.089.689.265.92.526.234.262.351.575.351.938 0 .582-.214 1.027-.644 1.336-.426.308-1.029.463-1.811.463h-2.865zm1.084-2.783v1.91h1.793c.453 0 .791-.084 1.014-.252.226-.168.34-.405.34-.71 0-.632-.465-.949-1.395-.949h-1.752zm0-.868h1.4c1.016 0 1.524-.297 1.524-.89 0-.594-.481-.9-1.441-.92h-1.483v1.81zm5.385.422c0-.62.121-1.18.363-1.676a2.755 2.755 0 011.02-1.148c.437-.27.935-.404 1.494-.404.863 0 1.56.298 2.092.896.535.598.802 1.393.802 2.385v.076c0 .617-.119 1.172-.357 1.664-.234.489-.572.87-1.014 1.143-.437.273-.941.41-1.511.41-.86 0-1.557-.299-2.092-.897-.532-.597-.797-1.388-.797-2.373v-.076zm1.09.13c0 .702.162 1.267.486 1.693.328.425.766.638 1.313.638.55 0 .988-.215 1.312-.644.324-.434.486-1.04.486-1.817 0-.695-.166-1.258-.498-1.687a1.563 1.563 0 00-1.312-.65c-.535 0-.967.212-1.295.638-.328.426-.492 1.035-.492 1.828zm5.566 2.214l.375-.463c.422-.547.662-1.367.721-2.46l.099-2.532h4.084v5.455h.815v2.748h-1.084v-1.863h-4.424v1.863h-1.084l.006-2.748h.492zm1.283 0h2.912v-4.453h-1.951l-.064 1.512c-.067 1.261-.365 2.242-.897 2.941zm7.196-3.27h1.646c.719.008 1.287.196 1.705.563.418.367.627.865.627 1.494 0 .633-.215 1.14-.644 1.524-.43.382-1.008.574-1.735.574h-2.683v-6.34h1.084v2.185zm6.24 4.155h-1.09v-6.34h1.09v6.34zm-6.24-3.27v2.385h1.611c.406 0 .721-.103.943-.31.223-.212.334-.499.334-.862 0-.352-.109-.639-.328-.861-.215-.227-.517-.344-.908-.352h-1.652z" fill="#fff"/><defs><radialGradient id="paint1_radial" cx="0" cy="0" r="1" gradientUnits="userSpaceOnUse" gradientTransform="rotate(9.113 -227.665 531.83) scale(60.2649 54.9842)"><stop offset=".258" stop-color="#638EC8"/><stop offset="1" stop-color="#fff"/></radialGradient><linearGradient id="paint0_linear" x1="51.611" y1="-2.369" x2="1.619" y2="30.783" gradientUnits="userSpaceOnUse"><stop stop-color="#FFEBA9"/><stop offset=".5" stop-color="#FECC00"/><stop offset="1" stop-color="#F8AE00"/></linearGradient></defs></svg>