<svg width="174" height="46" viewBox="0 0 174 46" fill="none" xmlns="http://www.w3.org/2000/svg">
<path d="M10.1462 37.517C6.2636 34.7783 4.19177 31.0941 3.95794 27.0675C3.65342 21.7748 6.74214 16.0638 13.3056 11.1949C19.8637 6.32613 28.6459 3.22335 37.5422 2.142C44.7692 1.2617 57.8309 2.18003 63.7093 5.77187C56.9119 0.142305 40.5603 -0.515202 34.0402 0.27272C25.0188 1.37038 16.1225 4.5112 9.48282 9.43978C2.84318 14.3684 -0.289031 20.1555 0.0209273 25.5243C0.260194 29.6215 5.20866 36.1205 10.1462 37.517Z" fill="url(#paint0_linear)"/>
<path d="M75.1941 19.4817C74.9005 14.3629 71.3224 9.48326 64.5305 5.86426C65.2319 6.69022 71.0124 10.6244 71.2571 17.9439C71.4366 23.242 68.4729 28.9477 61.9148 33.8165C55.3568 38.6853 46.6018 42.0924 37.6782 42.8694C25.3506 43.9399 17.5962 42.1304 16.166 41.9891C23.7682 44.918 32.6591 45.7711 41.1857 44.7333C50.2071 43.6356 59.1035 40.4948 65.7431 35.5716C70.4469 32.0776 73.3888 28.1543 74.5905 24.2582C75.0854 22.6443 75.2866 21.0467 75.1941 19.4817Z" fill="url(#paint1_radial)"/>
<path d="M61.4633 10.6405C61.3219 9.93411 60.6966 9.61351 60.3757 9.01578C60.0875 8.69517 60.1582 8.24959 59.9679 7.92899C59.7178 7.71706 59.4513 7.51601 59.261 7.25518C59.3425 7.07042 59.2447 6.76612 59.0652 6.61397C59.0272 6.35314 59.1305 6.01624 58.9565 5.78258C58.8205 5.66303 58.6846 5.54349 58.5323 5.45654L58.4127 5.46741C58.4235 5.61413 58.4562 5.98907 58.4725 6.14122C58.4399 6.17926 58.3964 6.2336 58.3637 6.27163C58.293 6.27707 58.2006 6.2825 58.1299 6.29337L58.1027 5.9782C58.0211 5.94016 57.9124 5.89669 57.8199 5.92386C57.7656 5.99994 57.6786 6.07058 57.6514 6.16296C56.6508 6.09231 55.8134 6.8748 55.3566 7.60295C55.0956 7.90725 53.9917 7.87465 54.6823 8.40718C53.9373 8.42891 53.6437 9.21683 53.3174 9.8037C52.7247 9.8526 52.6485 10.1515 53.1923 10.4449C52.9259 10.809 52.828 11.423 52.8932 11.8034C52.3059 11.8903 51.9742 12.2707 51.6316 12.7C51.4033 13.026 51.0715 13.5586 51.028 13.9498C50.6039 14.0856 50.1471 14.2378 49.7229 14.3845C48.0046 14.5475 46.1611 14.1943 44.4917 14.7595C43.4259 15.167 42.3438 15.6615 41.4628 16.3842C40.8048 16.9874 40.31 17.8079 40.1197 18.6991C40.0272 18.3622 39.7553 18.0796 39.565 17.7862C39.255 17.3786 38.8907 17.0091 38.4829 16.6831C38.124 16.4059 37.7324 16.1723 37.3192 15.9821C37.0581 15.8952 36.7863 15.7158 36.5089 15.7321L36.4872 15.455C35.5736 15.5963 34.6492 15.3681 33.8009 15.0475C33.2136 14.8736 32.1749 14.8573 31.6366 15.1561C30.1955 15.2376 28.4337 15.2974 27.0633 15.7919C26.7371 15.9223 26.3075 16.0364 26.1661 16.3896C25.9051 16.4929 25.6277 16.6124 25.3613 16.6994L25.3667 16.7374C24.7631 16.6994 23.5668 16.7591 23.5777 17.5742C23.1154 17.7753 22.6532 18.1285 22.2671 18.4491C21.8375 18.6447 21.4188 18.8784 21.0654 19.1936C19.3307 20.802 19.037 23.3668 19.3579 25.6165C18.4062 25.611 17.4383 25.9534 16.7531 26.6C16.5302 26.8119 16.2963 27.0184 16.0951 27.2575C15.9755 27.4586 15.7743 27.6488 15.7091 27.8118C14.2789 29.9908 14.0451 33.2023 15.448 35.4682C15.8559 36.0823 16.4214 36.6039 17.112 36.881C18.0473 37.2234 19.26 37.3592 20.2062 36.9734C21.9137 36.2833 23.0937 34.3814 23.3982 32.6154C25.2362 32.8762 27.0851 33.2294 28.9285 33.4196C28.7001 35.8051 29.4832 38.7449 31.8704 39.7176C33.0722 40.1034 34.5622 40.2229 35.6932 39.5437C38.5046 37.8809 39.391 34.1586 38.7711 31.083C39.0702 30.8765 39.3747 30.67 39.6629 30.4473C39.6901 30.8113 39.6411 31.0233 39.4671 31.3439C39.3692 31.5395 39.4236 32.1481 39.5106 32.3383C39.6248 32.5665 40 32.5285 39.9511 32.8599C39.7662 33.3164 39.6466 34.1043 40.3698 34.0608C41.006 34.0011 41.7619 33.9087 42.2132 33.4196C42.2676 33.762 42.545 34.0445 42.7244 34.3325C43.0126 34.6586 43.3389 34.9629 43.7087 35.2074C44.7419 35.7454 46.1394 35.9247 47.2542 35.4954C49.6359 34.4358 50.8377 31.3656 50.5278 28.8605C50.5658 28.8823 50.642 28.8986 50.6909 28.8877C50.7616 29.2409 50.6583 29.6539 50.7072 30.0071C50.816 30.1919 50.9247 30.4146 51.1422 30.4853C51.4903 30.5559 52.0177 30.4255 52.3549 30.3386C52.5724 30.2516 52.7953 30.1321 52.953 29.9636C53.0292 29.7082 53.0401 29.4039 52.7736 29.2627C52.5778 28.9421 52.3603 28.6378 52.0667 28.4041C52.0558 28.1215 52.2298 27.8118 52.1917 27.5129C52.3386 27.0239 52.5071 26.5402 52.7029 26.0675C52.9041 25.6165 52.9694 25.0894 53.3446 24.7362C53.5458 25.1655 53.5784 26.1925 53.6273 26.6707C53.5947 27.0565 53.4642 27.9585 54.0841 27.8716C54.3506 28.1813 54.2038 28.7736 54.617 29.0236C54.6714 29.1594 55.4273 29.0127 55.5252 29.0236C55.8569 28.9584 56.2647 28.8714 56.4768 28.5834C56.4931 28.1922 56.3028 27.8498 56.0363 27.5836C55.8514 27.5184 55.6665 27.4531 55.5034 27.3499C55.4001 27.1869 55.4001 26.7413 55.3185 26.5674C55.2424 26.3718 55.1119 26.1599 55.0684 25.9479C54.9977 25.3774 54.9814 24.4047 54.927 23.845C54.8346 23.4266 54.6986 22.8995 54.6932 22.4648C55.0466 21.9051 55.237 21.2422 55.5687 20.6716C55.9058 20.3564 56.2103 19.9923 56.5094 19.6337C56.6127 19.5359 56.6671 19.3892 56.7161 19.2588C56.8248 19.0523 56.9445 18.7969 56.9336 18.5578L57.0097 18.5524L57.0586 19.1066C57.2707 19.1012 57.8417 19.0903 58.0429 19.0631C58.0211 18.6719 57.9559 18.0144 57.8417 17.6394L57.9178 17.634C58.0864 17.4873 58.3094 17.3895 58.4344 17.1884C58.5432 16.857 58.3746 16.4277 57.9776 16.4331C57.7928 16.4222 57.6459 16.5798 57.4774 16.6342C57.4556 16.3842 57.3088 16.1342 57.2163 15.9006L57.1783 15.906C57.3142 15.4876 57.5263 15.0746 57.5861 14.6345C57.6786 13.4064 57.4665 12.1023 57.7438 10.8959C58.0429 11.0535 58.4453 10.9394 58.7498 11.097C59.0598 11.3578 59.4948 11.4121 59.8265 11.6404C59.8918 12.1838 60.5498 12.1403 60.9195 11.9447C61.0935 11.8469 61.2295 11.6893 61.4035 11.586C61.5666 11.3741 61.4905 10.8688 61.4633 10.6405ZM19.6406 26.7413C19.7983 27.5075 20.2225 28.203 20.5325 28.8986C20.353 29.1377 20.2007 29.3985 19.9995 29.6213C19.7711 29.4909 19.3742 29.4854 19.1186 29.4963C18.8467 28.7138 18.5966 27.9096 18.3247 27.1271C18.6238 26.8445 19.2545 26.7956 19.6406 26.7413ZM17.6232 27.6759L17.6613 27.6705C17.906 28.4313 18.1996 29.1974 18.4117 29.9636C18.2649 30.1158 18.1615 30.2951 18.0582 30.4744C17.9495 30.7516 17.8081 31.0667 17.857 31.371C17.2534 31.4906 16.6172 31.6808 16.0353 31.8872C16.1386 30.3549 16.5737 28.8171 17.6232 27.6759ZM18.4661 34.3543C18.4062 34.8759 18.2975 35.4084 18.2431 35.9301L18.205 35.9736C16.8347 35.5063 16.2855 34.0065 16.068 32.686C16.677 32.5937 17.2752 32.2894 17.8842 32.2079C17.9875 32.61 18.2268 32.9469 18.5585 33.186L18.6455 33.1805C18.5585 33.5555 18.5422 33.9739 18.4661 34.3543ZM19.0044 36.104C19.2002 35.2128 19.2981 34.2619 19.4122 33.3544C19.8636 33.3109 20.2062 32.9632 20.4998 32.6589C20.6412 32.6589 20.75 32.811 20.875 32.8654C21.0327 32.9958 21.2285 33.0827 21.3808 33.224L21.4623 33.2186V33.2566C21.5167 33.3001 21.582 33.3544 21.6309 33.4033L21.7125 33.3979L21.7179 33.4359L21.7614 33.474L21.8484 33.4685C21.2883 34.7509 20.4944 35.8758 19.0044 36.104ZM22.0442 30.8059C21.9137 30.9472 21.707 31.0939 21.7288 31.3113C21.4786 31.2623 21.185 31.1863 20.9294 31.2189C20.9457 30.8548 20.7608 30.5125 20.6086 30.2082C20.6575 30.0886 20.9403 29.73 21.0327 29.6104C21.2339 29.8224 21.4134 30.056 21.6037 30.2788C21.707 30.3657 22.0659 30.6918 22.1257 30.795L22.0442 30.8059ZM31.1037 36.9354C30.7393 36.0442 30.5653 34.7129 30.598 33.7402C31.2179 33.6968 31.8487 33.9739 32.474 33.9358C32.4795 34.1641 32.5338 34.6042 32.6263 34.7998C32.5393 34.9411 32.4305 35.0824 32.3435 35.2237C32.2293 35.3378 32.1695 35.49 32.0607 35.6095C31.9846 35.7019 31.7834 35.979 31.7453 36.0768C31.5333 36.3213 31.3864 36.5985 31.1798 36.8484L31.1852 36.93L31.1037 36.9354ZM35.0788 38.5438C34.5404 39.0275 33.529 39.0383 32.8819 38.7721C32.6208 38.6797 32.4033 38.4949 32.1749 38.3536C31.9955 38.1798 31.8215 37.9896 31.6529 37.7994L31.642 37.6798C31.7671 37.5277 31.8595 37.3538 31.9955 37.2125C32.1097 36.9897 32.2946 36.7941 32.4196 36.5767C32.6861 36.2507 32.8873 35.8758 33.1646 35.5552L33.1592 35.4682C33.5018 35.6204 33.8552 35.8323 34.2468 35.7399C34.2576 36.0007 34.399 36.267 34.4697 36.517C34.709 37.1799 34.8993 37.8755 35.1549 38.533L35.0788 38.5438ZM37.6074 33.3707C37.4877 35.0009 36.9222 36.6148 35.8509 37.8374C35.579 37.2234 35.2038 36.0877 35.0516 35.4302C35.3126 35.2074 35.5627 34.952 35.7367 34.6531C35.9271 34.3054 35.9597 33.8924 36.0358 33.5066C36.5579 33.3598 37.0962 33.1805 37.6182 33.0501L37.6074 33.3707ZM37.466 32.1861C36.9222 32.3654 36.3349 32.4796 35.8074 32.6915C35.7857 32.4741 35.6062 32.2894 35.4812 32.1209C35.3235 31.8764 34.9863 31.5666 34.6764 31.5884C34.7797 31.2406 34.7742 30.8439 34.8667 30.4962L35.3343 30.4146C35.8781 30.4962 36.5579 30.2734 36.9983 29.9528C37.3899 30.5994 37.4769 31.4417 37.6237 32.1752L37.466 32.1861ZM44.3993 30.9037C44.557 30.8548 44.7799 30.795 44.9376 30.7353C44.9431 31.0178 45.1116 31.2841 45.2856 31.4851C45.1715 31.5069 45.0518 31.5177 44.9322 31.5177C44.9104 31.4688 44.8561 31.3928 44.8289 31.3439C44.7582 31.3221 44.5842 31.3004 44.508 31.2895C44.4863 31.2732 44.4428 31.2352 44.421 31.2189L44.3558 30.9037H44.3993ZM45.5086 32.8056L45.4814 32.9686C45.4325 33.4903 45.2693 34.0282 45.2965 34.5499C43.9099 34.0934 43.3226 32.6045 43.1214 31.2569C43.415 31.2243 43.725 31.0885 44.0077 31.0178L44.0458 30.9743C44.0241 31.3113 44.2796 31.7134 44.6549 31.6427C44.682 31.8057 44.682 32.0122 44.6222 32.1644C44.6494 32.3437 44.7201 32.5882 44.8669 32.7023L45.5358 32.6426L45.5467 32.7621L45.5086 32.8056ZM45.5902 32.3546L45.0029 32.4089C44.9974 32.3437 44.9866 32.197 44.9811 32.1318C45.0627 32.0611 45.0409 31.8927 45.0301 31.8003C45.1986 31.8003 45.3563 31.7677 45.5358 31.7242C45.5358 31.7297 45.6174 31.7568 45.6228 31.7623C45.6554 31.9416 45.5739 32.1698 45.5902 32.3546ZM45.7751 27.1054L45.7968 26.9043C46.0252 26.6489 46.1611 26.3338 46.3569 26.0566C46.4113 25.8882 46.5744 25.736 46.5907 25.5567L46.6288 25.5513C46.6614 25.4969 46.7484 25.4698 46.7756 25.4209C47.3955 25.4263 47.9448 25.8501 48.3526 26.2849L48.358 26.3664C48.1242 26.6489 47.923 26.9587 47.7218 27.2575C47.5532 27.4532 47.2161 27.9694 47.053 28.1922C46.9605 28.2193 46.8518 28.1759 46.7702 28.1378C46.6941 28.0835 46.2318 28.1487 46.1394 28.1541C46.0524 27.8118 45.9436 27.4097 45.7751 27.1054ZM46.7049 32.0177C46.6234 32.072 46.4983 32.1426 46.4004 32.1644L46.4276 32.0014L46.4602 31.9199L46.6941 31.8601L46.7049 32.0177ZM48.2656 33.1262C47.7653 33.8706 47.004 34.5499 46.0578 34.5988C46.1394 33.9195 46.3188 33.2186 46.3188 32.5393C46.7593 32.4741 47.265 32.1915 46.9986 31.6808C47.2107 31.6101 47.3357 31.3656 47.5152 31.2352L47.5532 31.2297C47.9556 31.5014 48.3635 31.7731 48.7713 32.0448C48.7278 32.4415 48.4233 32.773 48.2656 33.1262ZM49.0541 31.2569C48.6571 31.0069 48.2656 30.7461 47.8795 30.4799C47.9448 30.1756 47.9176 29.5072 47.8088 29.2083C47.7708 29.0616 47.6185 28.9366 47.6131 28.7845C47.7164 28.6432 47.8088 28.4856 47.9339 28.3552C47.9883 28.2139 48.1133 28.1052 48.1786 27.9748C48.4124 27.6922 48.6028 27.3771 48.8148 27.0782H48.8529C49.2172 27.8444 49.3749 28.7464 49.3423 29.5941C49.2988 30.143 49.2716 30.7516 49.0541 31.2569ZM52.2787 22.6658C52.1972 23.0299 52.0069 23.356 51.8927 23.6983C51.7241 24.6003 51.4522 25.4806 51.0879 26.3229C50.8867 26.7141 50.8377 27.263 50.4788 27.5347C50.4516 27.5564 50.419 27.627 50.4081 27.6596C50.3864 27.6596 50.3483 27.6651 50.332 27.6651C50.1199 26.3283 49.1846 25.16 48.01 24.5514C48.8094 24.0189 49.5707 23.4483 50.3646 22.9104C50.8649 22.5789 51.3217 22.1768 51.86 21.8997V21.8616C52.083 21.8453 52.3114 21.704 52.5126 21.6062C52.5887 21.9757 52.4908 22.3615 52.2787 22.6658Z" fill="white"/>
<path d="M61.4633 10.6405C61.3219 9.93411 60.6966 9.61351 60.3757 9.01578C60.0875 8.69517 60.1582 8.24959 59.9679 7.92899C59.7178 7.71706 59.4513 7.51601 59.261 7.25518C59.3425 7.07042 59.2447 6.76612 59.0652 6.61397C59.0272 6.35314 59.1305 6.01624 58.9565 5.78258C58.8205 5.66303 58.6846 5.54349 58.5323 5.45654L58.4127 5.46741C58.4235 5.61413 58.4562 5.98907 58.4725 6.14122C58.4399 6.17926 58.3964 6.2336 58.3637 6.27163C58.293 6.27707 58.2006 6.2825 58.1299 6.29337L58.1027 5.9782C58.0211 5.94016 57.9124 5.89669 57.8199 5.92386C57.7656 5.99994 57.6786 6.07058 57.6514 6.16296C56.6508 6.09231 55.8134 6.8748 55.3566 7.60295C55.0956 7.90725 53.9917 7.87465 54.6823 8.40718C53.9373 8.42891 53.6437 9.21683 53.3174 9.8037C52.7247 9.8526 52.6485 10.1515 53.1923 10.4449C52.9259 10.809 52.828 11.423 52.8932 11.8034C52.3059 11.8903 51.9742 12.2707 51.6316 12.7C51.4033 13.026 51.0715 13.5586 51.028 13.9498C50.6039 14.0856 50.1471 14.2378 49.7229 14.3845C48.0046 14.5475 46.1611 14.1943 44.4917 14.7595C43.4259 15.167 42.3438 15.6615 41.4628 16.3842C40.8048 16.9874 40.31 17.8079 40.1197 18.6991C40.0272 18.3622 39.7553 18.0796 39.565 17.7862C39.255 17.3786 38.8907 17.0091 38.4829 16.6831C38.124 16.4059 37.7324 16.1723 37.3192 15.9821C37.0581 15.8952 36.7863 15.7158 36.5089 15.7321L36.4872 15.455C35.5736 15.5963 34.6492 15.3681 33.8009 15.0475C33.2136 14.8736 32.1749 14.8573 31.6366 15.1561C30.1955 15.2376 28.4337 15.2974 27.0633 15.7919C26.7371 15.9223 26.3075 16.0364 26.1661 16.3896C25.9051 16.4929 25.6277 16.6124 25.3613 16.6994L25.3667 16.7374C24.7631 16.6994 23.5668 16.7591 23.5777 17.5742C23.1154 17.7753 22.6532 18.1285 22.2671 18.4491C21.8375 18.6447 21.4188 18.8784 21.0654 19.1936C19.3307 20.802 19.037 23.3668 19.3579 25.6165C18.4062 25.611 17.4383 25.9534 16.7531 26.6C16.5302 26.8119 16.2963 27.0184 16.0951 27.2575C15.9755 27.4586 15.7743 27.6488 15.7091 27.8118C14.2789 29.9908 14.0451 33.2023 15.448 35.4682C15.8559 36.0823 16.4214 36.6039 17.112 36.881C18.0473 37.2234 19.26 37.3592 20.2062 36.9734C21.9137 36.2833 23.0937 34.3814 23.3982 32.6154C25.2362 32.8762 27.0851 33.2294 28.9285 33.4196C28.7001 35.8051 29.4832 38.7449 31.8704 39.7176C33.0722 40.1034 34.5622 40.2229 35.6932 39.5437C38.5046 37.8809 39.391 34.1586 38.7711 31.083C39.0702 30.8711 39.3801 30.67 39.6683 30.4473L39.6629 30.4092C39.6955 30.8005 39.6466 31.0178 39.4671 31.3439C39.3692 31.5395 39.4236 32.1481 39.5106 32.3383C39.6248 32.5665 40 32.5285 39.9511 32.8599C39.7662 33.3164 39.6466 34.1043 40.3698 34.0608C41.006 34.0011 41.7619 33.9087 42.2132 33.4196C42.2676 33.762 42.545 34.0445 42.7244 34.3325C43.0126 34.6586 43.3389 34.9629 43.7087 35.2074C44.7419 35.7454 46.1394 35.9247 47.2542 35.4954C49.6359 34.4358 50.8377 31.3656 50.5278 28.8605C50.5658 28.8823 50.642 28.8986 50.6909 28.8877C50.7616 29.2409 50.6583 29.6539 50.7072 30.0071C50.816 30.1919 50.9247 30.4146 51.1422 30.4853C51.4903 30.5559 52.0177 30.4255 52.3549 30.3386C52.5724 30.2516 52.7953 30.1321 52.953 29.9691C53.0292 29.7137 53.0401 29.4094 52.7736 29.2681C52.5778 28.9529 52.3603 28.6432 52.0667 28.4095C52.0558 28.127 52.2298 27.8172 52.1917 27.5184C52.3386 27.0293 52.5071 26.5457 52.7029 26.0729C52.9041 25.6219 52.9694 25.0948 53.3391 24.7416C53.5403 25.1709 53.573 26.1979 53.6219 26.6761C53.5893 27.0619 53.4588 27.9639 54.0787 27.877C54.3451 28.1867 54.1983 28.779 54.6116 29.029C54.666 29.1648 55.4218 29.0181 55.5197 29.029C55.8514 28.9638 56.2593 28.8768 56.4714 28.5888C56.4877 28.1976 56.2973 27.8553 56.0309 27.589C55.846 27.5238 55.6611 27.4586 55.498 27.3553C55.3947 27.1923 55.3947 26.7467 55.3131 26.5729C55.237 26.3772 55.1064 26.1653 55.0629 25.9534C54.9923 25.3828 54.9759 24.4101 54.9216 23.8504C54.8291 23.432 54.6932 22.9049 54.6877 22.4702C55.0412 21.9105 55.2315 21.2476 55.5632 20.677C55.9004 20.3619 56.2049 19.9978 56.504 19.6391C56.6073 19.5413 56.6617 19.3946 56.7106 19.2642C56.8194 19.0577 56.939 18.8023 56.9281 18.5632L57.0043 18.5578L57.0532 19.112C57.2653 19.1066 57.8363 19.0957 58.0375 19.0686C58.0157 18.6773 57.9505 18.0198 57.8363 17.6449L57.9124 17.6394C58.081 17.4927 58.3039 17.3949 58.429 17.1939C58.5377 16.8624 58.3692 16.4331 57.9722 16.4385C57.7873 16.4277 57.6405 16.5853 57.4719 16.6396C57.4502 16.3896 57.3033 16.1397 57.2109 15.906L57.1728 15.9115C57.3088 15.493 57.5209 15.0855 57.5807 14.6399C57.6731 13.4118 57.461 12.1077 57.7384 10.9014C58.0375 11.0589 58.4399 10.9448 58.7444 11.1024C59.0543 11.3632 59.4894 11.4176 59.8211 11.6512C59.8863 12.1946 60.5443 12.1512 60.9141 11.9555C61.0881 11.8577 61.2241 11.7001 61.3981 11.5969C61.5666 11.3741 61.4905 10.8688 61.4633 10.6405ZM58.9837 6.97261C59.125 7.28235 58.6628 7.32039 58.5106 7.53774C58.4562 7.28778 58.6193 6.79873 58.4072 6.56507C58.6465 6.60311 58.9238 6.8096 58.9837 6.97261ZM53.5512 10.4666C53.7796 10.2004 53.3663 10.233 53.2195 10.1189C53.9754 9.97759 53.7633 8.73321 54.617 8.71148C55.0031 8.64627 55.411 8.40717 54.84 8.15721C55.9058 7.86921 56.2593 6.39118 57.51 6.42379C57.4175 6.63571 57.4393 7.05956 57.5372 7.35842L57.5481 7.35299L57.51 7.4019C56.9173 7.54318 56.7106 8.03223 56.8303 8.56476C55.7372 7.68989 56.33 10.2058 55.8079 10.6188C55.4001 8.76582 54.5409 10.9883 55.4382 12.5587C55.536 12.7598 55.5469 13.0532 55.5469 13.2217C55.4436 13.0804 55.3131 12.9554 55.1989 12.8195C55.0738 12.6946 54.8998 12.6076 54.8128 12.4555C54.6497 12.4066 54.5572 12.2218 54.3941 12.1729C54.2255 12.0588 54.0243 11.8958 53.8177 11.9012C53.8177 11.9012 53.5947 11.7382 53.176 11.7599C53.1053 11.3958 53.2413 10.6786 53.5512 10.4666ZM40.7613 17.8731C40.8918 17.5688 41.1039 17.3025 41.2834 17.0308C41.4519 16.8135 41.6695 16.645 41.8652 16.4603L41.9033 16.4548C41.6423 16.7591 41.4846 17.1232 41.2344 17.433C41.1202 17.6231 40.9027 17.7047 40.7613 17.8731L40.7559 17.922L40.7178 17.8785L40.7613 17.8731ZM40.3861 19.0631C40.4949 18.7751 40.6798 18.5252 40.832 18.2644C40.9734 18.0905 41.1692 17.9546 41.3486 17.8188C41.6042 17.5471 41.7619 17.2156 41.9849 16.9222C42.1697 16.569 42.4525 16.2592 42.7353 15.9767C43.2084 15.618 43.7848 15.4061 44.3286 15.1616C46.4276 14.3084 48.8475 15.0964 50.9628 14.5856L50.9465 14.3899L50.903 14.3519C51.1314 14.2269 51.4033 14.1346 51.5773 13.9335L51.5718 13.8955C51.7622 13.8955 52.0123 13.8194 52.1917 13.7596C52.2407 13.7216 52.2516 13.6292 52.2951 13.5912L52.2896 13.5531C52.692 13.4173 53.0672 13.1184 53.3337 12.7815L53.3283 12.7435L53.3718 12.7815C54.8291 12.9445 56.2321 15.9549 56.5964 17.2536C55.3348 18.1285 54.0896 19.0251 52.828 19.9L52.8334 19.938L52.7518 19.9434C52.779 19.8837 52.7899 19.7641 52.7736 19.7043C52.7138 19.6337 52.5724 19.6337 52.4908 19.65C52.431 19.6989 52.4963 20.1065 52.4963 20.1717C52.17 20.3075 51.9035 20.5901 51.599 20.7694C51.077 21.128 50.5658 21.5138 50.0329 21.8616L50.0383 21.8997C49.5218 21.829 48.978 21.7366 48.4722 21.5954C48.4505 21.128 48.6354 20.6227 48.5484 20.1499L48.271 20.1771C48.2058 20.7803 48.1514 21.3997 48.0318 21.9975C47.9937 22.2311 47.9502 22.4974 47.8143 22.693C47.7273 22.7745 47.6294 22.856 47.5587 22.9538C47.2922 23.2799 46.9116 23.7146 46.8681 24.133L46.7919 24.1384C46.433 24.3884 45.4325 24.2145 45.0355 24.4536L45.0029 24.4971C45.1715 23.7472 44.9159 23.5679 44.3014 23.2418C43.9751 22.9321 43.6706 22.5789 43.4966 22.1551C43.3987 21.916 43.2791 21.666 43.1975 21.4215C43.2247 21.052 43.3606 20.5357 43.1322 20.188C43.0072 19.8674 42.7298 19.6391 42.545 19.362C42.2839 18.873 42.2568 18.2372 42.3655 17.6992C42.4036 17.5036 42.5613 17.3243 42.5558 17.1232C42.4743 17.1069 42.3981 17.0091 42.3111 17.0254C41.8489 17.7155 41.9033 18.7751 42.2459 19.5087C42.4688 19.8782 42.844 20.1608 42.9311 20.6064C43.0181 21.1606 42.6265 21.6388 42.5069 22.1605C42.1915 23.1875 42.5232 24.4319 42.844 25.4154C42.8114 25.2741 42.6809 25.1763 42.5939 25.0731L42.5558 25.0785C42.5069 25.1655 42.6428 26.5022 42.6483 26.6272H42.6102C42.4416 26.8554 42.371 27.1543 42.2024 27.3825C42.0121 27.5347 41.7673 27.6488 41.6096 27.8335C41.5879 27.6325 41.5063 27.3553 41.4356 27.1706C41.4084 27.1706 41.2236 27.1869 41.2018 27.1923C40.9625 26.7359 40.6091 26.3338 40.4188 25.861L40.4568 25.8556C41.3704 23.807 41.3649 21.1661 40.3644 19.1501L40.3861 19.0631ZM48.4233 21.916C48.7876 22.0355 49.2009 22.1551 49.587 22.1388L49.5924 22.2203L49.5109 22.2257C48.8148 22.7419 48.0916 23.231 47.3847 23.7309C47.4771 23.5679 47.6076 23.4266 47.7001 23.2636C47.8197 23.1821 47.9937 22.981 48.1025 22.8669C48.2384 22.5735 48.3907 22.2366 48.4233 21.916ZM44.6168 24.6492C44.0839 24.8775 43.6923 25.3067 43.2791 25.6871L43.2845 25.7252C43.2247 25.4046 43.067 25.0622 43.0017 24.7525C43.3334 24.2689 43.4531 23.6548 43.7794 23.1658C43.9806 23.4809 44.3123 23.6331 44.6277 23.8124C44.8506 24.0569 44.6168 24.3775 44.6168 24.6492ZM42.8549 24.3612C42.7516 23.5407 42.545 22.5843 42.9963 21.8345C43.1214 22.2203 43.3878 22.568 43.4857 22.9484C43.2628 23.4103 43.0616 23.8939 42.8549 24.3612ZM42.8712 25.4806C42.8821 25.6382 42.8549 25.323 42.8712 25.4806V25.4806ZM41.0495 28.2356C40.8483 28.2628 40.707 28.4747 40.5221 28.5617C40.3372 28.578 40.1088 28.491 39.9239 28.5345C39.9402 28.0835 39.7281 27.589 39.6085 27.1652L39.6466 27.1597C39.7771 27.0021 39.9076 26.8337 40 26.6489C40.0816 26.5402 40.2012 26.4098 40.2067 26.2686C40.4459 26.5294 40.5982 26.8772 40.7994 27.176C41.0659 27.5075 41.0441 27.8444 41.0495 28.2356ZM29.8367 30.3766L27.8464 30.6918C28.0585 30.2679 28.6512 29.6485 28.7436 29.1485C29.1787 29.154 30.3369 28.9584 30.7774 28.8823L29.804 30.3494L29.8367 30.3766ZM27.1993 31.9144L25.8507 31.8655C26.9763 31.3656 28.2814 30.5396 29.6953 30.5777C29.108 31.1537 28.314 31.7731 27.1993 31.9144ZM28.537 32.322C28.1455 32.2839 27.7268 32.2024 27.3352 32.1481C27.5419 32.1426 28.0258 32.1481 28.2434 32.11C28.3847 32.11 28.4554 32.2296 28.537 32.322ZM29.2059 28.9692L28.847 28.9801L29.3146 27.0728L31.4354 26.7956C31.3919 27.3934 31.1526 28.0889 31.0004 28.6323L29.2059 28.9692ZM30.0922 26.8065L29.3037 26.8608C29.3364 26.3012 29.3201 25.1655 29.1895 24.6329L31.4082 24.1221C31.3973 24.2363 31.517 26.562 31.4571 26.5946L30.0922 26.8065ZM29.9073 20.2749C30.1956 20.6336 30.3369 21.0139 30.5762 21.3943C30.2499 21.5845 28.5424 21.8779 28.4663 22.1388L28.3902 22.1442C28.2869 21.541 27.357 20.5194 27.0688 20.063L29.1025 19.324C29.3472 19.6337 29.63 19.9271 29.9073 20.2749ZM29.717 19.1501C30.1194 18.8132 35.8509 17.7373 36.9875 17.6394C37.33 18.1013 38.1185 19.0142 38.3415 19.6391C36.498 19.9706 33.0504 20.7314 31.12 21.2259C30.9297 20.6499 30.1031 19.5305 29.717 19.1501ZM30.6741 21.5845C30.9079 22.3072 31.2668 22.9701 31.3484 23.9211L29.1406 24.459C29.0917 23.6983 28.6784 22.8615 28.4772 22.2094L30.6741 21.5845ZM31.2124 21.4215C31.5278 21.1769 37.4932 19.9163 38.4339 19.8348C38.5155 19.8837 38.9396 21.5519 38.9832 21.6225C38.9668 21.7095 38.7548 21.8073 38.4829 21.8997C38.4122 21.7095 38.3469 21.5193 38.2762 21.3291C38.1131 21.3671 37.95 21.4106 37.7814 21.4486C37.7433 21.6823 37.7053 21.916 37.6672 22.1442C37.3953 22.2203 37.3192 22.2529 37.0962 22.3344C37.0745 22.1007 37.0581 21.8671 37.0364 21.628C36.6231 21.7312 36.2044 21.829 35.7857 21.9323C35.8074 22.1931 35.8346 22.4539 35.8455 22.7147C35.6769 22.7582 35.5736 22.7854 35.4268 22.818C35.2473 21.6551 33.7737 22.242 33.8933 23.231C33.7682 23.269 33.6812 23.3016 33.5507 23.3397C33.8498 22.3181 32.7731 22.6169 32.1858 22.8071C32.213 23.1006 32.2348 23.394 32.2619 23.682C32.1151 23.7146 31.9846 23.7363 31.8922 23.7472C31.7997 22.7474 31.4571 22.1714 31.2124 21.4215ZM39.8151 23.9863C39.8532 23.3179 39.6901 22.3561 39.6194 21.6877L40.8103 21.3019C40.8973 21.8834 40.9082 23.0734 40.8647 23.6603L39.8151 23.9863ZM40.7885 23.8504C40.6635 24.6166 40.5656 25.9588 39.6248 25.9208L39.7988 24.2689L40.7885 23.8504ZM40.136 25.9479C39.9783 26.3446 39.5324 27.0673 39.2279 27.3173L39.5324 26.2522L40.136 25.9479ZM38.9995 27.8553C39.1517 27.8335 39.2224 27.6433 39.3312 27.5455L39.3257 27.5075L39.4019 27.5021C39.4073 27.8118 39.6303 28.127 39.6031 28.4421C39.3203 28.4258 39.0103 28.3117 38.7276 28.3606L38.7221 28.2791L38.7602 28.2737C38.8472 28.1541 38.907 28.0074 39.0049 27.8933L38.9995 27.8553ZM33.1048 23.4266C33.0396 23.5298 32.8601 23.5353 32.7459 23.5733C32.735 23.432 32.7242 23.2907 32.7133 23.1495C32.958 23.0299 33.2462 23.1114 33.1048 23.4266ZM33.2027 23.9483C33.4256 24.2363 33.0831 24.421 32.8112 24.4427C32.8003 24.296 32.7894 24.1439 32.7731 23.9917C32.909 23.9754 33.0994 23.8722 33.2027 23.9483ZM33.2027 24.834C33.7791 24.7905 34.0238 23.7092 33.3876 23.5842C33.5997 23.519 33.7247 23.4809 33.8987 23.432C33.8552 25.1709 35.889 24.4373 35.4649 23.0082C35.5954 22.9756 35.7259 22.9321 35.8564 22.8941C35.8618 23.1495 35.8401 23.4103 35.8074 23.6494C35.7531 23.6657 35.7041 23.6766 35.6552 23.6874C35.6824 24.0135 35.7096 24.3395 35.7367 24.6655C35.8618 24.6329 35.9869 24.6003 36.112 24.5677C36.0956 24.4101 36.0848 24.2526 36.0685 24.095C36.3893 24.0135 36.7047 23.932 37.0201 23.8504C37.0364 24.008 37.0473 24.1656 37.0636 24.3232C37.1887 24.2906 37.3083 24.258 37.4334 24.2254C37.4062 23.9048 37.379 23.5787 37.3518 23.2581C37.2974 23.269 37.243 23.2853 37.1941 23.3016C37.1723 23.0408 37.1506 22.78 37.1288 22.5191C37.3028 22.4648 37.4769 22.4105 37.6509 22.3561C37.5747 22.8234 37.4986 23.2907 37.4279 23.7581C37.5802 23.72 37.7379 23.6766 37.8901 23.6385C37.9065 23.5135 37.9173 23.3886 37.9336 23.2636C38.1022 23.2201 38.2762 23.1766 38.4448 23.1332C38.4774 23.2473 38.5155 23.356 38.5481 23.4701C38.7058 23.432 38.8635 23.3886 39.0158 23.3505C38.8581 22.9212 38.7058 22.4974 38.5481 22.0681C38.7167 22.0138 38.8853 21.9594 39.0538 21.9051L39.1082 22.0627L39.255 24.2852C36.9875 25.16 34.4208 26.0023 32.0444 26.4696C32.0336 26.3555 31.9683 24.0624 31.952 23.9591C32.0336 23.9483 32.1532 23.9265 32.2837 23.8939C32.3163 24.2797 32.349 24.6655 32.3816 25.0513C32.648 24.9753 32.9254 24.9046 33.2027 24.834ZM34.9972 23.1386C35.2365 24.0026 34.312 24.296 34.3664 23.3071C34.5785 23.2527 34.7851 23.1929 34.9972 23.1386ZM34.3718 23.0951C34.361 22.7202 34.8504 22.5137 34.9537 22.9375C34.7634 22.9919 34.5676 23.0408 34.3718 23.0951ZM36.2751 22.9104C36.2751 22.8615 36.2751 22.818 36.2751 22.7691C36.4056 22.7311 36.5307 22.693 36.6612 22.655C36.6829 22.9104 36.7047 23.1658 36.7264 23.4157C36.5687 23.4592 36.411 23.4972 36.2533 23.5353C36.2642 23.3071 36.2751 23.1006 36.2751 22.9104ZM36.2533 22.3724C36.3784 22.3398 36.498 22.3126 36.6231 22.28C36.6286 22.3507 36.634 22.4213 36.6394 22.4865C36.5144 22.5246 36.3893 22.5626 36.2642 22.6006C36.2642 22.5246 36.2642 22.4485 36.2533 22.3724ZM38.1457 22.1877C38.1947 22.3507 38.249 22.5191 38.298 22.6876C38.1892 22.7147 38.0805 22.7419 37.9771 22.7691C37.9989 22.5898 38.0152 22.405 38.0424 22.2257C38.075 22.2094 38.1077 22.1985 38.1457 22.1877ZM38.0587 22.0355C38.0642 22.0083 38.0642 21.9812 38.0696 21.9486C38.075 21.9757 38.0859 21.9975 38.0913 22.0246C38.0805 22.0301 38.0696 22.0355 38.0587 22.0355ZM32.0118 26.6652C33.964 26.2631 37.4769 25.1003 39.2279 24.5188L39.0103 26.1381C38.2599 26.6435 36.5851 27.1108 35.715 27.3825C34.6872 26.9695 32.6643 27.2901 31.8106 27.9639L32.0118 26.6652ZM38.8853 26.5076L38.4285 27.6651C38.3143 27.7412 37.1887 28.2139 37.0527 28.2248C36.8569 28.0074 36.1881 27.7031 36.0032 27.4749L38.8853 26.5076ZM38.2164 27.9639L37.5693 28.741L37.1995 28.3443L38.2164 27.9639ZM38.1294 29.2898C38.5101 29.3279 38.9125 29.4202 39.2986 29.4474L39.217 29.4746C38.9886 29.643 38.6406 29.9256 38.3959 30.0234C38.2925 29.7734 38.1566 29.5289 38.0152 29.2953L38.1294 29.2898ZM38.1838 28.9638L38.5046 28.578L40.1849 28.8334C39.8423 29.4148 38.6243 29.0888 38.1838 28.9638ZM40.31 19.5359C40.4894 19.8511 40.7233 20.6662 40.7613 21.1498L39.5704 21.541L39.5161 21.4215L39.0212 19.7478L40.31 19.5359ZM38.9451 17.4275C39.2931 17.6231 40.1034 18.911 40.2611 19.3946C40.2556 19.3892 38.9832 19.5468 38.9288 19.5522C38.7983 19.1555 37.9173 17.7481 37.6563 17.5851L38.9451 17.4275ZM38.8146 17.2808L37.4823 17.3949C37.3844 17.1178 35.802 15.868 35.4866 15.8082C36.0304 15.3952 38.6514 16.8244 38.8146 17.2808ZM32.5719 15.5093C33.1918 15.455 33.616 15.743 34.0184 15.743L32.4196 16.0201L32.5991 15.7539L32.5719 15.5093ZM34.5078 15.9386C35.2582 16.357 36.2425 16.7918 36.7699 17.4601C34.9156 17.7536 31.4626 18.4382 29.543 18.9653C28.9612 18.2861 28.0911 17.8025 27.3515 17.3569C27.6561 17.1232 33.79 15.8354 34.5078 15.9386ZM26.2205 16.6179C26.6501 16.7972 27.6941 16.9656 28.2977 16.8787L28.3032 16.9167L27.0253 17.2265L25.7256 16.8189C25.8017 16.7374 26.0573 16.6342 26.2205 16.6179ZM23.9257 17.5797C24.5945 17.1776 25.47 17.3732 26.0954 17.509L24.5238 18.1502C24.5728 18.4274 24.7359 18.2589 24.9317 18.172C26.4108 17.1395 27.8029 18.1937 28.9231 19.1392C28.8959 19.161 26.9709 19.9108 26.9328 19.9108C25.7528 18.8295 24.5782 18.0742 22.7293 18.3567L23.9257 17.5797ZM20.2823 20.514C23.0067 15.6832 28.9448 20.5031 28.9557 24.6547L29.0318 24.6492C29.8802 28.1433 27.3352 33.2566 23.4689 31.3656C23.8169 31.1591 24.4912 31.2515 24.8501 31.3765L24.8719 31.083L24.3063 30.9743C24.7468 30.9417 25.1601 30.8765 25.0894 30.4255C25.0404 29.8604 24.3498 30.2408 24.0344 30.1158L24.0671 30.0343C24.7849 29.7952 26.302 30.5342 27.1558 30.5233C26.6936 30.018 25.1927 30.0288 24.5238 29.8332C25.2253 28.7953 22.887 28.8768 22.4683 29.4094C21.5385 29.317 21.1632 28.2519 20.837 27.4314L28.1781 28.6377C26.1987 27.9042 23.4907 27.8009 21.2938 27.3282C20.2877 27.3445 20.4889 26.1816 20.2279 25.3719C22.8599 25.7795 25.8616 26.475 28.4989 26.8119C26.1117 25.9642 22.8435 25.7632 20.2551 25.2089L20.266 25.3285L20.2225 25.3393C19.7222 23.4538 20.2606 20.6009 21.5765 19.7859L26.4325 20.1608L26.4162 19.9815L21.7668 19.6446C22.0061 19.3294 22.9741 18.9925 23.458 19.0957L23.4363 18.8566C18.4987 19.1283 19.4014 26.5185 21.5058 29.2137C21.4188 29.3387 21.5113 29.442 21.6798 29.3985L21.6472 29.4311L22.762 30.5016L22.3813 30.6537C19.657 28.6649 18.5422 23.5027 20.2823 20.514ZM23.0121 31.045C22.4031 31.0993 22.3487 31.4797 22.2454 31.9742C21.6255 35.403 21.1469 30.8113 22.7348 30.6972C23.2731 30.4201 23.5722 29.9854 24.0997 30.3494C25.1873 30.0017 25.1981 30.8276 24.1432 30.8276C24.0508 31.2949 23.2024 31.1863 23.0121 31.045ZM23.2949 31.5775C23.11 31.5503 22.6695 31.5775 22.6097 31.3982L22.9142 31.2515C23.0502 31.4091 23.2514 31.371 23.2949 31.5775ZM19.4122 33.3544C19.8636 33.3109 20.2062 32.9632 20.4998 32.6589C20.6412 32.6589 20.75 32.811 20.875 32.8654C21.0327 32.9958 21.2285 33.0827 21.3808 33.2186L21.4623 33.2131V33.2512C21.5167 33.2946 21.582 33.349 21.6309 33.3979L21.7125 33.3925L21.7179 33.4305L21.7614 33.4685L21.8484 33.4631C21.2992 34.7509 20.5053 35.8758 19.0153 36.104C19.2002 35.2128 19.3035 34.2619 19.4122 33.3544ZM18.9935 31.6699C19.0914 31.947 19.4231 32.0666 19.7005 32.0122C19.608 32.235 19.3796 32.398 19.1349 32.3817C18.8739 32.2894 18.9392 31.6427 18.8956 31.4417C18.9392 31.0993 19.0914 30.7733 19.3307 30.5233C19.6896 30.4092 19.7711 30.795 19.8853 31.0396C19.4122 30.8494 18.8413 31.0939 18.9935 31.6699ZM19.2546 31.5286C19.3742 30.882 21.1632 31.6373 21.6744 31.5992L21.5548 32.0503C20.9349 31.8709 19.6733 31.9742 19.2546 31.5286ZM21.7288 31.3113C21.4786 31.2623 21.185 31.1863 20.9294 31.2189C20.9457 30.8548 20.7608 30.5125 20.6086 30.2082C20.6575 30.0886 20.9403 29.73 21.0327 29.6104C21.2339 29.8224 21.4134 30.056 21.6037 30.2788C21.707 30.3657 22.0659 30.6918 22.1257 30.795L22.0442 30.8005C21.9137 30.9526 21.7016 31.0939 21.7288 31.3113ZM22.9577 30.3223L22.6532 30.0288L23.2188 30.1864L23.1426 30.1919L23.0339 30.3223H22.9577ZM22.3813 29.8332L22.0714 29.5017L22.3705 29.5452L22.3813 29.8332ZM20.5379 28.8986C20.3584 29.1377 20.2062 29.3985 20.005 29.6213C19.7766 29.4909 19.3796 29.4854 19.124 29.4963C18.8521 28.7138 18.602 27.9096 18.3301 27.1271C18.6238 26.8391 19.2545 26.7902 19.6406 26.7304C19.8038 27.5075 20.2225 28.203 20.5379 28.8986ZM21.843 35.3106C19.7711 38.3645 14.9641 36.7072 14.8281 32.9143C14.5182 29.7843 15.9973 25.899 19.4938 25.9208C19.4938 25.9969 19.5699 26.3881 19.5863 26.4696C16.8836 26.4805 18.6074 28.3606 18.9609 29.8821C19.3252 29.7571 19.7983 29.7734 20.0811 30.0234L20.2606 29.9093C20.2551 29.7191 20.6249 29.23 20.7554 29.1268C21.0926 29.3659 20.3204 29.9147 20.2932 30.2082C20.2769 30.3712 20.6738 30.8059 20.6521 31.1754L20.1735 31.1211C19.918 29.4202 18.4443 30.4527 18.602 31.7514C18.5041 32.8165 19.6841 32.9849 19.9723 32.072C20.4618 32.0666 21.5602 32.36 21.4243 32.8654C21.1306 32.811 20.7608 32.2839 20.3476 32.322C20.2932 32.648 19.657 33.061 19.1458 33.1045L18.689 36.3866C19.695 36.6093 21.1904 35.2237 21.4079 34.9792C21.4079 34.7835 22.0659 33.8924 22.1421 33.3544L22.0605 33.3218C22.5771 32.8436 22.1584 32.235 23.0991 32.5122C23.1426 33.2349 22.2236 34.8487 21.843 35.3106ZM28.9992 33.1208L22.3922 32.1372L22.4738 31.7297L29.0373 32.7023L28.9992 33.1208ZM28.6675 31.9905C28.798 31.9416 29.0753 31.909 29.2113 31.9036L29.1025 32.4361L28.6675 31.9905ZM37.5639 37.2016C35.5301 41.2771 29.6137 40.174 29.233 35.3758C28.227 30.8331 33.1103 24.6438 37.2485 28.7736C39.1898 30.7026 38.9342 35.1531 37.5639 37.2016ZM38.6134 30.8059C37.9228 30.2734 41.6314 28.2356 42.0447 27.8716C41.5988 29.3387 39.6901 29.8115 38.6134 30.8059ZM41.4519 29.7571L41.5716 29.7843C41.5226 30.1701 41.5825 30.9472 41.626 31.3384C41.3921 30.8983 41.4356 30.2462 41.3758 29.7626L41.4519 29.7571ZM41.0659 29.4311C41.3323 29.1214 41.9033 28.7682 41.664 29.4963L41.0659 29.4311ZM41.5553 31.909C41.577 31.8003 41.6368 31.6536 41.6423 31.5449C41.6531 31.6808 41.6803 32.0503 41.7347 32.1752C41.6749 32.1481 41.577 32.1263 41.5281 32.072C41.5172 32.0285 41.5335 31.947 41.5553 31.909ZM40.049 32.322C39.9892 32.2513 39.8858 32.2133 39.7988 32.1861C39.652 31.8818 39.7173 31.4471 39.913 31.1754C40.0055 30.882 40 30.4744 39.9837 30.1701C40.1849 30.143 40.3263 29.931 40.5112 29.8441C40.6471 29.6974 40.8592 29.6865 41.0495 29.6756C41.0713 29.9365 41.142 30.7896 41.1692 31.0667C41.2127 31.2569 41.3541 31.5069 41.2616 31.6971C41.0876 32.1698 41.1692 32.2948 41.6042 32.5067C41.1801 32.7675 40.7341 32.9577 40.2556 32.9686C40.2611 32.773 40.2447 32.4252 40.049 32.322ZM41.9794 33.1534C41.577 33.637 40.7885 33.6587 40.2067 33.7076C40.0544 33.6044 40.1251 33.3979 40.1632 33.2512C40.7178 33.2729 41.3378 33.0338 41.7945 32.7078C41.8326 32.7675 41.887 32.8599 41.925 32.9197H41.9631L41.9685 32.9577L42.0121 32.9903L41.9794 33.1534ZM49.3532 33.0936C48.2874 35.4193 45.0844 36.3105 43.2029 34.4303C40.5166 31.5775 41.9142 24.7144 46.346 24.5351C50.5332 24.4645 51.0987 30.4201 49.3532 33.0936ZM50.4788 27.5347C50.4516 27.5564 50.419 27.627 50.4081 27.6596C50.3864 27.6596 50.3483 27.6651 50.332 27.6651C50.1199 26.3283 49.1846 25.16 48.01 24.5514C48.8094 24.0189 49.5707 23.4483 50.3646 22.9104C50.8649 22.5789 51.3217 22.1768 51.86 21.8997V21.8616C52.083 21.8453 52.3114 21.704 52.5126 21.6062C52.5941 21.9757 52.4963 22.3615 52.2842 22.6658C52.2026 23.0299 52.0123 23.356 51.8981 23.6983C51.7295 24.6003 51.4576 25.4806 51.0933 26.3229C50.8867 26.7141 50.8377 27.263 50.4788 27.5347ZM52.4147 29.3333C52.4582 29.4039 52.5235 29.4909 52.5887 29.5507L52.6703 29.5452L52.6485 29.7843C52.3059 30.0886 51.648 30.1212 51.2129 30.1484C51.0987 30.0886 51.0552 29.9202 51.028 29.806L50.9845 29.768L50.99 29.7082C51.4739 29.7191 51.9688 29.5289 52.4147 29.3333ZM55.9004 27.9531C55.9983 28.0944 56.1451 28.2519 56.1342 28.4421C55.7753 28.6812 55.2424 28.7247 54.8182 28.7573C54.6986 28.6975 54.6877 28.5345 54.5953 28.4584L54.5844 28.3443C55.0249 28.3552 55.498 28.1487 55.9004 27.9531ZM54.7475 26.0838C54.791 26.2957 54.9216 26.5022 54.9977 26.7033C55.0303 26.8065 55.0521 27.4423 55.1826 27.4858C55.3131 27.5836 55.4273 27.7303 55.5904 27.7846C55.2533 27.9313 54.927 28.0672 54.5627 28.0618C54.4702 27.7955 54.2908 27.4858 53.9645 27.5129C53.8122 27.1815 53.9971 26.6815 53.9427 26.3175C53.921 25.6926 53.7524 24.9916 53.6219 24.3884C53.9427 23.932 54.0134 23.3234 54.3669 22.8832C54.7095 23.9102 54.5463 25.0405 54.7475 26.0838ZM56.5692 18.6936C56.4442 19.0305 56.3137 19.362 56.0526 19.6174C55.8079 19.9326 55.5306 20.2097 55.2587 20.4868C54.9161 21.09 54.7204 21.7801 54.3506 22.3615L54.356 22.4431L54.2745 22.4485C54.0461 22.7148 53.8449 23.0082 53.7198 23.3342C53.5784 23.6603 53.4968 24.0298 53.2467 24.296C53.1869 24.3938 53.0509 24.4319 53.0292 24.5569C52.9476 24.6655 52.8225 24.7633 52.7845 24.8992C52.5996 25.2307 52.5235 25.6273 52.3603 25.9751C52.1211 26.6 51.8328 27.2249 51.8111 27.8987C51.7241 28.1052 51.648 28.3715 51.7513 28.5834C51.773 28.6106 51.8437 28.6432 51.8764 28.6541C51.9851 28.8062 52.1374 28.9366 52.2461 29.0888C51.86 29.2518 51.4522 29.4257 51.028 29.4257C51.0063 29.1703 51.0552 28.5943 50.68 28.5617C50.6583 28.5073 50.5985 28.4476 50.5495 28.415C50.4951 28.1813 50.6039 27.9476 50.729 27.7629C50.8758 27.6868 50.9465 27.5184 51.0117 27.3771C51.2673 26.8608 51.4413 26.2957 51.6643 25.7632C51.9416 25.0948 52.0721 24.3775 52.2407 23.6766C52.4854 23.2255 52.6268 22.6115 52.9041 22.1388C52.9259 21.7638 53.0455 21.3726 53.0836 21.0031L53.1216 20.9976C54.2473 20.1391 55.4382 19.362 56.591 18.5415L56.5855 18.5034C56.6073 18.5415 56.5855 18.6502 56.5692 18.6936ZM52.2624 21.215C51.338 21.6877 47.6783 24.9427 47.0312 24.3395L56.7432 17.5145C57.4882 18.1557 52.7954 20.6499 52.2624 21.215ZM57.9831 16.6939C58.4018 16.857 57.994 17.308 57.684 17.3623L57.5698 16.933C57.684 16.857 57.8254 16.7102 57.9831 16.6939ZM57.7166 18.6339L57.7275 18.7534L57.2598 18.7914C57.1892 16.4875 54.0189 10.0156 52.0286 13.5314L51.4468 13.6618C53.3663 9.03208 57.5535 15.705 57.7166 18.6339ZM60.9467 10.5645C60.9141 10.6025 60.8706 10.6568 60.838 10.6949C60.838 10.9666 60.6204 11.3143 60.9467 11.4828C60.7455 11.6458 60.4791 11.7871 60.2126 11.7056C60.1854 11.6404 60.131 11.4991 60.1093 11.4339C59.8809 11.1894 59.5383 11.1241 59.2392 10.9883C59.0815 10.8959 58.9184 10.7818 58.7389 10.7112C58.5269 10.6134 58.206 10.6623 57.9776 10.6188L57.9341 10.5808L57.8526 10.5862C57.8689 10.1895 57.597 9.86891 57.4067 9.5483C57.3088 9.5483 57.2055 9.61895 57.1402 9.68959C57.1511 9.91238 57.3251 10.108 57.4284 10.3036C57.5644 10.5264 57.4502 10.7709 57.3686 10.9883C57.2925 11.2546 57.2598 11.5643 57.2435 11.8414C57.1565 13.0315 57.4719 14.341 56.9553 15.4604C56.6834 14.7595 56.2103 14.0802 55.759 13.4825C56.0091 12.7326 54.9542 10.8688 55.4273 10.2438C55.8079 12.374 56.4714 9.4994 56.4768 8.70061C57.6677 9.42332 56.5801 7.67903 57.6133 7.65729C57.7547 7.58665 57.9341 7.26605 57.9885 7.13563C57.9015 6.94544 57.6786 6.66288 57.8526 6.46726C57.8798 6.58137 57.9776 6.67918 58.0375 6.77156C58.081 6.78786 58.168 6.82046 58.2115 6.8422C58.2332 7.22801 58.0538 7.88552 58.6574 7.95616C58.6356 7.71706 58.8042 7.61925 59.0272 7.49971C59.2012 7.73337 59.4296 7.92355 59.6579 8.10831C59.783 8.18438 59.7504 8.37457 59.7721 8.49955C59.8211 8.69517 59.9081 8.91253 60.0168 9.07555C60.2996 9.65155 60.8271 9.97215 61.0881 10.5427L60.9467 10.5645ZM20.5325 21.4649C22.8979 21.5682 25.4102 22.0192 27.7539 22.117L27.7376 21.9703L20.5596 21.2639L20.5325 21.4649ZM20.1844 23.3342L28.3847 24.459L28.4119 24.3015L20.1681 23.1386L20.1844 23.3342ZM46.0524 28.4802C46.3623 28.3443 46.8137 28.3932 47.053 28.5888L47.2868 28.5291C47.662 27.1869 49.7882 26.3664 47.7164 25.3883C47.1073 24.9264 45.5467 25.0079 45.0246 25.6436C45.2639 26.3881 45.6282 27.8716 46.0524 28.4802ZM45.7207 26.4316C45.7044 26.4913 45.6554 26.5565 45.6174 26.6C45.6228 26.5076 45.5467 26.3772 45.5521 26.2849C45.6989 26.2088 45.824 26.0892 45.9654 26.0077L45.9599 25.9697L46.0034 26.0077C45.8893 26.1327 45.8294 26.3066 45.7207 26.4316ZM46.3569 26.0566C46.4113 25.8882 46.5744 25.736 46.5907 25.5567L46.6288 25.5513C46.6614 25.4969 46.7484 25.4698 46.7756 25.4209C47.3955 25.4263 47.9448 25.8501 48.3526 26.2849L48.358 26.3664C48.1242 26.6489 47.923 26.9587 47.7218 27.2575C47.5532 27.4532 47.2161 27.9694 47.053 28.1922C46.9605 28.2193 46.8518 28.1759 46.7702 28.1378C46.6941 28.0889 46.2318 28.1487 46.1394 28.1541C46.0524 27.8118 45.9382 27.4097 45.7751 27.1054L45.7968 26.9043C46.0252 26.6489 46.1611 26.3338 46.3569 26.0566ZM45.3563 25.9045C45.3509 25.7958 45.3291 25.7958 45.2911 25.6762L46.2862 25.3393L46.3134 25.4046L45.3835 26.0566L45.3563 25.9045ZM49.5598 28.3769C49.4837 27.4912 49.0704 27.0891 48.891 26.5185C48.755 26.6652 47.2487 28.703 47.3031 28.8116C47.6076 29.2029 47.7272 30.1973 47.5478 30.6103L49.2499 31.7188C49.4674 30.795 49.7882 29.5778 49.5598 28.3769ZM49.3477 29.5941C49.2988 30.143 49.2716 30.7516 49.0541 31.2569C48.6571 31.0069 48.2656 30.7461 47.8795 30.4799C47.9448 30.1756 47.9176 29.5072 47.8088 29.2083C47.7708 29.0616 47.6185 28.9366 47.6131 28.7845C47.7164 28.6432 47.8088 28.4856 47.9339 28.3552C47.9883 28.2139 48.1133 28.1052 48.1786 27.9748C48.4124 27.6922 48.6028 27.3771 48.8148 27.0782H48.8529C49.2227 27.8444 49.3804 28.7464 49.3477 29.5941ZM37.0146 29.317C36.5633 28.5182 35.6987 28.2302 34.9265 27.9748L34.3773 31.8057C34.97 31.8003 35.6497 32.5556 35.6062 33.061C36.1663 32.9088 37.3137 32.4469 37.9228 32.3817C37.8575 31.2406 37.4877 30.0832 37.0146 29.317ZM35.1331 28.3552L35.144 28.3063L35.9543 28.6106L35.0407 28.9149L35.1331 28.3552ZM35.0733 29.1159C35.5845 28.8714 36.411 28.5725 36.7101 29.3333C36.6503 29.3931 34.9972 30.1267 34.9211 30.1701C34.8504 30.0723 34.9591 29.192 35.0733 29.1159ZM37.466 32.1861C36.9222 32.3654 36.3349 32.4796 35.8074 32.6915C35.7857 32.4741 35.6062 32.2894 35.4812 32.1209C35.3235 31.8764 34.9863 31.5666 34.6764 31.5884C34.7797 31.2406 34.7742 30.8439 34.8667 30.4962L35.3343 30.4146C35.8781 30.4962 36.5579 30.2734 36.9929 29.9528C37.3844 30.5994 37.4714 31.4417 37.6182 32.1752L37.466 32.1861ZM18.2757 30.6972C19.2763 29.7734 17.9549 28.3334 17.819 27.1815C16.3507 28.2248 15.7199 30.4255 15.7634 32.3165C15.9701 32.1807 17.77 31.621 18.1126 31.5938C18.0908 31.2895 18.1833 30.8928 18.2757 30.6972ZM18.0582 30.4744C17.9495 30.7516 17.8081 31.0667 17.857 31.371C17.2534 31.4906 16.6172 31.6808 16.0353 31.8872C16.1332 30.3549 16.5682 28.8171 17.6232 27.6759L17.6613 27.6705C17.906 28.4313 18.1996 29.1974 18.4117 29.9636C18.2649 30.1158 18.1615 30.2951 18.0582 30.4744ZM18.7216 34.7183C19.2763 32.3383 18.5313 33.5989 18.1343 31.8275C17.4981 31.8438 16.4704 32.3926 15.8178 32.4687C15.8396 34.2836 16.9652 36.1529 18.5204 36.3485C18.4769 35.854 18.6673 35.1857 18.7216 34.7183ZM18.4661 34.3543C18.4062 34.8759 18.2975 35.4084 18.2431 35.9301L18.205 35.9736C16.8347 35.5063 16.2855 34.0065 16.068 32.686C16.677 32.5937 17.2752 32.2894 17.8842 32.2079C17.9875 32.61 18.2268 32.9469 18.5585 33.186L18.6455 33.1805C18.5585 33.5555 18.5422 33.9739 18.4661 34.3543ZM45.1551 30.0343C45.1171 29.5887 45.4433 28.8171 45.7533 28.703C45.7316 27.9857 44.9648 26.5511 44.8343 25.7849C43.6815 26.5348 42.6537 28.9747 42.8114 30.8765C43.0398 30.7298 44.7527 30.2299 45.166 30.1919L45.1551 30.0343ZM44.6984 26.187L44.7854 26.5131L44.1437 26.8608L44.6984 26.187ZM43.3443 28.7573C43.3606 28.6106 43.4748 28.4584 43.464 28.3063C43.6597 28.5128 43.7359 28.8116 43.8446 29.0725C43.6923 29.067 43.4857 29.0127 43.3226 28.9964C43.3117 28.9366 43.3226 28.8171 43.3443 28.7573ZM43.7848 30.2353C43.5673 30.306 43.2954 30.3603 43.0887 30.4527C43.1159 30.344 43.1105 30.1158 43.0942 30.0071C43.3878 30.056 43.7195 30.1267 44.0132 30.1321L44.0186 30.2082L43.7848 30.2353ZM44.9159 29.7626C44.8397 30.2734 43.5292 29.6376 43.1051 29.7354L43.1649 29.2953C43.5129 29.3713 45.0899 29.317 44.9159 29.7626ZM45.1116 29.0399C45.0573 29.0888 45.0355 29.1811 45.0518 29.2518C44.7745 29.2137 44.4537 29.1268 44.1763 29.1648C44.1818 28.9692 44.0893 28.7573 44.0077 28.5834C43.9588 28.4421 43.9099 28.2465 43.7739 28.165L43.6978 27.7303C43.763 27.6759 43.7848 27.5781 43.8392 27.5184C43.8881 27.4423 44.0132 27.4205 44.0621 27.339C44.3286 27.1652 44.6005 26.9858 44.8452 26.7902C44.992 27.0565 45.0518 27.3988 45.1606 27.6814L45.1986 27.6759C45.0953 28.002 45.1497 28.616 45.1878 28.9584L45.1497 28.9638L45.1116 29.0399ZM45.7207 33.2783C45.7751 32.7947 45.9817 32.0448 45.9164 31.5666C45.514 31.5069 45.1878 30.9146 45.1388 30.3875L42.8277 31.0613C43.0017 32.8328 43.7413 34.5444 45.5195 34.8814C45.4977 34.5227 45.6772 33.7022 45.7207 33.2783ZM45.5304 31.7188C45.5304 31.7242 45.6119 31.7514 45.6174 31.7568C45.6554 31.9416 45.5739 32.1752 45.5902 32.36L45.0029 32.4143C44.9974 32.3491 44.9866 32.2024 44.9811 32.1372C45.0627 32.0666 45.0409 31.8981 45.0301 31.8057C45.1986 31.7949 45.3563 31.7623 45.5304 31.7188ZM44.3993 30.9037C44.557 30.8548 44.7799 30.795 44.9376 30.7353C44.9431 31.0178 45.1116 31.2841 45.2856 31.4851C45.1715 31.5069 45.0518 31.5177 44.9322 31.5177C44.9104 31.4688 44.8561 31.3928 44.8289 31.3439C44.7582 31.3221 44.5842 31.3004 44.508 31.2895C44.4863 31.2732 44.4428 31.2352 44.421 31.2189L44.3558 30.9037H44.3993ZM45.4814 32.9632C45.4325 33.4848 45.2693 34.0228 45.2965 34.5444C43.9099 34.088 43.3226 32.5991 43.1214 31.2515C43.415 31.2189 43.725 31.083 44.0077 31.0124L44.0458 30.9689C44.0241 31.3058 44.2796 31.7079 44.6549 31.6373C44.682 31.8003 44.682 32.0068 44.6222 32.1589C44.6494 32.3383 44.7201 32.5828 44.8669 32.6969L45.5358 32.6371L45.5467 32.7567L45.5086 32.8002L45.4814 32.9632ZM46.433 28.7682C45.6609 28.7899 45.1497 31.2026 46.2482 31.2623C47.3249 31.1537 47.5913 28.9312 46.433 28.7682ZM45.8729 30.1321C45.7805 29.7789 46.1231 29.4691 46.2862 29.855C46.3515 30.1158 46.0633 30.2082 45.8729 30.1321ZM46.8626 30.1267C46.8191 30.4038 46.6941 30.7189 46.4548 30.882L46.4602 30.92C46.1829 30.8928 46.0198 30.6483 45.9436 30.4038L45.9871 30.4418C46.6941 30.507 46.8137 29.5289 46.134 29.3876C46.2373 29.2627 46.2427 29.192 46.3841 29.0888L46.5418 29.0725C46.8735 29.2898 46.9116 29.768 46.8626 30.1267ZM33.132 32.8382C33.0232 32.5176 33.6268 32.0394 33.8879 31.8981C34.2305 31.7405 34.0891 31.7568 34.1489 31.3819C34.2522 30.6103 34.622 28.7356 34.622 27.9965C32.7133 28.1976 31.3701 29.7463 30.8753 31.3602C30.8807 31.4688 32.8982 32.8056 33.132 32.8382ZM32.3816 31.947C32.3598 31.9633 32.3 32.0068 32.2674 31.9959C32.0118 31.8438 31.778 31.6427 31.5115 31.5014C32.126 31.4688 32.6915 31.1265 33.2897 31.0287C33.1755 31.1428 33.1157 31.295 33.0069 31.4145C32.822 31.6101 32.6208 31.8057 32.3816 31.947ZM33.8552 31.659C33.567 31.7079 33.0015 32.2242 32.9036 32.4632L32.5393 32.235L32.523 32.1752C32.8927 32.0503 33.306 31.4036 33.48 31.371C33.48 31.1374 33.741 30.7679 33.9803 30.7298L33.8552 31.659ZM32.9308 28.8768C33.2516 28.6378 33.8226 28.3552 34.3283 28.3008C34.5241 29.6593 32.9689 29.5126 31.9683 29.8658C32.0064 29.6376 32.7133 29.0399 32.9308 28.8768ZM31.5061 30.5016C31.8867 29.7897 33.4746 29.6919 34.1869 29.4311L34.0238 30.5233C33.5235 30.6972 31.6203 31.4091 31.1417 31.3384C31.1417 31.1211 31.4136 30.6809 31.5061 30.5016ZM32.5338 35.5715C32.5338 35.3052 33.0396 34.8324 33.0232 34.7292C32.8873 34.2347 32.7514 33.4903 32.9906 33.0555L32.7949 33.0719C32.6372 32.936 30.8046 31.621 30.6632 31.7405C30.1412 33.5066 30.1249 35.816 31.071 37.457C31.3647 37.3484 32.2293 35.6204 32.5338 35.5715ZM30.8807 32.5937L30.9188 32.11L31.0547 32.1481L31.0275 32.6208C31.3973 32.523 31.8976 32.6045 32.1532 32.9197L30.7067 32.686C30.7393 32.5122 30.7448 32.5719 30.8807 32.5937ZM30.6415 32.936L32.5338 33.2131L32.4849 33.6804L30.5925 33.4142L30.6415 32.936ZM32.3435 35.2291C32.2293 35.3432 32.1695 35.4954 32.0607 35.6149C31.9846 35.7073 31.7834 35.9844 31.7453 36.0823C31.5333 36.3268 31.3864 36.6039 31.1798 36.8539L31.1852 36.9354L31.1091 36.9408C30.7448 36.0496 30.5708 34.7183 30.6034 33.7457C31.2233 33.7022 31.8541 33.9793 32.4795 33.9413C32.4849 34.1695 32.5393 34.6097 32.6317 34.8053C32.5393 34.9466 32.4305 35.0824 32.3435 35.2291ZM33.4202 33.9358C33.8335 37.0169 36.4872 32.6969 34.3446 32.2568C33.8009 32.2676 33.3767 33.3653 33.4202 33.9358ZM33.7302 33.4251C34.4208 33.3327 34.2413 34.0989 33.6758 33.8652L33.7302 33.4251ZM34.0075 32.8817C34.0673 32.7295 34.1978 32.5556 34.3773 32.5719C34.7416 32.9034 34.7742 33.6641 34.6274 34.1097C34.4045 34.8161 33.8716 35.0172 33.7247 34.1423L33.8063 34.1804C34.6764 34.2836 34.7307 33.2023 33.9151 33.1316L33.9096 33.0555C33.9477 33.0121 33.9586 32.9251 34.0075 32.8817ZM47.439 30.8765C47.3303 30.9417 46.6723 31.7731 46.1611 31.6645L45.7098 34.9466C47.4934 34.8868 48.7659 33.4631 49.1085 31.8872C48.8311 31.8438 47.6674 30.8222 47.439 30.8765ZM46.4276 32.0014L46.4602 31.9199L46.6941 31.8601L46.7104 32.0177C46.6288 32.072 46.5037 32.1426 46.4058 32.1644L46.4276 32.0014ZM47.5478 31.2243C47.9502 31.496 48.358 31.7677 48.7659 32.0394C48.7278 32.4361 48.4233 32.7675 48.2656 33.1208C47.7653 33.8652 47.004 34.5444 46.0578 34.5934C46.1394 33.9141 46.3188 33.2131 46.3188 32.5339C46.7593 32.4687 47.265 32.1861 46.9986 31.6753C47.2107 31.6047 47.3357 31.3602 47.5152 31.2297L47.5478 31.2243ZM35.7041 33.2783C35.7911 34.088 35.3833 35.0498 34.6383 35.2617L35.6497 38.2939C37.2593 37.2506 37.9119 34.6803 37.901 32.6643L35.7041 33.2783ZM37.6074 33.3707C37.4877 35.0009 36.9222 36.6148 35.8509 37.8374C35.579 37.2234 35.2038 36.0877 35.0516 35.4302C35.3126 35.2074 35.5627 34.952 35.7367 34.6531C35.9271 34.3054 35.9597 33.8924 36.0358 33.5066C36.5579 33.3598 37.0962 33.1805 37.6182 33.0501L37.6074 33.3707ZM33.2027 35.0715C33.0994 35.077 31.2886 37.6472 31.294 37.7559C31.7889 38.5982 32.8057 39.31 33.9096 39.2448C34.3283 39.2502 35.4105 38.9188 35.4377 38.5927C35.4105 38.3047 34.4969 35.6312 34.3773 35.4465C33.4474 35.5334 33.4093 35.0552 33.2027 35.0715ZM34.4697 36.5224C34.709 37.1853 34.8993 37.8809 35.1549 38.5384L35.0733 38.5438C34.535 39.0275 33.5235 39.0383 32.8764 38.7721C32.6154 38.6797 32.3979 38.4949 32.1695 38.3536C31.9901 38.1798 31.816 37.9896 31.6475 37.7994L31.6366 37.6798C31.7617 37.5277 31.8541 37.3538 31.99 37.2125C32.1042 36.9897 32.2891 36.7941 32.4142 36.5767C32.6807 36.2507 32.8819 35.8758 33.1592 35.5552L33.1538 35.4682C33.4963 35.6204 33.8498 35.8323 34.2413 35.7399C34.2576 36.0007 34.399 36.2724 34.4697 36.5224ZM58.5541 8.43434C58.2169 8.54302 58.5486 8.79298 58.7661 8.72234C58.7226 9.06468 59.1631 9.23857 59.4187 9.05925C59.4024 9.27117 59.7123 9.33638 59.7178 9.10272C59.6579 8.43434 58.826 8.43434 58.5541 8.43434ZM59.0924 8.78755C59.087 8.79842 59.087 8.81472 59.0815 8.82559C59.0707 8.82016 59.0489 8.80385 59.0435 8.76582C59.0598 8.77125 59.0761 8.77668 59.0924 8.77668C59.0978 8.78212 59.0924 8.78212 59.0924 8.78755Z" fill="#5080C1"/>
<path d="M94.457 10.2134H90.7598V13.2368H95.0547V14.1567H89.6348V5.62549H94.9961V6.55127H90.7598V9.29346H94.457V10.2134Z" fill="white"/>
<path d="M96.2324 13.272L96.6074 12.8091C97.0293 12.2622 97.2695 11.4419 97.3281 10.3481L97.4277 7.81689H101.512V13.272H102.326V16.02H101.242V14.1567H96.8184V16.02H95.7344L95.7402 13.272H96.2324ZM97.5156 13.272H100.428V8.81885H98.4766L98.4121 10.3306C98.3457 11.5923 98.0469 12.5728 97.5156 13.272Z" fill="white"/>
<path d="M107.629 7.81689H108.713V14.1567H107.629V9.53369L104.705 14.1567H103.621V7.81689H104.705V12.4458L107.629 7.81689Z" fill="white"/>
<path d="M115.633 14.1567H114.549V11.4497H111.637V14.1567H110.547V7.81689H111.637V10.5649H114.549V7.81689H115.633V14.1567Z" fill="white"/>
<path d="M121.293 14.1567C121.23 14.0317 121.18 13.8091 121.141 13.4888C120.637 14.0122 120.035 14.2739 119.336 14.2739C118.711 14.2739 118.197 14.0981 117.795 13.7466C117.396 13.3911 117.197 12.9419 117.197 12.3989C117.197 11.7388 117.447 11.2271 117.947 10.8638C118.451 10.4966 119.158 10.313 120.068 10.313H121.123V9.81494C121.123 9.43604 121.01 9.13525 120.783 8.9126C120.557 8.68604 120.223 8.57275 119.781 8.57275C119.395 8.57275 119.07 8.67041 118.809 8.86572C118.547 9.06104 118.416 9.29736 118.416 9.57471H117.326C117.326 9.2583 117.438 8.95361 117.66 8.66064C117.887 8.36377 118.191 8.12939 118.574 7.95752C118.961 7.78564 119.385 7.69971 119.846 7.69971C120.576 7.69971 121.148 7.8833 121.562 8.25049C121.977 8.61377 122.191 9.11572 122.207 9.75635V12.6743C122.207 13.2563 122.281 13.7192 122.43 14.063V14.1567H121.293ZM119.494 13.3306C119.834 13.3306 120.156 13.2427 120.461 13.0669C120.766 12.8911 120.986 12.6626 121.123 12.3813V11.0806H120.273C118.945 11.0806 118.281 11.4692 118.281 12.2466C118.281 12.5864 118.395 12.8521 118.621 13.0435C118.848 13.2349 119.139 13.3306 119.494 13.3306Z" fill="white"/>
<path d="M128.752 7.81689V14.1567H127.662V11.6899H126.027L124.533 14.1567H123.361L124.955 11.5259C124.549 11.3774 124.236 11.1489 124.018 10.8403C123.803 10.5278 123.695 10.1646 123.695 9.75049C123.695 9.17236 123.912 8.70752 124.346 8.35596C124.779 8.00049 125.359 7.8208 126.086 7.81689H128.752ZM124.785 9.76221C124.785 10.0708 124.891 10.3208 125.102 10.5122C125.312 10.6997 125.592 10.7954 125.939 10.7993H127.662V8.6958H126.104C125.701 8.6958 125.381 8.79541 125.143 8.99463C124.904 9.18994 124.785 9.4458 124.785 9.76221Z" fill="white"/>
<path d="M136.012 13.3892C136.398 13.3892 136.736 13.272 137.025 13.0376C137.314 12.8032 137.475 12.5103 137.506 12.1587H138.531C138.512 12.522 138.387 12.8677 138.156 13.1958C137.926 13.5239 137.617 13.7856 137.23 13.981C136.848 14.1763 136.441 14.2739 136.012 14.2739C135.148 14.2739 134.461 13.9868 133.949 13.4126C133.441 12.8345 133.188 12.0454 133.188 11.0454V10.8638C133.188 10.2466 133.301 9.69775 133.527 9.21729C133.754 8.73682 134.078 8.36377 134.5 8.09814C134.926 7.83252 135.428 7.69971 136.006 7.69971C136.717 7.69971 137.307 7.9126 137.775 8.33838C138.248 8.76416 138.5 9.31689 138.531 9.99658H137.506C137.475 9.58643 137.318 9.25049 137.037 8.98877C136.76 8.72314 136.416 8.59033 136.006 8.59033C135.455 8.59033 135.027 8.78955 134.723 9.18799C134.422 9.58252 134.271 10.1548 134.271 10.9048V11.1099C134.271 11.8403 134.422 12.4028 134.723 12.7974C135.023 13.1919 135.453 13.3892 136.012 13.3892Z" fill="white"/>
<path d="M144.947 7.81689V14.1567H143.857V8.71338H141.701L141.572 11.0864C141.502 12.1763 141.318 12.9556 141.021 13.4243C140.729 13.8931 140.262 14.1372 139.621 14.1567H139.188V13.2017L139.498 13.1782C139.85 13.1392 140.102 12.936 140.254 12.5688C140.406 12.2017 140.504 11.522 140.547 10.5298L140.664 7.81689H144.947Z" fill="white"/>
<path d="M148.762 12.5688L150.238 7.81689H151.398L148.85 15.1353C148.455 16.1899 147.828 16.7173 146.969 16.7173L146.764 16.6997L146.359 16.6235V15.7446L146.652 15.7681C147.02 15.7681 147.305 15.6938 147.508 15.5454C147.715 15.397 147.885 15.1255 148.018 14.731L148.258 14.0864L145.996 7.81689H147.18L148.762 12.5688Z" fill="white"/>
<path d="M157.428 11.4028H156.666V14.1567H155.582V11.4028H154.82L153.045 14.1567H151.674L153.941 10.8755L151.891 7.81689H153.203L154.838 10.4419H155.582V7.81689H156.666V10.4419H157.404L159.051 7.81689H160.363L158.307 10.8813L160.574 14.1567H159.203L157.428 11.4028Z" fill="white"/>
<path d="M164.342 8.18018C165.139 8.18018 165.775 8.44775 166.252 8.98291C166.732 9.51416 166.973 10.2153 166.973 11.0864V11.186C166.973 11.7837 166.857 12.3188 166.627 12.7915C166.396 13.2603 166.064 13.6255 165.631 13.8872C165.201 14.145 164.705 14.2739 164.143 14.2739C163.291 14.2739 162.605 13.9907 162.086 13.4243C161.566 12.854 161.307 12.0903 161.307 11.1333V10.606C161.307 9.27393 161.553 8.21533 162.045 7.43018C162.541 6.64502 163.271 6.1665 164.236 5.99463C164.783 5.89697 165.152 5.77783 165.344 5.63721C165.535 5.49658 165.631 5.30322 165.631 5.05713H166.521C166.521 5.54541 166.41 5.92627 166.188 6.19971C165.969 6.47314 165.617 6.6665 165.133 6.77979L164.324 6.96143C163.68 7.11377 163.195 7.37158 162.871 7.73486C162.551 8.09424 162.342 8.57471 162.244 9.17627C162.818 8.51221 163.518 8.18018 164.342 8.18018ZM164.131 9.0708C163.6 9.0708 163.178 9.25049 162.865 9.60986C162.553 9.96533 162.396 10.4595 162.396 11.0923V11.186C162.396 11.8657 162.553 12.4048 162.865 12.8032C163.182 13.1978 163.607 13.395 164.143 13.395C164.682 13.395 165.107 13.1958 165.42 12.7974C165.732 12.3989 165.889 11.8169 165.889 11.0513C165.889 10.4536 165.73 9.9751 165.414 9.61572C165.102 9.25244 164.674 9.0708 164.131 9.0708Z" fill="white"/>
<path d="M172.105 14.1567C172.043 14.0317 171.992 13.8091 171.953 13.4888C171.449 14.0122 170.848 14.2739 170.148 14.2739C169.523 14.2739 169.01 14.0981 168.607 13.7466C168.209 13.3911 168.01 12.9419 168.01 12.3989C168.01 11.7388 168.26 11.2271 168.76 10.8638C169.264 10.4966 169.971 10.313 170.881 10.313H171.936V9.81494C171.936 9.43604 171.822 9.13525 171.596 8.9126C171.369 8.68604 171.035 8.57275 170.594 8.57275C170.207 8.57275 169.883 8.67041 169.621 8.86572C169.359 9.06104 169.229 9.29736 169.229 9.57471H168.139C168.139 9.2583 168.25 8.95361 168.473 8.66064C168.699 8.36377 169.004 8.12939 169.387 7.95752C169.773 7.78564 170.197 7.69971 170.658 7.69971C171.389 7.69971 171.961 7.8833 172.375 8.25049C172.789 8.61377 173.004 9.11572 173.02 9.75635V12.6743C173.02 13.2563 173.094 13.7192 173.242 14.063V14.1567H172.105ZM170.307 13.3306C170.646 13.3306 170.969 13.2427 171.273 13.0669C171.578 12.8911 171.799 12.6626 171.936 12.3813V11.0806H171.086C169.758 11.0806 169.094 11.4692 169.094 12.2466C169.094 12.5864 169.207 12.8521 169.434 13.0435C169.66 13.2349 169.951 13.3306 170.307 13.3306Z" fill="white"/>
<path d="M89.4121 27.272L89.7871 26.8091C90.209 26.2622 90.4492 25.4419 90.5078 24.3481L90.6074 21.8169H94.6914V27.272H95.5059V30.02H94.4219V28.1567H89.998V30.02H88.9141L88.9199 27.272H89.4121ZM90.6953 27.272H93.6074V22.8188H91.6562L91.5918 24.3306C91.5254 25.5923 91.2266 26.5728 90.6953 27.272Z" fill="white"/>
<path d="M96.4199 24.9282C96.4199 24.3071 96.541 23.7485 96.7832 23.2524C97.0293 22.7563 97.3691 22.3735 97.8027 22.104C98.2402 21.8345 98.7383 21.6997 99.2969 21.6997C100.16 21.6997 100.857 21.9985 101.389 22.5962C101.924 23.1938 102.191 23.9888 102.191 24.981V25.0571C102.191 25.6743 102.072 26.229 101.834 26.7212C101.6 27.2095 101.262 27.5903 100.82 27.8638C100.383 28.1372 99.8789 28.2739 99.3086 28.2739C98.4492 28.2739 97.752 27.9751 97.2168 27.3774C96.6855 26.7798 96.4199 25.9888 96.4199 25.0044V24.9282ZM97.5098 25.0571C97.5098 25.7603 97.6719 26.3247 97.9961 26.7505C98.3242 27.1763 98.7617 27.3892 99.3086 27.3892C99.8594 27.3892 100.297 27.1743 100.621 26.7446C100.945 26.311 101.107 25.7056 101.107 24.9282C101.107 24.2329 100.941 23.6704 100.609 23.2407C100.281 22.8071 99.8438 22.5903 99.2969 22.5903C98.7617 22.5903 98.3301 22.8032 98.002 23.229C97.6738 23.6548 97.5098 24.2642 97.5098 25.0571Z" fill="white"/>
<path d="M106.094 27.3892C106.48 27.3892 106.818 27.272 107.107 27.0376C107.396 26.8032 107.557 26.5103 107.588 26.1587H108.613C108.594 26.522 108.469 26.8677 108.238 27.1958C108.008 27.5239 107.699 27.7856 107.312 27.981C106.93 28.1763 106.523 28.2739 106.094 28.2739C105.23 28.2739 104.543 27.9868 104.031 27.4126C103.523 26.8345 103.27 26.0454 103.27 25.0454V24.8638C103.27 24.2466 103.383 23.6978 103.609 23.2173C103.836 22.7368 104.16 22.3638 104.582 22.0981C105.008 21.8325 105.51 21.6997 106.088 21.6997C106.799 21.6997 107.389 21.9126 107.857 22.3384C108.33 22.7642 108.582 23.3169 108.613 23.9966H107.588C107.557 23.5864 107.4 23.2505 107.119 22.9888C106.842 22.7231 106.498 22.5903 106.088 22.5903C105.537 22.5903 105.109 22.7896 104.805 23.188C104.504 23.5825 104.354 24.1548 104.354 24.9048V25.1099C104.354 25.8403 104.504 26.4028 104.805 26.7974C105.105 27.1919 105.535 27.3892 106.094 27.3892Z" fill="white"/>
<path d="M114.543 22.6958H112.416V28.1567H111.332V22.6958H109.246V21.8169H114.543V22.6958Z" fill="white"/>
<path d="M119.418 28.1567C119.355 28.0317 119.305 27.8091 119.266 27.4888C118.762 28.0122 118.16 28.2739 117.461 28.2739C116.836 28.2739 116.322 28.0981 115.92 27.7466C115.521 27.3911 115.322 26.9419 115.322 26.3989C115.322 25.7388 115.572 25.2271 116.072 24.8638C116.576 24.4966 117.283 24.313 118.193 24.313H119.248V23.8149C119.248 23.436 119.135 23.1353 118.908 22.9126C118.682 22.686 118.348 22.5728 117.906 22.5728C117.52 22.5728 117.195 22.6704 116.934 22.8657C116.672 23.061 116.541 23.2974 116.541 23.5747H115.451C115.451 23.2583 115.562 22.9536 115.785 22.6606C116.012 22.3638 116.316 22.1294 116.699 21.9575C117.086 21.7856 117.51 21.6997 117.971 21.6997C118.701 21.6997 119.273 21.8833 119.688 22.2505C120.102 22.6138 120.316 23.1157 120.332 23.7563V26.6743C120.332 27.2563 120.406 27.7192 120.555 28.063V28.1567H119.418ZM117.619 27.3306C117.959 27.3306 118.281 27.2427 118.586 27.0669C118.891 26.8911 119.111 26.6626 119.248 26.3813V25.0806H118.398C117.07 25.0806 116.406 25.4692 116.406 26.2466C116.406 26.5864 116.52 26.8521 116.746 27.0435C116.973 27.2349 117.264 27.3306 117.619 27.3306Z" fill="white"/>
<path d="M122.131 28.1567V21.8169H124.604C125.447 21.8169 126.094 21.9653 126.543 22.2622C126.996 22.5552 127.223 22.9868 127.223 23.5571C127.223 23.8501 127.135 24.1157 126.959 24.354C126.783 24.5884 126.523 24.7681 126.18 24.8931C126.562 24.9829 126.869 25.1587 127.1 25.4204C127.334 25.6821 127.451 25.9946 127.451 26.3579C127.451 26.9399 127.236 27.3853 126.807 27.6938C126.381 28.0024 125.777 28.1567 124.996 28.1567H122.131ZM123.215 25.3735V27.2837H125.008C125.461 27.2837 125.799 27.1997 126.021 27.0317C126.248 26.8638 126.361 26.6274 126.361 26.3228C126.361 25.6899 125.896 25.3735 124.967 25.3735H123.215ZM123.215 24.5063H124.615C125.631 24.5063 126.139 24.2095 126.139 23.6157C126.139 23.022 125.658 22.7153 124.697 22.6958H123.215V24.5063Z" fill="white"/>
<path d="M130.861 25.4556H130.07V28.1567H128.98V21.8169H130.07V24.5005H130.779L132.912 21.8169H134.225L131.717 24.8638L134.436 28.1567H133.059L130.861 25.4556Z" fill="white"/>
<path d="M139.469 21.8169H140.553V28.1567H139.469V23.5337L136.545 28.1567H135.461V21.8169H136.545V26.4458L139.469 21.8169Z" fill="white"/>
<path d="M94.6504 42.1567H93.5664V36.7134H90.6484V42.1567H89.5586V35.8169H94.6504V42.1567Z" fill="white"/>
<path d="M100.492 35.8169H101.576V42.1567H100.492V37.5337L97.5684 42.1567H96.4844V35.8169H97.5684V40.4458L100.492 35.8169Z" fill="white"/>
<path d="M108.027 36.6958H105.9V42.1567H104.816V36.6958H102.73V35.8169H108.027V36.6958Z" fill="white"/>
<path d="M110.266 38.0024H111.912C112.631 38.0103 113.199 38.1978 113.617 38.5649C114.035 38.9321 114.244 39.4302 114.244 40.0591C114.244 40.6919 114.029 41.1997 113.6 41.5825C113.17 41.9653 112.592 42.1567 111.865 42.1567H109.182V35.8169H110.266V38.0024ZM110.266 38.8872V41.272H111.877C112.283 41.272 112.598 41.1685 112.82 40.9614C113.043 40.7505 113.154 40.4634 113.154 40.1001C113.154 39.7485 113.045 39.4614 112.826 39.2388C112.611 39.0122 112.309 38.895 111.918 38.8872H110.266Z" fill="white"/>
<path d="M118.229 42.2739C117.369 42.2739 116.67 41.9927 116.131 41.4302C115.592 40.8638 115.322 40.1079 115.322 39.1626V38.9634C115.322 38.3345 115.441 37.7739 115.68 37.2817C115.922 36.7856 116.258 36.3989 116.688 36.1216C117.121 35.8403 117.59 35.6997 118.094 35.6997C118.918 35.6997 119.559 35.9712 120.016 36.5142C120.473 37.0571 120.701 37.8345 120.701 38.8462V39.2974H116.406C116.422 39.9224 116.604 40.4282 116.951 40.8149C117.303 41.1978 117.748 41.3892 118.287 41.3892C118.67 41.3892 118.994 41.311 119.26 41.1548C119.525 40.9985 119.758 40.7915 119.957 40.5337L120.619 41.0493C120.088 41.8657 119.291 42.2739 118.229 42.2739ZM118.094 36.5903C117.656 36.5903 117.289 36.7505 116.992 37.0708C116.695 37.3872 116.512 37.8325 116.441 38.4067H119.617V38.3247C119.586 37.7739 119.438 37.3481 119.172 37.0474C118.906 36.7427 118.547 36.5903 118.094 36.5903Z" fill="white"/>
<path d="M122.061 42.1567V35.8169H124.533C125.377 35.8169 126.023 35.9653 126.473 36.2622C126.926 36.5552 127.152 36.9868 127.152 37.5571C127.152 37.8501 127.064 38.1157 126.889 38.354C126.713 38.5884 126.453 38.7681 126.109 38.8931C126.492 38.9829 126.799 39.1587 127.029 39.4204C127.264 39.6821 127.381 39.9946 127.381 40.3579C127.381 40.9399 127.166 41.3853 126.736 41.6938C126.311 42.0024 125.707 42.1567 124.926 42.1567H122.061ZM123.145 39.3735V41.2837H124.938C125.391 41.2837 125.729 41.1997 125.951 41.0317C126.178 40.8638 126.291 40.6274 126.291 40.3228C126.291 39.6899 125.826 39.3735 124.896 39.3735H123.145ZM123.145 38.5063H124.545C125.561 38.5063 126.068 38.2095 126.068 37.6157C126.068 37.022 125.588 36.7153 124.627 36.6958H123.145V38.5063Z" fill="white"/>
<path d="M128.529 38.9282C128.529 38.3071 128.65 37.7485 128.893 37.2524C129.139 36.7563 129.479 36.3735 129.912 36.104C130.35 35.8345 130.848 35.6997 131.406 35.6997C132.27 35.6997 132.967 35.9985 133.498 36.5962C134.033 37.1938 134.301 37.9888 134.301 38.981V39.0571C134.301 39.6743 134.182 40.229 133.943 40.7212C133.709 41.2095 133.371 41.5903 132.93 41.8638C132.492 42.1372 131.988 42.2739 131.418 42.2739C130.559 42.2739 129.861 41.9751 129.326 41.3774C128.795 40.7798 128.529 39.9888 128.529 39.0044V38.9282ZM129.619 39.0571C129.619 39.7603 129.781 40.3247 130.105 40.7505C130.434 41.1763 130.871 41.3892 131.418 41.3892C131.969 41.3892 132.406 41.1743 132.73 40.7446C133.055 40.311 133.217 39.7056 133.217 38.9282C133.217 38.2329 133.051 37.6704 132.719 37.2407C132.391 36.8071 131.953 36.5903 131.406 36.5903C130.871 36.5903 130.439 36.8032 130.111 37.229C129.783 37.6548 129.619 38.2642 129.619 39.0571Z" fill="white"/>
<path d="M139.762 35.8169H140.846V42.1567H139.762V37.5337L136.838 42.1567H135.754V35.8169H136.838V40.4458L139.762 35.8169ZM140.055 33.5083C140.055 33.981 139.893 34.3618 139.568 34.6509C139.248 34.936 138.826 35.0786 138.303 35.0786C137.779 35.0786 137.355 34.9341 137.031 34.645C136.707 34.356 136.545 33.9771 136.545 33.5083H137.43C137.43 33.7817 137.504 33.9966 137.652 34.1528C137.801 34.3052 138.018 34.3813 138.303 34.3813C138.576 34.3813 138.789 34.3052 138.941 34.1528C139.098 34.0005 139.176 33.7856 139.176 33.5083H140.055Z" fill="white"/>
<path d="M145.662 42.1567V35.8169H148.135C148.979 35.8169 149.625 35.9653 150.074 36.2622C150.527 36.5552 150.754 36.9868 150.754 37.5571C150.754 37.8501 150.666 38.1157 150.49 38.354C150.314 38.5884 150.055 38.7681 149.711 38.8931C150.094 38.9829 150.4 39.1587 150.631 39.4204C150.865 39.6821 150.982 39.9946 150.982 40.3579C150.982 40.9399 150.768 41.3853 150.338 41.6938C149.912 42.0024 149.309 42.1567 148.527 42.1567H145.662ZM146.746 39.3735V41.2837H148.539C148.992 41.2837 149.33 41.1997 149.553 41.0317C149.779 40.8638 149.893 40.6274 149.893 40.3228C149.893 39.6899 149.428 39.3735 148.498 39.3735H146.746ZM146.746 38.5063H148.146C149.162 38.5063 149.67 38.2095 149.67 37.6157C149.67 37.022 149.189 36.7153 148.229 36.6958H146.746V38.5063Z" fill="white"/>
<path d="M152.131 38.9282C152.131 38.3071 152.252 37.7485 152.494 37.2524C152.74 36.7563 153.08 36.3735 153.514 36.104C153.951 35.8345 154.449 35.6997 155.008 35.6997C155.871 35.6997 156.568 35.9985 157.1 36.5962C157.635 37.1938 157.902 37.9888 157.902 38.981V39.0571C157.902 39.6743 157.783 40.229 157.545 40.7212C157.311 41.2095 156.973 41.5903 156.531 41.8638C156.094 42.1372 155.59 42.2739 155.02 42.2739C154.16 42.2739 153.463 41.9751 152.928 41.3774C152.396 40.7798 152.131 39.9888 152.131 39.0044V38.9282ZM153.221 39.0571C153.221 39.7603 153.383 40.3247 153.707 40.7505C154.035 41.1763 154.473 41.3892 155.02 41.3892C155.57 41.3892 156.008 41.1743 156.332 40.7446C156.656 40.311 156.818 39.7056 156.818 38.9282C156.818 38.2329 156.652 37.6704 156.32 37.2407C155.992 36.8071 155.555 36.5903 155.008 36.5903C154.473 36.5903 154.041 36.8032 153.713 37.229C153.385 37.6548 153.221 38.2642 153.221 39.0571Z" fill="white"/>
<path d="M158.787 41.272L159.162 40.8091C159.584 40.2622 159.824 39.4419 159.883 38.3481L159.982 35.8169H164.066V41.272H164.881V44.02H163.797V42.1567H159.373V44.02H158.289L158.295 41.272H158.787ZM160.07 41.272H162.982V36.8188H161.031L160.967 38.3306C160.9 39.5923 160.602 40.5728 160.07 41.272Z" fill="white"/>
<path d="M167.266 38.0024H168.912C169.631 38.0103 170.199 38.1978 170.617 38.5649C171.035 38.9321 171.244 39.4302 171.244 40.0591C171.244 40.6919 171.029 41.1997 170.6 41.5825C170.17 41.9653 169.592 42.1567 168.865 42.1567H166.182V35.8169H167.266V38.0024ZM173.506 42.1567H172.416V35.8169H173.506V42.1567ZM167.266 38.8872V41.272H168.877C169.283 41.272 169.598 41.1685 169.82 40.9614C170.043 40.7505 170.154 40.4634 170.154 40.1001C170.154 39.7485 170.045 39.4614 169.826 39.2388C169.611 39.0122 169.309 38.895 168.918 38.8872H167.266Z" fill="white"/>
<defs>
<linearGradient id="paint0_linear" x1="51.6113" y1="-2.36858" x2="1.61929" y2="30.7826" gradientUnits="userSpaceOnUse">
<stop stop-color="#FFEBA9"/>
<stop offset="0.5" stop-color="#FECC00"/>
<stop offset="1" stop-color="#F8AE00"/>
</linearGradient>
<radialGradient id="paint1_radial" cx="0" cy="0" r="1" gradientUnits="userSpaceOnUse" gradientTransform="translate(81.3587 42.7709) rotate(9.11299) scale(60.2649 54.9842)">
<stop offset="0.2583" stop-color="#638EC8"/>
<stop offset="1" stop-color="white"/>
</radialGradient>
</defs>
</svg>
