<svg width="62" height="66" viewBox="0 0 62 66" fill="none" xmlns="http://www.w3.org/2000/svg">
<path d="M55.8599 45.3153L47.1064 44.266C45.0041 44.0127 42.9364 44.7726 41.4545 46.3285L35.1133 52.9863C25.3604 47.7758 17.365 39.4173 12.4024 29.141L18.778 22.4469C20.2599 20.891 20.9836 18.72 20.7424 16.5127L19.7429 7.39434C19.3294 3.73974 16.4 0.989746 12.8848 0.989746H6.92279C3.0285 0.989746 -0.211001 4.39105 0.0302379 8.47986C1.85676 39.3811 25.3948 64.0587 54.7916 65.9765C58.6858 66.2297 61.9253 62.8284 61.9253 58.7396V52.4798C61.9598 48.8252 59.3406 45.7495 55.8599 45.3153Z" fill="white"/>
</svg>
