<svg version="1.1" id="Слой_1" xmlns="http://www.w3.org/2000/svg" x="0" y="0" viewBox="0 0 512 512" xml:space="preserve"><style>.st0{fill:#3a3f4c}</style><path class="st0" d="M68.5 307h132.7L182 358.2h-19.7v17.1H350v-17.1h-19.7L311.1 307h132.7c18.8 0 34.1-15.3 34.1-34.1V34.1c0-18.8-15.3-34.1-34.1-34.1H68.5C49.7 0 34.4 15.3 34.4 34.1v238.8c0 18.9 15.3 34.1 34.1 34.1zm243.6 51.2H200.2l19.2-51.2h73.5l19.2 51.2zm148.8-85.3c0 9.4-7.6 17.1-17.1 17.1H68.5c-9.4 0-17.1-7.6-17.1-17.1v-17.1h409.4l.1 17.1zM51.5 34.1c0-9.4 7.6-17.1 17.1-17.1h375.3c9.4 0 17.1 7.6 17.1 17.1v204.7H51.5V34.1zm25.6 358.2c-4.7 0-8.5 3.8-8.5 8.5v102.3c0 4.7 3.8 8.5 8.5 8.5h238.8c4.7 0 8.5-3.8 8.5-8.5V400.9c0-4.7-3.8-8.5-8.5-8.5H77.1v-.1zm230.2 102.4H85.6v-85.3h221.8v85.3h-.1z"/><path class="st0" d="M102.7 460.6h17.1v17.1h-17.1v-17.1zm170.5 0h17.1v17.1h-17.1v-17.1zm-170.5-34.1h17.1v17.1h-17.1v-17.1zm34.1 0h17.1v17.1h-17.1v-17.1zm34.1 0H188v17.1h-17.1v-17.1zm34.1 0h17.1v17.1H205v-17.1zm34.1 0h17.1v17.1h-17.1v-17.1zm34.1 0h17.1v17.1h-17.1v-17.1zm-136.4 34.1h119.4v17.1H136.8v-17.1zM358.5 435v34.1c0 23.6 19.1 42.6 42.6 42.6s42.6-19.1 42.6-42.6V435c0-23.6-19.1-42.6-42.6-42.6s-42.6 19-42.6 42.6zm68.3 0v34.1c0 14.1-11.5 25.6-25.6 25.6s-25.6-11.5-25.6-25.6V435c0-10.8 6.9-20.4 17.1-24v24h17.1v-24c10.1 3.6 16.9 13.2 17 24z"/><path d="M304.9 99.8l-85.3 85.3-12.1-12.1 85.3-85.3 12.1 12.1zm-42.7-8.5L211 142.5l-12-12.1 51.2-51.2 12 12.1zm51.2 51.2l-51.2 51.2-12.1-12.1 51.2-51.2 12.1 12.1z" fill="#3970c2"/></svg>