<svg version="1.1" id="Слой_1" xmlns="http://www.w3.org/2000/svg" x="0" y="0" viewBox="0 0 512 512" xml:space="preserve"><style>.st0{fill:#3a3f4c}</style><path class="st0" d="M503.2 34.4H435V.3h-17.1v34.1h-68.2V.3h-17.1v34.1h-68.2V.3h-17.1v34.1h-68.2V.3H162v34.1H93.8V.3h-17v34.1H8.5c-4.7 0-8.5 3.8-8.5 8.5v460.6c0 4.7 3.8 8.5 8.5 8.5h494.7c4.7 0 8.5-3.8 8.5-8.5V42.9c0-4.7-3.8-8.5-8.5-8.5zm-8.5 307h-76.8c-4.7 0-8.5 3.8-8.5 8.5v76.8H17.1v-290h477.6v204.7zm-12.1 17.1l-56.2 56.2v-56.2h56.2zM17.1 443.8H418c2.3 0 4.4-.9 6-2.5l70.7-70.7v90.3H17.1v-17.1zm0-392.4h59.7v34.1h17.1V51.4h68.2v34.1h17.1V51.4h68.2v34.1h17.1V51.4h68.2v34.1h17.1V51.4H418v34.1h17V51.4h59.7v68.2H17.1V51.4zm477.6 443.5H17.1v-17.1h477.6v17.1z"/><path class="st0" d="M230.3 222h51.2c4.7 0 8.5-3.8 8.5-8.5v-51.2c0-4.7-3.8-8.5-8.5-8.5h-51.2c-4.7 0-8.5 3.8-8.5 8.5v51.2c0 4.7 3.8 8.5 8.5 8.5zm8.5-51.2h34.1V205h-34.1v-34.2zm76.8 51.2h51.2c4.7 0 8.5-3.8 8.5-8.5v-51.2c0-4.7-3.8-8.5-8.5-8.5h-51.2c-4.7 0-8.5 3.8-8.5 8.5v51.2c-.1 4.7 3.8 8.5 8.5 8.5zm8.5-51.2h34.1V205h-34.1v-34.2zm76.8 51.2H452c4.7 0 8.5-3.8 8.5-8.5v-51.2c0-4.7-3.8-8.5-8.5-8.5h-51.2c-4.7 0-8.5 3.8-8.5 8.5v51.2c0 4.7 3.9 8.5 8.6 8.5zm8.5-51.2h34.1V205h-34.1v-34.2zm-93.8 221.8h51.2c4.7 0 8.5-3.8 8.5-8.5v-51.2c0-4.7-3.8-8.5-8.5-8.5h-51.2c-4.7 0-8.5 3.8-8.5 8.5v51.2c-.1 4.7 3.8 8.5 8.5 8.5zm8.5-51.2h34.1v34.1h-34.1v-34.1zM145 222h51.2c4.7 0 8.5-3.8 8.5-8.5v-51.2c0-4.7-3.8-8.5-8.5-8.5H145c-4.7 0-8.5 3.8-8.5 8.5v51.2c0 4.7 3.8 8.5 8.5 8.5zm8.5-51.2h34.1V205h-34.1v-34.2z"/><path d="M230.3 307.3h51.2c4.7 0 8.5-3.8 8.5-8.5v-51.2c0-4.7-3.8-8.5-8.5-8.5h-51.2c-4.7 0-8.5 3.8-8.5 8.5v51.2c0 4.7 3.8 8.5 8.5 8.5zm8.5-51.2h34.1v34.1h-34.1v-34.1z" fill="#3970c2"/><path class="st0" d="M315.6 307.3h51.2c4.7 0 8.5-3.8 8.5-8.5v-51.2c0-4.7-3.8-8.5-8.5-8.5h-51.2c-4.7 0-8.5 3.8-8.5 8.5v51.2c-.1 4.7 3.8 8.5 8.5 8.5zm8.5-51.2h34.1v34.1h-34.1v-34.1zm76.8 51.2H452c4.7 0 8.5-3.8 8.5-8.5v-51.2c0-4.7-3.8-8.5-8.5-8.5h-51.2c-4.7 0-8.5 3.8-8.5 8.5v51.2c0 4.7 3.9 8.5 8.6 8.5zm8.5-51.2h34.1v34.1h-34.1v-34.1zM59.7 307.3h51.2c4.7 0 8.5-3.8 8.5-8.5v-51.2c0-4.7-3.8-8.5-8.5-8.5H59.7c-4.7 0-8.5 3.8-8.5 8.5v51.2c0 4.7 3.8 8.5 8.5 8.5zm8.5-51.2h34.1v34.1H68.2v-34.1zm76.8 51.2h51.2c4.7 0 8.5-3.8 8.5-8.5v-51.2c0-4.7-3.8-8.5-8.5-8.5H145c-4.7 0-8.5 3.8-8.5 8.5v51.2c0 4.7 3.8 8.5 8.5 8.5zm8.5-51.2h34.1v34.1h-34.1v-34.1zm76.8 136.5h51.2c4.7 0 8.5-3.8 8.5-8.5v-51.2c0-4.7-3.8-8.5-8.5-8.5h-51.2c-4.7 0-8.5 3.8-8.5 8.5v51.2c0 4.7 3.8 8.5 8.5 8.5zm8.5-51.2h34.1v34.1h-34.1v-34.1zM59.7 392.6h51.2c4.7 0 8.5-3.8 8.5-8.5v-51.2c0-4.7-3.8-8.5-8.5-8.5H59.7c-4.7 0-8.5 3.8-8.5 8.5v51.2c0 4.7 3.8 8.5 8.5 8.5zm8.5-51.2h34.1v34.1H68.2v-34.1zm76.8 51.2h51.2c4.7 0 8.5-3.8 8.5-8.5v-51.2c0-4.7-3.8-8.5-8.5-8.5H145c-4.7 0-8.5 3.8-8.5 8.5v51.2c0 4.7 3.8 8.5 8.5 8.5zm8.5-51.2h34.1v34.1h-34.1v-34.1z"/></svg>