<svg version="1.1" id="Слой_1" xmlns="http://www.w3.org/2000/svg" x="0" y="0" viewBox="0 0 512 512" xml:space="preserve"><style>.st0{fill:#3a3f4c}</style><path class="st0" d="M59.6 59.7v443.5c0 4.7 3.8 8.5 8.5 8.5h324.1c4.7 0 8.5-3.8 8.5-8.5V145c0-.2-.1-.4-.1-.5 0-.7-.2-1.5-.4-2.2-.1-.3-.2-.5-.3-.8-.4-.9-1-1.8-1.7-2.5l-85.3-85.3c-.7-.7-1.6-1.3-2.5-1.7-.3-.1-.5-.2-.8-.3-.7-.2-1.5-.4-2.2-.4-.1 0-.3-.1-.5-.1H68.1c-4.7 0-8.5 3.8-8.5 8.5zm312 76.8h-56.2V80.3l56.2 56.2zm-295-68.3h221.8V145c0 4.7 3.8 8.5 8.5 8.5h76.8v341.2h-307V68.2h-.1z"/><path class="st0" d="M417.8 443.5v17.1h25.6c4.7 0 8.5-3.8 8.5-8.5V8.5c0-4.7-3.8-8.5-8.5-8.5H119.3c-4.7 0-8.5 3.8-8.5 8.5v25.6h17.1v-17h307v426.5h-17.1v-.1z"/><path d="M127.8 170.6h204.7v17.1H127.8v-17.1zm0-51.2H196v17.1h-68.2v-17.1z" fill="#3970c2"/><path class="st0" d="M127.8 221.8h136.5v17.1H127.8v-17.1zm153.5 0h51.2v17.1h-51.2v-17.1zm-153.5 51.1h204.7V290H127.8v-17.1zm0 102.4h204.7v17.1H127.8v-17.1zm76.8-51.2h127.9v17.1H204.6v-17.1zm-76.8 0h59.7v17.1h-59.7v-17.1zm0 102.4h34.1v17.1h-34.1v-17.1zm51.2 0h153.5v17.1H179v-17.1z"/></svg>