<svg xmlns="http://www.w3.org/2000/svg" viewBox="0 0 512 512"><path d="M256.1 16c-97 0-184.6 58.5-221.7 148.2S17.8 357.1 86.5 425.8c93.7 93.7 245.7 93.7 339.4 0s93.7-245.7 0-339.4c-45-45.2-106.1-70.5-169.8-70.4zm0 457.8c-120 0-217.7-97.7-217.7-217.7S136.1 38.4 256.1 38.4s217.7 97.7 217.7 217.7-97.7 217.7-217.7 217.7z" fill="#3a3f4c"/><path d="M370.2 182.3L226.1 320l-78.6-78.5c-4.3-4.3-11.4-4.3-15.7 0s-4.3 11.4 0 15.7l86.3 86.3c2.1 2.1 5 3.3 7.9 3.2 2.9 0 5.7-1.1 7.7-3.1l151.9-145.2c4.4-4.3 4.5-11.3.3-15.7-4.2-4.4-11.2-4.6-15.7-.4z" fill="#3970c2"/></svg>