<svg width="22" height="22" viewBox="0 0 22 22" fill="none" xmlns="http://www.w3.org/2000/svg">
<path d="M4 10.5C4 8.01273 5.845 6 8.125 6H16C17.6575 6 19 7.46455 19 9.27273C19 11.0809 17.6575 12.5455 16 12.5455H9.625C8.59 12.5455 7.75 11.6291 7.75 10.5C7.75 9.37091 8.59 8.45455 9.625 8.45455H15.25V10.0909H9.5575C9.145 10.0909 9.145 10.9091 9.5575 10.9091H16C16.825 10.9091 17.5 10.1727 17.5 9.27273C17.5 8.37273 16.825 7.63636 16 7.63636H8.125C6.6775 7.63636 5.5 8.92091 5.5 10.5C5.5 12.0791 6.6775 13.3636 8.125 13.3636H15.25V15H8.125C5.845 15 4 12.9873 4 10.5Z" fill="#787878"/>
</svg>
