<svg width="22" height="22" viewBox="0 0 22 22" fill="none" xmlns="http://www.w3.org/2000/svg">
<path d="M11.5 5C8.46038 5 6 7.68352 6 11C6 14.3159 8.4599 17 11.5 17C12.5679 17 13.6144 16.6579 14.503 16.0269C14.7692 15.8378 14.8273 15.4392 14.6261 15.1711L14.4004 14.8703C14.2303 14.6436 13.9307 14.588 13.7047 14.7462C13.0506 15.2038 12.2832 15.4516 11.5 15.4516C9.24992 15.4516 7.41935 13.4546 7.41935 11C7.41935 8.54537 9.24992 6.54839 11.5 6.54839C13.7208 6.54839 15.5806 7.9424 15.5806 10.4194C15.5806 11.3577 15.1129 12.3486 14.2906 12.4442C13.9058 12.4332 13.9156 12.1331 13.9917 11.7178L14.5114 8.78772C14.575 8.42944 14.3234 8.09677 13.9889 8.09677H12.9913C12.9176 8.09677 12.8466 8.12635 12.7916 8.17987C12.7367 8.23338 12.7017 8.30709 12.6934 8.38693L12.6932 8.38915C12.3672 7.95606 11.7962 7.86234 11.3632 7.86234C9.7092 7.86234 8.30645 9.368 8.30645 11.5267C8.30645 13.1066 9.12225 14.0881 10.4355 14.0881C11.0339 14.0881 11.7078 13.7097 12.0986 13.1607C12.3098 13.9857 12.9993 13.9857 13.6668 13.9857C16.0821 13.9857 17 12.2532 17 10.4194C17 7.12064 14.561 5 11.5 5ZM11.0192 12.3652C10.5258 12.3652 10.2193 11.9873 10.2193 11.3788C10.2193 10.2903 10.9019 9.61927 11.5195 9.61927C12.0139 9.61927 12.3091 9.98801 12.3091 10.6056C12.3091 11.6958 11.5578 12.3652 11.0192 12.3652Z" fill="white"/>
</svg>
