<svg width="22" height="22" viewBox="0 0 22 22" fill="none" xmlns="http://www.w3.org/2000/svg">
<path d="M13.8623 13.13C13.0616 13.6056 11.9599 13.7942 11.2322 13.8653L11.843 14.4284L14.0727 16.5141C14.8881 17.2959 13.5613 18.5177 12.7372 17.7633C12.1791 17.233 11.3608 16.4676 10.5075 15.6694L8.27776 17.7606C7.45367 18.5123 6.12693 17.2795 6.95103 16.5113C7.51796 15.981 8.32744 15.2156 9.18076 14.4257L9.78276 13.8626C9.06387 13.7915 7.94462 13.6138 7.13514 13.1272C6.18246 12.5532 5.76457 12.217 6.13278 11.5145C6.34903 11.1154 6.94226 10.7791 7.72837 11.3586C7.72837 11.3586 8.78917 12.1486 10.5017 12.1486C12.2141 12.1486 13.2749 11.3586 13.2749 11.3586C14.061 10.7819 14.6514 11.1154 14.8705 11.5145C15.2329 12.217 14.815 12.5532 13.8623 13.13ZM6.70848 7.54538C6.70848 5.58544 8.41219 4 10.4987 4C12.5853 4 14.289 5.58544 14.289 7.54538C14.289 9.49712 12.5853 11.0826 10.4987 11.0826C8.41219 11.0826 6.70848 9.49712 6.70848 7.54538V7.54538ZM8.63721 7.54538C8.63721 8.50485 9.47299 9.28664 10.4987 9.28664C11.5245 9.28664 12.3603 8.50485 12.3603 7.54538C12.3603 6.57771 11.5245 5.79593 10.4987 5.79593C9.47299 5.79593 8.63721 6.57771 8.63721 7.54538Z" fill="white"/>
</svg>
