<svg width="10" height="11" viewBox="0 0 10 11" fill="none" xmlns="http://www.w3.org/2000/svg">
<path d="M4.89311 0.232068C4.94062 0.232068 4.96437 0.232068 5.01188 0.232068C4.51306 0.510549 4.18052 0.99789 4.18052 1.55485H4.41805C4.41805 0.974683 4.82185 0.487342 5.41568 0.301688C6.0095 0.510549 6.4133 0.99789 6.4133 1.55485H6.65083C6.65083 0.99789 6.31829 0.510549 5.81948 0.232068C5.86698 0.232068 5.89074 0.232068 5.93824 0.232068C6.7696 0.232068 7.45843 0.835443 7.45843 1.55485H7.69596C7.69596 0.696202 6.91211 0 5.93824 0C5.74822 0 5.58195 0.0232068 5.41568 0.0696203C5.24941 0.0232068 5.08314 0 4.89311 0C3.91924 0 3.13539 0.696202 3.13539 1.55485H3.37292C3.37292 0.835443 4.06176 0.232068 4.89311 0.232068ZM6.55582 8.47046L10 7.14768L9.54869 1.81013H0.783848L0 11H9.45368L6.55582 8.47046ZM8.19477 10.5359H1.1639L6.22328 5.68565L6.10451 8.47046V8.67933L6.27078 8.81857L8.19477 10.5359Z" fill="#48B865"/>
</svg>
