<svg width="16" height="22" viewBox="0 0 16 22" fill="none" xmlns="http://www.w3.org/2000/svg">
<path d="M8 2.99535V0L4 3.99379L8 7.98759V4.99224C11.31 4.99224 14 7.67807 14 10.9829C14 11.9914 13.75 12.9499 13.3 13.7786L14.76 15.2363C15.54 14.0082 16 12.5505 16 10.9829C16 6.56979 12.42 2.99535 8 2.99535ZM8 16.9736C4.69 16.9736 2 14.2878 2 10.9829C2 9.9745 2.25 9.01599 2.7 8.18728L1.24 6.72954C0.46 7.95763 0 9.41537 0 10.9829C0 15.3961 3.58 18.9705 8 18.9705V21.9659L12 17.9721L8 13.9783V16.9736Z" fill="#FF8B37"/>
</svg>
