<svg width="22" height="22" viewBox="0 0 22 22" fill="none" xmlns="http://www.w3.org/2000/svg">
<path d="M16.5609 7.99061C16.5698 8.12186 16.5698 8.25313 16.5698 8.38437C16.5698 12.3875 13.6828 17 8.40611 17C6.78046 17 5.27031 16.5031 4 15.6406C4.23097 15.6687 4.45303 15.6781 4.69289 15.6781C6.03425 15.6781 7.26904 15.2 8.25509 14.3844C6.99366 14.3563 5.93655 13.4844 5.57233 12.2844C5.75001 12.3125 5.92766 12.3312 6.11423 12.3312C6.37183 12.3312 6.62947 12.2937 6.8693 12.2281C5.55458 11.9469 4.56851 10.7281 4.56851 9.25624V9.21876C4.95047 9.44376 5.39467 9.58438 5.86545 9.60311C5.09261 9.05935 4.58628 8.13124 4.58628 7.08123C4.58628 6.51874 4.72839 6.00311 4.97713 5.55311C6.38958 7.39061 8.51269 8.59059 10.8934 8.72186C10.849 8.49686 10.8223 8.26251 10.8223 8.02813C10.8223 6.35936 12.1015 5 13.6916 5C14.5178 5 15.2639 5.36562 15.7881 5.95625C16.4365 5.82501 17.0584 5.57187 17.6091 5.225C17.3959 5.92814 16.9429 6.51877 16.3477 6.89374C16.9251 6.82815 17.4848 6.65936 18 6.42501C17.6092 7.02499 17.1206 7.55934 16.5609 7.99061V7.99061Z" fill="white"/>
</svg>
