<svg width="858" height="440" fill="none" xmlns="http://www.w3.org/2000/svg"><path d="M720.014 247.37c47.416-62.708 115.176-57.304 135.439-31.213 20.264 26.092-86.13-5.202-135.439 31.213zm24.815 3.347c39.359-9.84 77.026 1.895 78.194 25.688 1.168 23.793-29.529 11.05-39.077-5.202-9.547-16.252-39.117-20.486-39.117-20.486zM220.755 220.27c-54.989-57.668-143.013-71.338-188.173-61.499-45.16 9.84-45.603 67.75 12.73 56.821 55.594-10.445 132.62-20.607 175.443 4.678zm.605 10.162c-71.225-13.912-110.181 22.18-110.987 45.973-.805 23.793 42.26 9.316 55.474-16.211 13.213-25.527 55.513-29.762 55.513-29.762zm102.647-88.84c3.787-10.606.242-21.575-.604-32.342.685-12.663 5.116-25.205 2.699-37.948-3.344-34.076-57.769-50.207-65.706-10.646-1.128 19.437.564 38.915 3.948 58.07-27.313.202-33.155 13.792-28.562-15.082-.564-25.003 7.412-74.645-12.287-91.825-13.536-10.968-35.25-5.08-41.816 10.97-5.278 17.663 2.457 36.737.805 55.046.484 23.511-5.841 46.537-5.197 69.967-.846 51.417 67.519 24.398 97.129 24.882 7.291 23.148 3.666 58.192 21.19 75.291 15.792 12.703 41.373 2.419 43.75-17.825-1.249-29.519-11.28-58.918-15.349-88.558zm221.328-51.296c-2.457-33.915-38.472-70.411-69.694-81.098-21.875-6.089-82.424-6.452-110.019 55.047-10.756 23.954-12.851 51.941-2.74 77.065 10.998 35.85 19.619 74.968 62.805 82.146 75.294 17.905 130.566-64.765 119.648-133.16zm-59.501 47.788c-8.138 21.413-29.932 40.327-53.62 30.406-7.534-4.113-15.873-19.155-17.887-26.979-10.112-40.004 4.592-62.87 11.924-72.145 7.332-9.275 20.586-11.775 35.653-7.178 29.771 16.332 36.942 45.449 23.93 75.896zm245.459-36.174c-1.369-23.47-29.529-36.737-48.947-23.631-16.194 9.84-14.261 30.689-25.943 44.118-8.742-.323-19.942-5.888-29.489-7.945 3.706-28.108 18.289-54.16 17.282-82.832-.806-23.43-32.591-34.278-47.617-16.332-4.553 5.767-7.574 12.582-6.889 20.083-4.552 31.697-19.136 62.063-20.022 94.607 2.86 38.835 52.291 36.012 79.926 47.949a24297.738 24297.738 0 00-11.562 51.538c-5.317 34.963 38.634 42.585 56.199 17.26 5.962-7.461 6.204-19.075 2.054-27.463 6.003-26.656 11.965-53.312 17.968-79.968 6.163-11.776 19.296-21.979 17.04-37.384zM848.96 332.046l-6.93.352C802.384 313.151 600.451 300 446.865 300 205.568 300 10 331.343 10 370s195.568 70 436.865 70 200-62.709 265.27-70c99.234-11.065 137.872-21.708 136.825-31.202h.04v-6.752h-.04z" fill="#90CCFF"/><path d="M712.161 363c-65.272 7.291-24.014 70-265.28 70C205.615 433 10 401.657 10 363s195.575-70 436.881-70c241.307 0 601.839 32.445 265.28 70z" fill="#ABE0FF"/><path opacity=".31" d="M596.409 357.5c-48.912 5.454-17.98 52.5-198.907 52.5C216.576 410 70 386.5 70 357.5S216.656 305 397.543 305c180.886 0 451.19 24.342 198.866 52.5z" fill="#fff"/><path opacity=".31" d="M583.883 349.5c-30.577 3.373-11.255 32.5-124.244 32.5S255 367.437 255 349.5c0-17.96 91.61-32.5 204.639-32.5 113.03 0 281.929 15.075 124.244 32.5z" fill="#fff"/><path d="M147 410s118.45 19.845 312 18.972c0-.023-209.826-6.569-312-18.972zm517.469-31.105s8.473-16.243 37.378-18.691c28.905-2.449 8.189-9.431-14.595-1.576-22.783 7.855-34.175 26.013-22.783 20.267z" fill="#fff"/><path d="M737.352 355.813c9.216-.899 16.397-2.632 16.04-3.87-.357-1.238-8.117-1.513-17.333-.614-9.215.899-16.397 2.632-16.04 3.87.357 1.238 8.117 1.513 17.333.614zm18.666-7.059c4.257-.415 7.573-1.218 7.408-1.792-.166-.575-3.751-.704-8.008-.288-4.256.415-7.573 1.217-7.407 1.792.165.574 3.75.703 8.007.288z" fill="#fff"/><path d="M324.007 135.342c3.787-10.606.242-21.575-.604-32.343.685-12.662 5.116-25.204 2.699-37.947-3.344-34.036-57.769-50.208-65.706-10.606-1.128 19.437.564 38.915 3.948 58.071-27.313.201-33.155 13.791-28.562-15.083-.564-25.002 7.412-74.645-12.287-91.824-13.536-10.97-35.25-5.082-41.816 10.968-5.278 17.664 2.457 36.738.805 55.047.484 23.51-5.841 46.537-5.197 69.967-.846 51.417 67.519 24.398 97.129 24.882 7.291 23.148 3.666 58.192 21.19 75.291 15.792 12.703 41.373 2.419 43.75-17.825-1.249-29.56-11.28-58.958-15.349-88.598zm221.328-51.296c-2.457-33.915-38.472-70.411-69.694-81.098-21.875-6.089-82.424-6.452-110.019 55.047-10.756 23.954-12.851 51.941-2.74 77.065 10.998 35.85 19.619 74.968 62.805 82.146 75.294 17.905 130.566-64.765 119.648-133.16zm-59.501 47.788c-8.138 21.413-29.932 40.327-53.62 30.406-7.534-4.113-15.873-19.155-17.887-26.979-10.112-40.004 4.592-62.87 11.924-72.145 7.332-9.275 20.586-11.775 35.653-7.178 29.771 16.332 36.942 45.449 23.93 75.896zM731.293 95.62c-1.369-23.47-29.529-36.739-48.947-23.632-16.194 9.84-14.261 30.689-25.943 44.118-8.742-.323-19.942-5.888-29.489-7.945 3.706-28.108 18.289-54.16 17.282-82.832-.806-23.43-32.591-34.278-47.617-16.332-4.553 5.767-7.574 12.582-6.889 20.083-4.552 31.697-19.136 62.063-20.022 94.607 2.86 38.835 52.291 36.012 79.926 47.949a24297.738 24297.738 0 00-11.562 51.538c-5.317 34.963 38.634 42.585 56.199 17.26 5.962-7.461 6.204-19.075 2.054-27.463 6.003-26.656 11.965-53.312 17.968-79.968 6.163-11.736 19.296-21.938 17.04-37.384zm-11.279 151.75c47.416-62.709 115.176-61.579 135.439-35.488 20.264 26.092-86.13-.927-135.439 35.488zm24.815 3.347c39.359-9.84 77.026-2.379 78.194 21.414 1.168 23.793-29.529 11.049-39.077-5.203-9.547-16.251-39.117-16.211-39.117-16.211zm-524.074-30.448c-54.989-57.667-143.013-75.613-188.173-65.773-45.16 9.84-45.603 67.749 12.73 56.821 55.594-10.445 132.62-16.333 175.443 8.952zm.605 10.164c-71.225-13.913-110.181 17.905-110.987 41.698-.805 23.793 42.26 9.316 55.474-16.211 13.213-25.527 55.513-25.487 55.513-25.487z" fill="#ABE0FF"/><path opacity=".31" d="M322.84 197.002c-3.102-25.81-14.584-39.521-15.269-75.815-.644-36.294-1.289-39.36-2.014-59.321.242-13.55-18.853-18.43-27.595-9.96-9.75 15.162-.846 35.93-.685 52.787-.081 9.154-.766 13.832-10.998 14.316-13.697 3.025-27.837 3.872-41.857 3.065.161-34.6 3.465-71.46-7.815-104.447-8.299-12.098-28.522-1.976-24.131 12.058 3.706 23.793 6.929 47.707 4.592 71.863-.765 17.34-3.424 43.472 19.136 47.142 16.477 2.702 33.477 1.008 49.873-1.573 10.193-1.411 15.833-6.976 16.558 6.574 3.867 14.759 10.353 28.874 12.085 44.158 1.289 5.847 2.458 12.824 7.574 16.534 10.998 9.517 27.918-4.961 20.546-17.381zm206.986-73.033c-3.143-22.986 4.874-47.344-5.761-69.16-9.91-20.729-57.447-53.07-80.974-48.07-22.439 6.049-50.155 12.541-62.966 33.713-26.427 47.949-19.539 114.448 26.709 147.597 46.49 29.842 128.148-3.912 122.992-64.08zm-43.75 35.125c-74.77 48.191-121.3-53.796-79.121-108.802 16.275-21.253 48.826-24.519 68.445-3.912 45.845 48.15 22.157 103.842 10.676 112.714zM707.968 86.91c-1.732-9.437-12.368-14.922-20.787-9.881-7.212 3.992-10.354 20.083-13.617 27.826-3.545 6.694-4.754 18.55-10.635 20.042-5.882 1.492-47.698-10.525-50.599-18.026-2.86-7.5.886-16.897 6.446-32.1 3.102-12.663 4.592-25.729 9.104-38.07 4.029-3.145 5.842-9.194 4.392-14.114-3.707-12.743-20.707-13.51-27.153-2.54-3.062 5.726-4.713 12.219-6.607 18.43-3.263 10.605-3.746 21.857-7.493 32.26-4.794 9.317-6.808 19.72-6.445 30.166.241 5.968-.081 12.34 2.497 17.864 4.794 12.381 19.015 14.921 30.375 18.148 13.979 4.355 36.378 8.347 40.93 15.606 4.553 7.259-6.888 32.826-9.144 49.441-2.015 12.421 2.417 29.6 18.289 26.132 7.171-1.895 11.723-9.84 9.628-16.978-1.248-2.661-.684-5.605-.443-8.388 1.934-13.913 4.271-27.866 7.896-41.456 4.109-15.364 9.427-30.406 14.342-45.529l4.955-9.316c3.223-5.887 5.801-12.703 4.069-19.518z" fill="#fff"/><path d="M183.37 117.638c-1.208 19.921-3.948 42.746 13.899 48.069 17.846 5.324 49.43 0 49.43 0s-48.101 2.743-54.828-10.485c-6.768-13.186-8.501-37.584-8.501-37.584zm107.079 109.407c7.01 11.614 22.923 20.284 36.297 9.235 13.415-11.01 4.633-42.021 4.633-42.021s2.82 37.262-14.583 41.416c-17.403 4.153-26.347-8.63-26.347-8.63zm94.067-49.159c14.22 23.43 28.602 33.996 64.295 33.27 35.693-.726 63.45-33.149 70.741-43.069-19.014 21.091-52.451 35.084-87.782 34.036-35.37-1.008-47.254-24.237-47.254-24.237zm256.819 43.311c-2.256 11.977 7.212 27.503 24.091 28.713 16.88 1.21 27.354-12.864 27.958-33.915-3.061 18.793-11.642 30.286-31.221 27.826-19.579-2.46-20.828-22.624-20.828-22.624z" fill="#fff"/><path d="M310.431 233.134c2.469 0 4.471-.848 4.471-1.895 0-1.047-2.002-1.895-4.471-1.895-2.47 0-4.472.848-4.472 1.895 0 1.047 2.002 1.895 4.472 1.895zm362.247 8.549c2.469 0 4.471-.848 4.471-1.895 0-1.047-2.002-1.895-4.471-1.895-2.47 0-4.472.848-4.472 1.895 0 1.047 2.002 1.895 4.472 1.895zm-351.047-12.299c1.246 0 2.256-.433 2.256-.968 0-.534-1.01-.968-2.256-.968-1.246 0-2.256.434-2.256.968 0 .535 1.01.968 2.256.968zm116.143-29.681c1.245 0 2.256-.433 2.256-.968 0-.534-1.011-.967-2.256-.967-1.246 0-2.256.433-2.256.967 0 .535 1.01.968 2.256.968zm222.617 39.158c1.246 0 2.256-.434 2.256-.968 0-.535-1.01-.968-2.256-.968-1.246 0-2.256.433-2.256.968 0 .534 1.01.968 2.256.968zM431.39 197.847c.137-.992-1.646-2.059-3.982-2.382-2.336-.323-4.341.22-4.478 1.213-.137.993 1.646 2.059 3.982 2.382 2.336.323 4.341-.22 4.478-1.213zm142.992-90.009c-.766 10.364-7.654 33.754 25.339 45.206 32.994 11.453 39.802 8.671 47.86 13.47-26.105-17.139-51.888-12.098-63.087-30.165-11.16-18.026-9.145-16.09-10.112-28.511z" fill="#fff"/><path opacity=".31" d="M39.068 191.92c-18.29 6.089-29.53-1.21-26.951-17.018 2.578-15.808 76.743-27.826 133.586 1.895 56.843 29.721 44.999 23.229 44.999 23.229s-68.163-35.77-151.635-8.106z" fill="#fff"/><path d="M3.537 190.751c3.424 7.904 4.673 24.075 49.793 16.655-16.316.524-41.534-1.895-49.793-16.655zm61.126 14.421c4.308-.52 7.69-1.856 7.553-2.984-.135-1.128-3.737-1.62-8.045-1.1-4.307.52-7.689 1.856-7.553 2.984.136 1.128 3.738 1.62 8.045 1.1zm16.1-2.363c2.336 0 4.23-.488 4.23-1.089 0-.602-1.894-1.089-4.23-1.089-2.336 0-4.23.487-4.23 1.089 0 .601 1.894 1.089 4.23 1.089zm39.561 74.242c2.336 0 4.23-.488 4.23-1.089s-1.894-1.089-4.23-1.089c-2.336 0-4.23.488-4.23 1.089s1.894 1.089 4.23 1.089z" fill="#fff"/><path opacity=".31" d="M185.707 229.304c-12.287 0-44.354 5-60.871 22.946-16.517 17.945-11.28 25.083-7.534 25.97 3.747.888 12.892-1.129 22.439-15.163 9.508-14.033 20.909-29.237 45.966-33.753z" fill="#fff"/><path d="M111.945 275.478c3.263 5.525 9.83 9.195 22.52 3.912s17.202-10.485 23.97-17.785c-7.292 6.695-38.352 26.657-46.49 13.873z" fill="#fff"/><path opacity=".31" d="M739.552 230.311c12.085-10.122 48.826-37.221 84.317-30.366 35.452 6.856 27.918 21.656 15.671 18.833-12.287-2.863-62.684-6.291-99.988 11.533z" fill="#fff"/><path d="M853.479 218.052c-.282 1.693-4.713 5.686-36.176 5.847-31.463.161-59.34 3.347-70.782 9.114 15.954-8.106 43.106-10.767 71.185-10.969 28.119-.202 32.752-1.411 35.773-3.992zm-91.246 32.907c1.245 0 2.256-.433 2.256-.968 0-.534-1.011-.968-2.256-.968-1.246 0-2.256.434-2.256.968 0 .535 1.01.968 2.256.968z" fill="#fff"/><path opacity=".31" d="M767.551 249.991c13.294-.887 33.759.322 43.146 8.549 9.386 8.227 11.32 18.752 4.713 21.938-6.567 3.186-13.858-13.429-19.377-18.51-5.479-5.041-18.129-12.905-28.482-11.977z" fill="#fff"/><path d="M766.463 252.813c8.943 2.944 14.583 4.678 20.102 14.075 5.519 9.396 24.816 20.687 32.752 13.066-6.606.806-13.938 1.653-22.116-4.88-8.178-6.493-10.757-18.429-30.738-22.261z" fill="#fff"/></svg>