<svg width="855" height="438" fill="none" xmlns="http://www.w3.org/2000/svg"><path d="M359.622 176.607c-2.207-54.522-54.202-104.47-109.927-90.228-8.345 6.018-14.002 1.203-12.879-8.987 17.131-7.422 49.909-13.841 70.49-10.23 24.393 1.163 38.194-32.096 20.14-48.625-33.139-23.59-74.622-.16-110.248 4.694-13.561.361-28.244 3.53-35.426 16.208-14.523 22.949 12.237 125.815 45.054 122.284 11.996.321 20.983-7.743 26.76-17.131 23.992-12.357 46.699 9.428 49.187 33.139.561 10.792-17.292 10.471-25.155 11.514-9.91-8.224-24.112-12.276-35.907-4.894-36.028 25.596.481 62.706 34.141 61.783 40.08 1.806 87.621-24.232 83.77-69.527zm357.424 70.089c47.22-62.385 114.701-57.009 134.881-31.052 20.181 25.957-85.775-5.135-134.881 31.052zm24.713 3.33c39.197-9.789 76.709 1.886 77.872 25.556 1.164 23.671-29.407 10.993-38.916-5.175-9.508-16.168-38.956-20.381-38.956-20.381zm-521.913-30.29c-54.763-57.37-142.424-70.971-187.398-61.182-44.974 9.789-45.416 67.401 12.678 56.528 55.364-10.39 132.073-20.46 174.72 4.654zm.601 10.11c-70.931-13.841-109.726 22.066-110.529 45.736-.802 23.671 42.086 9.268 55.245-16.128 13.159-25.395 55.284-29.608 55.284-29.608zM543.088 90.431c-2.447-33.74-38.314-70.048-69.407-80.68-21.744-6.058-82.084-6.419-109.566 54.763-10.712 23.831-12.798 51.674-2.728 76.669 10.953 35.666 19.538 74.582 62.546 81.723 74.983 17.813 130.027-64.432 119.155-132.475zm-59.256 47.582c-8.105 21.304-29.809 40.12-53.399 30.25-7.503-4.092-15.807-19.057-17.813-26.84-10.07-39.798 4.573-62.546 11.875-71.773 7.302-9.228 20.501-11.715 35.506-7.142 29.648 16.209 36.789 45.175 23.831 75.505zM845.96 330.064l-6.905.352C799.551 311.149 598.339 298 445.303 298 204.869 298 10 329.338 10 368.012S204.869 438 445.303 438s199.285-62.722 264.321-69.988c98.88-11.063 137.38-21.705 136.336-31.197h.04v-6.751h-.04z" fill="#90CCFF"/><path d="M709.65 361c-65.039 7.291-23.928 70-264.331 70C204.916 431 10 399.657 10 361s194.876-70 435.319-70c240.444 0 599.681 32.445 264.331 70z" fill="#ABE0FF"/><path opacity=".31" d="M596.749 355.5c-48.755 5.454-17.922 52.5-198.265 52.5C218.142 408 72 384.5 72 355.5S218.182 303 398.484 303c180.303 0 449.773 24.319 198.265 52.5z" fill="#fff"/><path opacity=".31" d="M581.209 347.512C550.788 350.884 570.012 380 457.598 380S254 365.442 254 347.512C254 329.581 345.143 315 457.598 315c112.454 0 280.494 15.07 123.611 32.512z" fill="#fff"/><path d="M147 408s117.691 19.845 310 18.972c0 0-208.481-6.569-310-18.972zm515.389-32.067s8.322-15.589 36.71-17.939c28.389-2.35 8.043-9.051-14.333-1.512-22.377 7.538-33.565 24.989-22.377 19.451z" fill="#fff"/><path d="M734.318 353.971c9.177-.898 16.329-2.627 15.974-3.863-.356-1.236-8.084-1.51-17.262-.613-9.177.898-16.329 2.627-15.974 3.863.356 1.236 8.084 1.51 17.262.613zm18.589-7.046c4.239-.414 7.542-1.215 7.377-1.788-.164-.574-3.735-.703-7.974-.288-4.239.415-7.542 1.215-7.377 1.789.165.573 3.735.702 7.974.287z" fill="#fff"/><path d="M543.088 84.213c-2.447-33.74-38.314-70.049-69.407-80.68-21.744-6.059-82.084-6.42-109.566 54.763-10.712 23.83-12.798 51.673-2.728 76.668 10.953 35.666 19.538 74.582 62.546 81.723C498.916 234.5 553.96 152.255 543.088 84.213zm-59.256 47.581c-8.105 21.304-29.809 40.12-53.399 30.25-7.503-4.092-15.807-19.056-17.813-26.839-10.07-39.799 4.573-62.547 11.875-71.774 7.302-9.228 20.501-11.715 35.506-7.141 29.648 16.208 36.789 45.174 23.831 75.504zm233.214 114.902c47.22-62.386 114.701-61.262 134.881-35.305 20.181 25.957-85.775-.883-134.881 35.305zm24.713 3.33c39.197-9.789 76.709-2.367 77.872 21.304 1.164 23.67-29.407 10.992-38.916-5.176-9.508-16.168-38.956-16.128-38.956-16.128zm-521.913-30.29c-54.763-57.371-142.424-75.224-187.398-65.435-44.974 9.789-45.416 67.401 12.678 56.529 55.364-10.391 132.073-16.209 174.72 8.906zm.601 10.11c-70.931-13.841-109.726 17.813-110.529 41.484-.802 23.67 42.086 9.267 55.245-16.128 13.159-25.396 55.284-25.356 55.284-25.356z" fill="#ABE0FF"/><path opacity=".31" d="M527.642 123.971c-3.129-22.868 4.854-47.1-5.737-68.805-9.87-20.621-57.17-52.757-80.6-47.822-22.347 6.018-49.949 12.477-62.707 33.54-26.318 47.702-19.458 113.859 26.599 146.837 46.258 29.648 127.58-3.892 122.445-63.75zm-43.57 34.904c-74.462 47.943-120.799-53.479-78.794-108.242 16.208-21.143 48.624-24.393 68.163-3.892 45.655 47.903 22.065 103.308 10.631 112.134z" fill="#fff"/><path d="M382.931 177.571c14.162 23.309 28.485 33.82 64.031 33.098 35.546-.722 63.188-32.978 70.449-42.847-18.936 20.982-52.235 34.904-87.42 33.861-35.225-1.003-47.06-24.112-47.06-24.112z" fill="#fff"/><path d="M435.969 199.315c1.241 0 2.247-.431 2.247-.962 0-.532-1.006-.963-2.247-.963-1.24 0-2.246.431-2.246.963 0 .531 1.006.962 2.246.962zm-6.369-1.874c.136-.988-1.64-2.049-3.966-2.371-2.327-.321-4.323.219-4.46 1.207-.136.988 1.639 2.049 3.966 2.37 2.327.321 4.323-.219 4.46-1.206z" fill="#fff"/><path d="M738.951 124.573c4.814-33.46-22.507-76.588-50.591-93.639-19.979-10.591-78.834-23.79-118.713 30.13-15.526 20.982-23.51 47.742-19.017 74.301 3.09 37.191 3.17 77.029 43.69 93.197 69.407 33.42 140.699-35.184 144.631-103.989zm-68.043 33.82c-12.477 19.097-37.672 32.858-58.614 18.175-6.459-5.617-11.394-21.986-11.675-30.01-1.364-41.042 17.813-60.139 26.92-67.601 9.107-7.462 22.507-7.101 36.228.602 25.476 22.186 26.278 51.995 7.141 78.834z" fill="#90CCFF"/><path d="M740.275 118.515c4.814-33.46-22.507-76.588-50.59-93.64-19.98-10.59-78.835-23.79-118.714 30.13-15.526 20.983-23.51 47.743-19.016 74.302 3.089 37.191 3.169 77.029 43.69 93.197 69.406 33.42 140.698-35.225 144.63-103.989zm-68.042 33.82c-12.478 19.097-37.673 32.858-58.615 18.174-6.459-5.616-11.394-21.985-11.675-30.009-1.364-41.042 17.813-60.139 26.921-67.601 9.107-7.462 22.507-7.101 36.227.602 25.476 22.186 26.279 51.994 7.142 78.834z" fill="#ABE0FF"/><path opacity=".31" d="M716.725 154.021c1.845-22.988 14.764-44.974 9.067-68.404-5.256-22.266-44.653-63.75-68.565-63.91-23.148 1.083-51.473 1.565-68.443 19.418-35.867 41.002-43.289 107.119-5.296 149.164 38.876 38.755 125.453 23.309 133.237-36.268zm-50.029 24.874c-82.967 30.932-106.638-78.072-53.921-122.605 20.341-17.211 52.717-13.48 67.401 10.712 34.422 56.568-.442 105.674-13.48 111.893z" fill="#fff"/><path d="M563.87 175.564c8.867 25.797 20.622 39.117 55.485 46.017 34.904 6.901 68.765-18.775 77.952-26.839-22.988 16.449-58.494 22.948-92.635 14.443-34.142-8.506-40.802-33.621-40.802-33.621z" fill="#fff"/><path d="M639.132 208.634c.02-.532-.968-1.001-2.208-1.05-1.24-.048-2.261.344-2.282.875-.021.532.968 1.001 2.207 1.05 1.24.048 2.262-.344 2.283-.875zm-8.566-1.207c.174-.982-1.558-2.111-3.871-2.523-2.312-.411-4.328.051-4.503 1.032-.174.982 1.558 2.111 3.871 2.523 2.312.411 4.328-.051 4.503-1.032z" fill="#fff"/><path opacity=".31" d="M38.907 191.572c-18.214 6.059-29.408-1.203-26.84-16.93 2.568-15.727 76.428-27.682 133.036 1.886 56.609 29.568 44.814 23.068 44.814 23.068s-67.882-35.586-151.01-8.024z" fill="#fff"/><path d="M3.521 190.369c3.41 7.863 4.654 23.951 49.588 16.569-16.248.522-41.363-1.886-49.588-16.569zm60.874 14.347c4.29-.518 7.657-1.847 7.522-2.969-.136-1.122-3.723-1.612-8.012-1.094-4.29.518-7.658 1.847-7.522 2.969.135 1.122 3.722 1.611 8.012 1.094zm16.035-2.311c2.327 0 4.213-.485 4.213-1.083 0-.599-1.886-1.084-4.212-1.084-2.327 0-4.213.485-4.213 1.084 0 .598 1.886 1.083 4.213 1.083zm39.398 73.819c2.327 0 4.213-.485 4.213-1.083s-1.886-1.083-4.213-1.083c-2.326 0-4.212.485-4.212 1.083s1.886 1.083 4.212 1.083z" fill="#fff"/><path opacity=".31" d="M184.942 228.763c-12.237 0-44.172 4.975-60.621 22.828-16.449 17.853-11.233 24.954-7.502 25.837 3.731.883 12.838-1.123 22.346-15.085 9.468-14.002 20.822-29.086 45.777-33.58z" fill="#fff"/><path d="M111.483 274.66c3.25 5.496 9.789 9.147 22.427 3.892 12.637-5.256 17.131-10.431 23.871-17.693-7.262 6.7-38.194 26.519-46.298 13.801z" fill="#fff"/><path opacity=".31" d="M736.504 229.726c12.036-10.07 48.625-37.031 83.97-30.21 35.305 6.82 27.803 21.544 15.606 18.736-12.236-2.849-62.425-6.259-99.576 11.474z" fill="#fff"/><path d="M849.961 217.53c-.28 1.685-4.694 5.657-36.027 5.817-31.333.161-59.096 3.33-70.49 9.067 15.888-8.064 42.928-10.712 70.891-10.912 28.004-.201 32.618-1.405 35.626-3.972z" fill="#fff"/><path d="M831.426 220.097c1.241 0 2.247-.431 2.247-.963s-1.006-.963-2.247-.963c-1.24 0-2.246.431-2.246.963s1.006.963 2.246.963zm-72.335 30.17c1.241 0 2.247-.431 2.247-.963s-1.006-.963-2.247-.963c-1.241 0-2.247.431-2.247.963s1.006.963 2.247.963z" fill="#fff"/><path opacity=".31" d="M764.387 249.305c13.239-.883 33.62.321 42.968 8.505 9.347 8.184 11.273 18.655 4.694 21.825-6.54 3.169-13.801-13.36-19.298-18.415-5.456-5.015-18.054-12.798-28.364-11.915z" fill="#fff"/><path d="M763.304 252.112c8.906 2.929 14.523 4.654 20.019 14.002 5.497 9.348 24.714 20.581 32.617 12.999-6.579.802-13.881 1.645-22.025-4.855-8.144-6.459-10.712-18.294-30.611-22.146zm77.791-32.978c2.459 0 4.453-.844 4.453-1.886 0-1.041-1.994-1.885-4.453-1.885-2.46 0-4.453.844-4.453 1.885 0 1.042 1.993 1.886 4.453 1.886z" fill="#fff"/><path d="M359.622 171.272c-2.207-54.522-54.202-104.471-109.927-90.229-8.345 6.018-14.002 1.204-12.879-8.986 17.131-7.422 49.909-13.842 70.49-10.23C331.699 62.99 345.5 29.73 327.446 13.2c-33.139-23.59-74.622-.16-110.248 4.694-13.561.361-28.244 3.531-35.426 16.209-14.523 22.948 12.237 125.814 45.054 122.284 11.996.321 20.983-7.743 26.76-17.131 23.992-12.357 46.699 9.428 49.187 33.138.561 10.793-17.292 10.472-25.155 11.515-9.91-8.225-24.112-12.277-35.907-4.895-36.028 25.596.481 62.707 34.141 61.784 40.08 1.805 87.621-24.272 83.77-69.527z" fill="#ABE0FF"/><path opacity=".31" d="M349.993 169.026C322.27 56.049 245.562 92.357 240.146 88.786c-5.416-3.57-15.807-17.411-13.159-25.796 2.648-8.385 123.648-7.061 82.806-47.22-20.461-9.509-40.801 9.508-61.784 9.628-25.275 2.848-69.808-7.021-60.379 33.78 46.979 136.206 27.842 51.674 94.2 62.547 30.611 20.822 50.831 62.666-2.568 69.848-11.755-2.408-26.84-12.076-35.786 3.811-10.191 64.231 116.065 22.828 106.517-26.358z" fill="#fff"/><path d="M249.334 138.534s-4.614 11.153-18.616 13.4c-14.002 2.247-22.226-8.746-30.651-23.309 11.755 13.078 23.47 27.441 49.267 9.909zm-15.687 67.883c3.169 10.832 14.563 35.987 64.191 27.441 49.628-8.585 57.25-44.974 57.05-66.959-4.614 34.142-34.824 61.302-70.65 61.623-35.867.281-50.591-22.105-50.591-22.105z" fill="#fff"/><path d="M269.55 221.531c.137-.988-1.639-2.049-3.965-2.37-2.327-.322-4.324.219-4.46 1.206-.136.988 1.639 2.049 3.966 2.371 2.326.321 4.323-.219 4.459-1.207zm-37.75-78.633c.137-.988-1.639-2.049-3.965-2.37-2.327-.321-4.324.219-4.46 1.207-.136.987 1.639 2.048 3.966 2.37 2.326.321 4.323-.219 4.459-1.207zm44.774 81.452c1.241 0 2.247-.432 2.247-.963 0-.532-1.006-.963-2.247-.963-1.24 0-2.246.431-2.246.963 0 .531 1.006.963 2.246.963zM255.793 62.869c5.898-2.367 37.191-6.86 46.137-6.74 8.947.12 13.761.963 19.779-4.895-4.774 3.09-12.196 2.608-24.272 3.49-31.414 2.328-41.644 8.145-41.644 8.145z" fill="#fff"/></svg>