<svg width="855" height="439" fill="none" xmlns="http://www.w3.org/2000/svg"><path d="M716.925 184.313c4.734-18.896 7.823-41.323.361-59.898-2.087-5.175-2.006-10.992.12-16.168C743.844 44.418 680.657-5.61 616.587 7.87c-39.396 1.284-57.209 55.765-13.399 66.437 7.141 2.367 14.402.481 20.621-3.13 7.983-4.613 17.251-6.619 26.358-5.175 6.018.963 11.353 3.21 13.801 8.907 6.138 24.111-28.525 9.107-36.589 27.802-9.187 13.039-6.058 31.574 6.941 40.841 21.223 10.351 40.4 1.284 21.504 32.978-9.99 8.224-26.88 4.493-38.153.401-14.684-6.058-12.798-26.559-29.608-30.771-53.519-10.11-46.859 56.246-9.789 74.942 45.013 33.178 123.084 23.108 138.651-36.789zm-357.299-6.7c-2.207-54.522-54.201-104.47-109.926-90.227-8.345 6.017-14.002 1.203-12.878-8.987 17.13-7.422 49.908-13.841 70.489-10.23 24.392 1.163 38.193-32.095 20.139-48.624-33.138-23.59-74.621-.16-110.246 4.693-13.561.362-28.244 3.531-35.425 16.209-14.523 22.947 12.236 125.812 45.053 122.282 11.996.321 20.982-7.743 26.759-17.131 23.991-12.357 46.699 9.428 49.186 33.138.562 10.792-17.291 10.471-25.154 11.514-9.91-8.224-24.112-12.276-35.907-4.894-36.027 25.596.482 62.706 34.141 61.783 40.079 1.805 87.62-24.272 83.769-69.526zm357.419 70.088c47.22-62.385 114.7-57.009 134.88-31.052 20.179 25.957-85.775-5.176-134.88 31.052zm24.713 3.33c39.196-9.789 76.707 1.885 77.871 25.555 1.163 23.671-29.408 10.993-38.916-5.175-9.508-16.168-38.955-20.38-38.955-20.38zm-521.907-30.33c-54.762-57.33-142.422-70.97-187.395-61.141-44.973 9.829-45.415 67.399 12.678 56.527 55.364-10.391 132.071-20.5 174.717 4.614zm.603 10.15c-70.931-13.841-109.725 22.065-110.528 45.735-.802 23.67 42.085 9.268 55.244-16.128 13.159-25.395 55.284-29.607 55.284-29.607z" fill="#90CCFF"/><path d="M543.09 91.438c-2.448-33.74-38.314-70.048-69.406-80.68-21.785-6.057-82.083-6.418-109.565 54.763-10.711 23.83-12.798 51.673-2.728 76.667 10.953 35.666 19.538 74.581 62.546 81.722 74.982 17.813 130.025-64.431 119.153-132.472zm-59.256 47.54c-8.104 21.304-29.808 40.119-53.398 30.25-7.502-4.092-15.807-19.056-17.813-26.839-10.07-39.798 4.574-62.546 11.875-71.773 7.302-9.227 20.501-11.715 35.505-7.141 29.648 16.248 36.789 45.214 23.831 75.503zM845.96 331.041l-6.905.351C799.551 312.149 598.339 299 445.303 299 204.869 299 10 330.338 10 368.988 10 407.639 204.869 439 445.303 439s199.285-62.722 264.321-70.012c98.88-11.063 137.38-21.704 136.336-31.197h.04v-6.75h-.04z" fill="#90CCFF"/><path d="M709.65 362c-65.039 7.291-23.928 70-264.331 70C204.916 432 10 400.657 10 362s194.876-70 435.319-70c240.444 0 599.681 32.421 264.331 70z" fill="#ABE0FF"/><path opacity=".31" d="M596.735 356.5c-48.756 5.454-17.923 52.5-198.274 52.5S72 385.5 72 356.5 218.19 304 398.501 304c180.311 0 449.756 24.342 198.234 52.5z" fill="#fff"/><path opacity=".31" d="M581.209 349c-30.421 3.425-11.197 33-123.611 33S254 367.213 254 349s91.143-33 203.598-33c112.454 0 280.494 15.283 123.611 33z" fill="#fff"/><path d="M147 409s117.691 19.845 310 18.972c0-.023-208.481-6.569-310-18.972zm515.389-32.067s8.322-15.589 36.71-17.939c28.389-2.35 8.043-9.051-14.333-1.512-22.377 7.538-33.565 24.989-22.377 19.451z" fill="#fff"/><path d="M734.313 354.928c9.177-.898 16.329-2.628 15.974-3.864-.356-1.236-8.084-1.51-17.261-.613-9.178.898-16.33 2.628-15.974 3.864.355 1.236 8.083 1.51 17.261.613zm18.589-7.048c4.239-.414 7.542-1.216 7.377-1.789-.165-.573-3.735-.702-7.974-.288-4.24.415-7.542 1.216-7.377 1.79.164.573 3.735.702 7.974.287z" fill="#fff"/><path d="M543.09 85.22c-2.448-33.74-38.314-70.048-69.406-80.68-21.744-6.098-82.083-6.418-109.565 54.723-10.711 23.83-12.798 51.673-2.728 76.667 10.953 35.666 19.538 74.581 62.546 81.722 74.982 17.853 130.025-64.391 119.153-132.432zm-59.256 47.54c-8.104 21.304-29.808 40.119-53.398 30.25-7.502-4.092-15.807-19.056-17.813-26.839-10.07-39.798 4.574-62.546 11.875-71.773 7.302-9.227 20.501-11.715 35.505-7.141 29.648 16.248 36.789 45.214 23.831 75.503zm233.211 114.941c47.22-62.385 114.7-61.262 134.88-35.305 20.179 25.957-85.775-.922-134.88 35.305zm24.713 3.33c39.196-9.789 76.707-2.367 77.871 21.303 1.163 23.67-29.408 10.992-38.916-5.176-9.508-16.167-38.955-16.127-38.955-16.127zm-521.907-30.33c-54.762-57.33-142.422-75.223-187.395-65.394-44.973 9.829-45.415 67.399 12.678 56.527 55.364-10.391 132.071-16.248 174.717 8.867zm.603 10.15c-70.931-13.841-109.725 17.812-110.528 41.482-.802 23.671 42.085 9.268 55.244-16.127 13.159-25.396 55.284-25.355 55.284-25.355z" fill="#ABE0FF"/><path opacity=".31" d="M527.643 124.937c-3.129-22.868 4.854-47.1-5.737-68.804-9.869-20.621-57.209-52.797-80.639-47.822-22.346 6.018-49.948 12.477-62.706 33.54-26.318 47.7-19.457 113.857 26.599 146.835 46.297 29.647 127.618-3.892 122.483-63.749zm-43.569 34.943c-74.461 47.942-120.798-53.518-78.793-108.28 16.208-21.143 48.624-24.393 68.161-3.892 45.656 47.942 22.066 103.346 10.632 112.172z" fill="#fff"/><path d="M382.935 178.576c14.162 23.309 28.484 33.82 64.029 33.098 35.546-.723 63.187-32.978 70.449-42.847-18.936 20.982-52.235 34.903-87.419 33.86-35.224-1.003-47.059-24.111-47.059-24.111z" fill="#fff"/><path d="M435.971 200.28c1.241 0 2.247-.431 2.247-.963 0-.531-1.006-.963-2.247-.963-1.241 0-2.246.432-2.246.963 0 .532 1.005.963 2.246.963zm-6.348-1.853c.137-.988-1.639-2.049-3.965-2.37-2.327-.322-4.323.219-4.46 1.206-.136.988 1.639 2.049 3.966 2.371 2.326.321 4.323-.219 4.459-1.207zm134.248-21.897c8.866 25.796 20.621 39.116 55.484 46.016 34.904 6.901 68.764-18.775 77.951-26.839-22.988 16.448-58.493 22.948-92.634 14.442-34.141-8.505-40.801-33.619-40.801-33.619z" fill="#fff"/><path d="M639.112 209.617c.021-.532-.968-1.002-2.207-1.05-1.24-.048-2.262.344-2.283.875-.02.532.968 1.001 2.208 1.049 1.24.049 2.261-.343 2.282-.874zm-8.565-1.21c.175-.982-1.558-2.111-3.87-2.522-2.313-.412-4.329.05-4.503 1.032-.175.982 1.558 2.111 3.87 2.522 2.312.412 4.328-.05 4.503-1.032z" fill="#fff"/><path opacity=".31" d="M38.915 192.537c-18.213 6.058-29.407-1.203-26.84-16.93 2.569-15.726 76.427-27.682 133.035 1.886 56.608 29.567 44.813 23.068 44.813 23.068s-67.881-35.545-151.008-8.024z" fill="#fff"/><path d="M64.4 205.681c4.29-.517 7.658-1.847 7.522-2.968-.135-1.122-3.722-1.612-8.012-1.095-4.29.518-7.657 1.847-7.521 2.969.135 1.122 3.722 1.612 8.012 1.094zm16.038-2.311c2.327 0 4.213-.485 4.213-1.084 0-.598-1.886-1.083-4.213-1.083-2.326 0-4.212.485-4.212 1.083 0 .599 1.886 1.084 4.212 1.084zm39.398 73.858c2.326 0 4.212-.485 4.212-1.083 0-.599-1.886-1.083-4.212-1.083-2.327 0-4.213.484-4.213 1.083 0 .598 1.886 1.083 4.213 1.083z" fill="#fff"/><path opacity=".31" d="M184.947 229.728c-12.236 0-44.171 4.974-60.619 22.827-16.449 17.853-11.234 24.954-7.502 25.837 3.731.882 12.838-1.124 22.346-15.085 9.468-14.001 20.821-29.086 45.775-33.579z" fill="#fff"/><path d="M111.49 275.664c3.25 5.496 9.789 9.147 22.427 3.891 12.637-5.255 17.13-10.431 23.87-17.692-7.261 6.66-38.193 26.518-46.297 13.801z" fill="#fff"/><path opacity=".31" d="M736.503 230.731c12.036-10.07 48.624-37.03 83.969-30.21 35.304 6.82 27.802 21.544 15.606 18.736-12.236-2.849-62.425-6.259-99.575 11.474z" fill="#fff"/><path d="M849.959 218.534c-.281 1.685-4.694 5.657-36.027 5.817-31.333.161-59.095 3.33-70.489 9.067 15.887-8.064 42.928-10.711 70.89-10.912 28.003-.201 32.617-1.444 35.626-3.972z" fill="#fff"/><path d="M831.423 221.102c1.241 0 2.247-.431 2.247-.963s-1.006-.963-2.247-.963c-1.24 0-2.246.431-2.246.963s1.006.963 2.246.963zm-72.334 30.169c1.241 0 2.247-.431 2.247-.962 0-.532-1.006-.963-2.247-.963-1.24 0-2.246.431-2.246.963 0 .531 1.006.962 2.246.962z" fill="#fff"/><path opacity=".31" d="M764.385 250.308c13.239-.882 33.619.321 42.967 8.506 9.348 8.184 11.273 18.655 4.694 21.824-6.539 3.17-13.801-13.359-19.297-18.414-5.456-5.055-18.054-12.838-28.364-11.916z" fill="#fff"/><path d="M763.302 253.117c8.906 2.928 14.523 4.653 20.019 14.001 5.496 9.348 24.713 20.581 32.617 12.999-6.58.802-13.881 1.645-22.026-4.855-8.144-6.499-10.711-18.334-30.61-22.145zm77.79-32.978c2.459 0 4.453-.844 4.453-1.886 0-1.041-1.994-1.885-4.453-1.885-2.46 0-4.453.844-4.453 1.885 0 1.042 1.993 1.886 4.453 1.886z" fill="#fff"/><path d="M359.626 172.237c-2.207-54.522-54.201-104.47-109.926-90.227-8.345 6.017-14.002 1.203-12.878-8.987 17.13-7.422 49.908-13.841 70.489-10.23 24.392 1.163 38.193-32.095 20.139-48.624-33.138-23.59-74.621-.16-110.246 4.694-13.561.36-28.244 3.53-35.425 16.208-14.523 22.948 12.236 125.812 45.053 122.282 11.996.321 20.982-7.743 26.759-17.131 23.991-12.357 46.699 9.428 49.186 33.138.562 10.792-17.291 10.471-25.154 11.514-9.91-8.224-24.112-12.276-35.907-4.894-36.027 25.596.482 62.706 34.141 61.783 40.079 1.805 87.62-24.232 83.769-69.526z" fill="#ABE0FF"/><path opacity=".31" d="M349.997 170.031C322.275 57.056 245.568 93.363 240.151 89.793c-5.416-3.53-15.806-17.412-13.159-25.797 2.648-8.384 123.647-7.06 82.806-47.22-20.461-9.508-40.801 9.509-61.783 9.63-25.275 2.848-69.807-7.022-60.379 33.78 46.979 136.203 27.842 51.672 94.199 62.544 30.611 20.822 50.831 62.666-2.568 69.847-11.754-2.407-26.839-12.075-35.786 3.812-10.19 64.19 116.064 22.827 106.516-26.358z" fill="#fff"/><path d="M249.338 139.5s-4.613 11.153-18.615 13.4c-14.001 2.247-22.226-8.746-30.651-23.309 11.755 13.079 23.47 27.441 49.266 9.909zm-15.686 67.881c3.17 10.832 14.563 35.987 64.191 27.442 49.627-8.586 57.249-44.974 57.049-66.959-4.614 34.141-34.824 61.302-70.65 61.623-35.866.281-50.59-22.106-50.59-22.106z" fill="#fff"/><path d="M269.577 222.517c.136-.987-1.64-2.049-3.966-2.37-2.327-.321-4.323.219-4.46 1.207-.136.987 1.639 2.049 3.966 2.37 2.326.321 4.323-.219 4.46-1.207zm-37.751-78.632c.137-.987-1.639-2.048-3.965-2.37-2.327-.321-4.323.219-4.46 1.207-.136.988 1.639 2.049 3.966 2.37 2.326.321 4.323-.219 4.459-1.207zm44.754 81.429c1.24 0 2.246-.431 2.246-.963s-1.006-.963-2.246-.963c-1.241 0-2.247.431-2.247.963s1.006.963 2.247.963zM255.798 63.876c5.897-2.367 37.19-6.86 46.137-6.74 8.946.12 13.76.963 19.778-4.894-4.774 3.089-12.196 2.607-24.272 3.49-31.413 2.327-41.643 8.144-41.643 8.144z" fill="#fff"/><path d="M716.925 178.696c4.734-18.896 7.823-41.322.361-59.897-2.087-5.176-2.006-10.993.12-16.168 26.438-63.83-36.749-113.858-100.819-100.378-39.396 1.284-57.209 55.766-13.399 66.437 7.141 2.367 14.402.482 20.621-3.13 7.983-4.613 17.251-6.619 26.358-5.175 6.018.963 11.353 3.21 13.801 8.907 6.138 24.111-28.525 9.107-36.589 27.802-9.187 13.039-6.058 31.574 6.941 40.841 21.223 10.351 40.4 1.284 21.504 32.978-9.99 8.224-26.88 4.493-38.153.401-14.684-6.058-12.798-26.558-29.608-30.771-53.519-10.11-46.859 56.247-9.789 74.942 45.013 33.178 123.084 23.109 138.651-36.789z" fill="#ABE0FF"/><path opacity=".31" d="M704.407 132.119c-.963-7.583-2.808-15.085-6.379-21.745-2.487-4.573-2.447-10.07-.04-14.643 8.225-15.646 7.021-35.826-.241-51.633-9.708-16.489-26.518-32.857-46.898-32.296-17.011 2.287-56.367-2.287-52.917 23.67 9.588 22.387 37.872 1.043 55.765 5.697 15.285 5.858 25.275 24.192 18.856 39.999-7.462 15.285-47.381 8.585-35.385 35.224 8.465 17.412 29.527-6.379 36.147 9.869 18.214 46.538-36.267 92.033-71.532 49.507-5.536-8.305-3.49-21.022-16.97-22.667-38.956-.161-5.617 48.664 12.798 57.851 53.599 34.623 120.035-18.615 106.796-78.833z" fill="#fff"/><path d="M583.208 36.314c-.842 14.002 7.302 23.028 20.862 26.238 13.56 3.21 24.753-12.477 42.606-7.543-19.137-9.468-36.829 5.978-49.507-1.083-12.597-7.02-13.961-12.236-13.961-17.612zm-26.88 125.452c-1.725 14.403 14.242 63.268 80.077 68.964 65.835 5.697 77.429-68.964 77.429-68.964s-11.153 67.56-76.346 65.394c-65.193-2.167-73.177-50.068-71.933-56.608 1.284-6.499-7.061-17.411-9.227-8.786zm74.261-41.523c.802 8.184 13.72 18.094 25.997 19.779 12.276 1.685 12.276 10.11 12.276 10.11s-1.284-12.678-13.119-14.965c-11.835-2.246-20.781-6.138-25.154-14.924z" fill="#fff"/><path d="M572.405 185.906c.953-.294 1.163-2.352.47-4.596-.693-2.244-2.027-3.825-2.98-3.531-.953.294-1.163 2.352-.47 4.596.693 2.245 2.027 3.825 2.98 3.531zm35.614-133.389c.084-.994-1.746-1.959-4.086-2.155-2.341-.197-4.306.449-4.389 1.442-.084.994 1.746 1.959 4.086 2.156 2.341.196 4.306-.45 4.389-1.443zm-33.931 139.418c.487-.15.59-1.216.231-2.381-.36-1.164-1.046-1.986-1.533-1.836-.487.151-.59 1.217-.231 2.381.36 1.164 1.046 1.986 1.533 1.836z" fill="#fff"/></svg>