<svg width="162" height="161" fill="none" xmlns="http://www.w3.org/2000/svg"><path d="M81 .299C36.644.299.705 36.237.705 80.594c0 44.356 35.939 80.295 80.295 80.295 44.357 0 80.295-35.939 80.295-80.295C161.295 36.237 125.357.299 81 .299zm39.371 101.372a3.89 3.89 0 010 5.504l-12.822 12.789a3.888 3.888 0 01-5.504 0L81 98.725l-21.077 21.239a3.888 3.888 0 01-5.504 0l-12.79-12.821a3.889 3.889 0 010-5.504l21.24-21.045-21.24-21.078a3.889 3.889 0 010-5.504l12.822-12.821a3.889 3.889 0 015.504 0L81 62.463l21.078-21.24a3.889 3.889 0 015.504 0l12.821 12.822a3.888 3.888 0 010 5.504L99.131 80.594l21.24 21.077z" fill="#E74138"/></svg>