<svg id="Layer_1" data-name="Layer 1" xmlns="http://www.w3.org/2000/svg" viewBox="0 0 53.53 33.05"><defs><style>.cls-1{fill:#3f70b7;}.cls-2{fill:#fff;}</style></defs><path class="cls-1" d="M0,0C16.76,0,12.57,33.05,23,33.05H53.53V0Z"/><path class="cls-2" d="M42.08,18.12,43.7,10.8a.84.84,0,0,0-.8-1H29.48l-.31-1.58a.84.84,0,0,0-.81-.68h-3.5a.84.84,0,0,0-.82.85v.56a.84.84,0,0,0,.82.85h2.39l2.4,12.08a2,2,0,0,0-1,1.71,1.91,1.91,0,1,0,3.82,0,2,2,0,0,0-.57-1.41H39.1a2,2,0,0,0-.58,1.41,1.92,1.92,0,1,0,3.83,0,2,2,0,0,0-1.08-1.77l.19-.86a.83.83,0,0,0-.8-1H31.49l-.22-1.12h10A.83.83,0,0,0,42.08,18.12Z"/></svg>