<svg width="858" height="440" viewBox="0 0 858 440" fill="none" xmlns="http://www.w3.org/2000/svg">
<path d="M720.014 247.37C767.43 184.662 835.19 190.066 855.453 216.157C875.717 242.249 769.323 210.955 720.014 247.37Z" fill="#90CCFF"/>
<path d="M744.829 250.717C784.188 240.877 821.855 252.612 823.023 276.405C824.191 300.198 793.494 287.455 783.946 271.203C774.399 254.951 744.829 250.717 744.829 250.717Z" fill="#90CCFF"/>
<path d="M220.755 220.27C165.766 162.602 77.7421 148.932 32.582 158.771C-12.578 168.611 -13.0211 226.521 45.3123 215.592C100.906 205.147 177.932 194.985 220.755 220.27Z" fill="#90CCFF"/>
<path d="M221.36 230.432C150.135 216.52 111.179 252.612 110.373 276.405C109.568 300.198 152.633 285.721 165.847 260.194C179.06 234.667 221.36 230.432 221.36 230.432Z" fill="#90CCFF"/>
<path d="M324.007 141.592C327.794 130.986 324.249 120.017 323.403 109.25C324.088 96.5869 328.519 84.0452 326.102 71.3019C322.758 37.2256 268.333 21.0948 260.396 60.6556C259.268 80.0932 260.96 99.5711 264.344 118.726C237.031 118.928 231.189 132.518 235.782 103.644C235.218 78.6414 243.194 28.9989 223.495 11.8195C209.959 0.850596 188.245 6.73834 181.679 22.7885C176.401 40.4517 184.136 59.5264 182.484 77.8349C182.968 101.346 176.643 124.372 177.287 147.802C176.441 199.219 244.806 172.2 274.416 172.684C281.707 195.832 278.082 230.876 295.606 247.975C311.398 260.678 336.979 250.394 339.356 230.15C338.107 200.631 328.076 171.232 324.007 141.592Z" fill="#90CCFF"/>
<path d="M545.335 90.296C542.878 56.381 506.863 19.885 475.641 9.19836C453.766 3.10898 393.217 2.74604 365.622 64.2447C354.866 88.199 352.771 116.186 362.882 141.31C373.88 177.16 382.501 216.278 425.687 223.456C500.981 241.361 556.253 158.691 545.335 90.296ZM485.834 138.084C477.696 159.497 455.902 178.411 432.214 168.49C424.68 164.377 416.341 149.335 414.327 141.511C404.215 101.507 418.919 78.6415 426.251 69.3663C433.583 60.0911 446.837 57.5908 461.904 62.1881C491.675 78.5205 498.846 107.637 485.834 138.084Z" fill="#90CCFF"/>
<path d="M731.293 101.91C729.924 78.4401 701.764 65.1725 682.346 78.2788C666.152 88.1186 668.085 108.968 656.403 122.397C647.661 122.074 636.461 116.509 626.914 114.452C630.62 86.3442 645.203 60.2929 644.196 31.6204C643.39 8.19041 611.605 -2.65756 596.579 15.288C592.026 21.0547 589.005 27.87 589.69 35.3708C585.138 67.0678 570.554 97.4341 569.668 129.978C572.528 168.813 621.959 165.99 649.594 177.927C645.727 195.106 641.86 212.285 638.032 229.465C632.715 264.428 676.666 272.05 694.231 246.725C700.193 239.264 700.435 227.65 696.285 219.262C702.288 192.606 708.25 165.95 714.253 139.294C720.416 127.518 733.549 117.315 731.293 101.91Z" fill="#90CCFF"/>
<path d="M848.96 332.046L842.03 332.398C802.384 313.151 600.451 300 446.865 300C205.568 300 10 331.343 10 370C10 408.657 205.568 440 446.865 440C688.162 440 646.865 377.291 712.135 370C811.369 358.935 850.007 348.292 848.96 338.798H849V332.046H848.96Z" fill="#90CCFF"/>
<path d="M712.161 363C646.889 370.291 688.147 433 446.881 433C205.615 433 10 401.657 10 363C10 324.343 205.575 293 446.881 293C688.188 293 1048.72 325.445 712.161 363Z" fill="#ABE0FF"/>
<path opacity="0.31" d="M596.409 357.5C547.497 362.954 578.429 410 397.502 410C216.576 410 70 386.5 70 357.5C70 328.5 216.656 305 397.543 305C578.429 305 848.733 329.342 596.409 357.5Z" fill="white"/>
<path opacity="0.31" d="M583.883 349.5C553.306 352.873 572.628 382 459.639 382C346.65 382 255 367.437 255 349.5C255 331.54 346.61 317 459.639 317C572.669 317 741.568 332.075 583.883 349.5Z" fill="white"/>
<path d="M147 410C147 410 265.45 429.845 459 428.972C459 428.949 249.174 422.403 147 410Z" fill="white"/>
<path d="M664.469 378.895C664.469 378.895 672.942 362.652 701.847 360.204C730.752 357.755 710.036 350.773 687.252 358.628C664.469 366.483 653.077 384.641 664.469 378.895Z" fill="white"/>
<path d="M737.352 355.813C746.568 354.914 753.749 353.181 753.392 351.943C753.035 350.705 745.275 350.43 736.059 351.329C726.844 352.228 719.662 353.961 720.019 355.199C720.376 356.437 728.136 356.712 737.352 355.813Z" fill="white"/>
<path d="M756.018 348.754C760.275 348.339 763.591 347.536 763.426 346.962C763.26 346.387 759.675 346.258 755.418 346.674C751.162 347.089 747.845 347.891 748.011 348.466C748.176 349.04 751.761 349.169 756.018 348.754Z" fill="white"/>
<path d="M324.007 135.342C327.794 124.736 324.249 113.767 323.403 102.999C324.088 90.3366 328.519 77.7949 326.102 65.0516C322.758 31.0156 268.333 14.8445 260.396 54.4456C259.268 73.8832 260.96 93.3612 264.344 112.517C237.031 112.718 231.189 126.308 235.782 97.4342C235.218 72.4315 243.194 22.7889 223.495 5.60959C209.959 -5.35936 188.245 0.52838 181.679 16.5785C176.401 34.2418 184.136 53.3164 182.484 71.6249C182.968 95.1356 176.643 118.162 177.287 141.592C176.441 193.009 244.806 165.99 274.416 166.474C281.707 189.622 278.082 224.666 295.606 241.765C311.398 254.468 336.979 244.184 339.356 223.94C338.107 194.38 328.076 164.982 324.007 135.342Z" fill="#ABE0FF"/>
<path d="M545.335 84.046C542.878 50.131 506.863 13.635 475.641 2.94836C453.766 -3.14102 393.217 -3.50396 365.622 57.9947C354.866 81.949 352.771 109.936 362.882 135.06C373.88 170.91 382.501 210.028 425.687 217.206C500.981 235.111 556.253 152.441 545.335 84.046ZM485.834 131.834C477.696 153.247 455.902 172.161 432.214 162.24C424.68 158.127 416.341 143.085 414.327 135.261C404.215 95.2569 418.919 72.3915 426.251 63.1163C433.583 53.8411 446.837 51.3408 461.904 55.9381C491.675 72.2705 498.846 101.387 485.834 131.834Z" fill="#ABE0FF"/>
<path d="M731.293 95.6194C729.924 72.1491 701.764 58.8815 682.346 71.9878C666.152 81.8275 668.085 102.677 656.403 116.106C647.661 115.783 636.461 110.218 626.914 108.161C630.62 80.0532 645.203 54.0019 644.196 25.3294C643.39 1.89939 611.605 -8.94858 596.579 8.99695C592.026 14.7637 589.005 21.579 589.69 29.0798C585.138 60.7768 570.554 91.1431 569.668 123.687C572.528 162.522 621.959 159.699 649.594 171.636C645.727 188.815 641.86 205.994 638.032 223.174C632.715 258.137 676.666 265.759 694.231 240.434C700.193 232.973 700.435 221.359 696.285 212.971C702.288 186.315 708.25 159.659 714.253 133.003C720.416 121.267 733.549 111.065 731.293 95.6194Z" fill="#ABE0FF"/>
<path d="M720.014 247.37C767.43 184.661 835.19 185.791 855.453 211.882C875.717 237.974 769.323 210.955 720.014 247.37Z" fill="#ABE0FF"/>
<path d="M744.829 250.717C784.188 240.877 821.855 248.338 823.023 272.131C824.191 295.924 793.494 283.18 783.946 266.928C774.399 250.677 744.829 250.717 744.829 250.717Z" fill="#ABE0FF"/>
<path d="M220.755 220.269C165.766 162.602 77.7421 144.656 32.582 154.496C-12.578 164.336 -13.0211 222.245 45.3123 211.317C100.906 200.872 177.932 194.984 220.755 220.269Z" fill="#ABE0FF"/>
<path d="M221.36 230.433C150.135 216.52 111.179 248.338 110.373 272.131C109.568 295.924 152.633 281.447 165.847 255.92C179.06 230.393 221.36 230.433 221.36 230.433Z" fill="#ABE0FF"/>
<path opacity="0.31" d="M322.84 197.002C319.738 171.192 308.256 157.481 307.571 121.187C306.927 84.8927 306.282 81.8278 305.557 61.8659C305.799 48.3161 286.704 43.4365 277.962 51.9052C268.212 67.0681 277.116 87.8365 277.277 104.693C277.196 113.847 276.511 118.525 266.279 119.009C252.582 122.034 238.442 122.881 224.422 122.074C224.583 87.4736 227.887 50.6147 216.607 17.6272C208.308 5.52911 188.085 15.6512 192.476 29.685C196.182 53.4779 199.405 77.3918 197.068 101.548C196.303 118.888 193.644 145.02 216.204 148.69C232.681 151.392 249.681 149.698 266.077 147.117C276.27 145.706 281.91 140.141 282.635 153.691C286.502 168.45 292.988 182.565 294.72 197.849C296.009 203.696 297.178 210.673 302.294 214.383C313.292 223.9 330.212 209.422 322.84 197.002Z" fill="white"/>
<path opacity="0.31" d="M529.826 123.969C526.683 100.983 534.7 76.6254 524.065 54.8085C514.155 34.0804 466.618 1.73813 443.091 6.73867C420.652 12.7877 392.936 19.2804 380.125 40.4521C353.698 88.4009 360.586 154.9 406.834 188.049C453.324 217.891 534.982 184.137 529.826 123.969ZM486.076 159.094C411.306 207.285 364.776 105.298 406.955 50.2918C423.23 29.0395 455.781 25.773 475.4 46.3801C521.245 94.5306 497.557 150.222 486.076 159.094Z" fill="white"/>
<path opacity="0.31" d="M707.968 86.9091C706.236 77.4726 695.6 71.9881 687.181 77.029C679.969 81.0213 676.827 97.1118 673.564 104.855C670.019 111.549 668.81 123.405 662.929 124.897C657.047 126.389 615.231 114.372 612.33 106.871C609.47 99.3701 613.216 89.9739 618.776 74.7706C621.878 62.108 623.368 49.042 627.88 36.7019C631.909 33.5564 633.722 27.5074 632.272 22.5875C628.565 9.84415 611.565 9.07794 605.119 20.0469C602.057 25.7733 600.406 32.266 598.512 38.4763C595.249 49.0823 594.766 60.3336 591.019 70.7379C586.225 80.0535 584.211 90.4579 584.574 100.903C584.815 106.871 584.493 113.243 587.071 118.767C591.865 131.148 606.086 133.688 617.446 136.915C631.425 141.27 653.824 145.262 658.376 152.521C662.929 159.78 651.488 185.347 649.232 201.962C647.217 214.383 651.649 231.562 667.521 228.094C674.692 226.199 679.244 218.254 677.149 211.116C675.901 208.455 676.465 205.511 676.706 202.728C678.64 188.815 680.977 174.862 684.602 161.272C688.711 145.908 694.029 130.866 698.944 115.743C700.596 112.638 702.247 109.533 703.899 106.427C707.122 100.54 709.7 93.7244 707.968 86.9091Z" fill="white"/>
<path d="M183.37 117.638C182.162 137.559 179.422 160.384 197.269 165.707C215.115 171.031 246.699 165.707 246.699 165.707C246.699 165.707 198.598 168.45 191.871 155.222C185.103 142.036 183.37 117.638 183.37 117.638Z" fill="white"/>
<path d="M290.449 227.045C297.459 238.659 313.372 247.329 326.746 236.28C340.161 225.27 331.379 194.259 331.379 194.259C331.379 194.259 334.199 231.521 316.796 235.675C299.393 239.828 290.449 227.045 290.449 227.045Z" fill="white"/>
<path d="M384.516 177.886C398.736 201.316 413.118 211.882 448.811 211.156C484.504 210.43 512.261 178.007 519.552 168.087C500.538 189.178 467.101 203.171 431.77 202.123C396.4 201.115 384.516 177.886 384.516 177.886Z" fill="white"/>
<path d="M641.335 221.197C639.079 233.174 648.547 248.7 665.426 249.91C682.306 251.12 692.78 237.046 693.384 215.995C690.323 234.788 681.742 246.281 662.163 243.821C642.584 241.361 641.335 221.197 641.335 221.197Z" fill="white"/>
<path d="M310.431 233.134C312.9 233.134 314.902 232.286 314.902 231.239C314.902 230.192 312.9 229.344 310.431 229.344C307.961 229.344 305.959 230.192 305.959 231.239C305.959 232.286 307.961 233.134 310.431 233.134Z" fill="white"/>
<path d="M672.678 241.683C675.147 241.683 677.149 240.835 677.149 239.788C677.149 238.741 675.147 237.893 672.678 237.893C670.208 237.893 668.206 238.741 668.206 239.788C668.206 240.835 670.208 241.683 672.678 241.683Z" fill="white"/>
<path d="M321.631 229.384C322.877 229.384 323.887 228.951 323.887 228.416C323.887 227.882 322.877 227.448 321.631 227.448C320.385 227.448 319.375 227.882 319.375 228.416C319.375 228.951 320.385 229.384 321.631 229.384Z" fill="white"/>
<path d="M437.774 199.703C439.019 199.703 440.03 199.27 440.03 198.735C440.03 198.201 439.019 197.768 437.774 197.768C436.528 197.768 435.518 198.201 435.518 198.735C435.518 199.27 436.528 199.703 437.774 199.703Z" fill="white"/>
<path d="M660.391 238.861C661.637 238.861 662.647 238.427 662.647 237.893C662.647 237.358 661.637 236.925 660.391 236.925C659.145 236.925 658.135 237.358 658.135 237.893C658.135 238.427 659.145 238.861 660.391 238.861Z" fill="white"/>
<path d="M431.39 197.847C431.527 196.855 429.744 195.788 427.408 195.465C425.072 195.142 423.067 195.685 422.93 196.678C422.793 197.671 424.576 198.737 426.912 199.06C429.248 199.383 431.253 198.84 431.39 197.847Z" fill="white"/>
<path d="M574.382 107.838C573.616 118.202 566.728 141.592 599.721 153.044C632.715 164.497 639.523 161.715 647.581 166.514C621.476 149.375 595.693 154.416 584.494 136.349C573.334 118.323 575.349 120.259 574.382 107.838Z" fill="white"/>
<path opacity="0.31" d="M39.0675 191.92C20.7779 198.009 9.53823 190.71 12.1165 174.902C14.6948 159.094 88.8603 147.076 145.703 176.797C202.546 206.518 190.702 200.026 190.702 200.026C190.702 200.026 122.539 164.256 39.0675 191.92Z" fill="white"/>
<path d="M3.53711 190.751C6.96137 198.655 8.21022 214.826 53.3299 207.406C37.0143 207.93 11.7956 205.511 3.53711 190.751Z" fill="white"/>
<path d="M64.6634 205.172C68.9708 204.652 72.3523 203.316 72.2164 202.188C72.0805 201.06 68.4785 200.568 64.1712 201.088C59.8638 201.608 56.4823 202.944 56.6182 204.072C56.7541 205.2 60.3561 205.692 64.6634 205.172Z" fill="white"/>
<path d="M80.7632 202.809C83.0993 202.809 84.9932 202.321 84.9932 201.72C84.9932 201.118 83.0993 200.631 80.7632 200.631C78.427 200.631 76.5332 201.118 76.5332 201.72C76.5332 202.321 78.427 202.809 80.7632 202.809Z" fill="white"/>
<path d="M120.324 277.051C122.66 277.051 124.554 276.563 124.554 275.962C124.554 275.361 122.66 274.873 120.324 274.873C117.988 274.873 116.094 275.361 116.094 275.962C116.094 276.563 117.988 277.051 120.324 277.051Z" fill="white"/>
<path opacity="0.31" d="M185.707 229.304C173.42 229.304 141.353 234.304 124.836 252.25C108.319 270.195 113.556 277.333 117.302 278.22C121.049 279.108 130.194 277.091 139.741 263.057C149.249 249.024 160.65 233.82 185.707 229.304Z" fill="white"/>
<path d="M111.945 275.478C115.208 281.003 121.775 284.673 134.465 279.39C147.155 274.107 151.667 268.905 158.435 261.605C151.143 268.3 120.083 288.262 111.945 275.478Z" fill="white"/>
<path opacity="0.31" d="M739.552 230.311C751.637 220.189 788.378 193.09 823.869 199.945C859.321 206.801 851.787 221.601 839.54 218.778C827.253 215.915 776.856 212.487 739.552 230.311Z" fill="white"/>
<path d="M853.479 218.052C853.197 219.745 848.766 223.738 817.303 223.899C785.84 224.06 757.963 227.246 746.521 233.013C762.475 224.907 789.627 222.246 817.706 222.044C845.825 221.842 850.458 220.633 853.479 218.052Z" fill="white"/>
<path d="M762.233 250.959C763.478 250.959 764.489 250.526 764.489 249.991C764.489 249.457 763.478 249.023 762.233 249.023C760.987 249.023 759.977 249.457 759.977 249.991C759.977 250.526 760.987 250.959 762.233 250.959Z" fill="white"/>
<path opacity="0.31" d="M767.551 249.991C780.845 249.104 801.31 250.313 810.697 258.54C820.083 266.767 822.017 277.292 815.41 280.478C808.843 283.664 801.552 267.049 796.033 261.968C790.554 256.927 777.904 249.063 767.551 249.991Z" fill="white"/>
<path d="M766.463 252.813C775.406 255.757 781.046 257.491 786.565 266.888C792.084 276.284 811.381 287.575 819.317 279.954C812.711 280.76 805.379 281.607 797.201 275.074C789.023 268.581 786.444 256.645 766.463 252.813Z" fill="white"/>
</svg>
