<svg width="855" height="438" viewBox="0 0 855 438" fill="none" xmlns="http://www.w3.org/2000/svg">
<path d="M359.622 176.607C357.415 122.085 305.42 72.1365 249.695 86.3789C241.35 92.3968 235.693 87.5825 236.816 77.3921C253.947 69.97 286.725 63.5509 307.306 67.1617C331.699 68.3251 345.5 35.0661 327.446 18.5369C294.307 -5.05331 252.824 18.3764 217.198 23.2309C203.637 23.592 188.954 26.7614 181.772 39.4391C167.249 62.3875 194.009 165.254 226.826 161.723C238.822 162.044 247.809 153.98 253.586 144.592C277.578 132.235 300.285 154.02 302.773 177.731C303.334 188.523 285.481 188.202 277.618 189.245C267.708 181.021 253.506 176.969 241.711 184.351C205.683 209.947 242.192 247.057 275.852 246.134C315.932 247.94 363.473 221.902 359.622 176.607Z" fill="#90CCFF"/>
<path d="M717.046 246.696C764.266 184.311 831.747 189.687 851.927 215.644C872.108 241.601 766.152 210.509 717.046 246.696Z" fill="#90CCFF"/>
<path d="M741.759 250.026C780.956 240.237 818.468 251.912 819.631 275.582C820.795 299.253 790.224 286.575 780.715 270.407C771.207 254.239 741.759 250.026 741.759 250.026Z" fill="#90CCFF"/>
<path d="M219.846 219.736C165.083 162.366 77.4216 148.765 32.4478 158.554C-12.5261 168.343 -12.9675 225.955 45.1255 215.082C100.49 204.692 177.199 194.622 219.846 219.736Z" fill="#90CCFF"/>
<path d="M220.447 229.846C149.516 216.005 110.721 251.912 109.918 275.582C109.116 299.253 152.004 284.85 165.163 259.454C178.322 234.059 220.447 229.846 220.447 229.846Z" fill="#90CCFF"/>
<path d="M543.088 90.4315C540.641 56.691 504.774 20.3829 473.681 9.75129C451.937 3.69325 391.597 3.33218 364.115 64.5143C353.403 88.3453 351.317 116.188 361.387 141.183C372.34 176.849 380.925 215.765 423.933 222.906C498.916 240.719 553.96 158.474 543.088 90.4315ZM483.832 138.013C475.727 159.317 454.023 178.133 430.433 168.263C422.93 164.171 414.626 149.206 412.62 141.423C402.55 101.625 417.193 78.8771 424.495 69.6496C431.797 60.4221 444.996 57.9347 460.001 62.5083C489.649 78.7166 496.79 107.683 483.832 138.013Z" fill="#90CCFF"/>
<path d="M845.96 330.064L839.055 330.416C799.551 311.149 598.339 298 445.303 298C204.869 298 10 329.338 10 368.012C10 406.686 204.869 438 445.303 438C685.737 438 644.588 375.278 709.624 368.012C808.504 356.949 847.004 346.307 845.96 336.815H846V330.064H845.96Z" fill="#90CCFF"/>
<path d="M709.65 361C644.611 368.291 685.722 431 445.319 431C204.916 431 10 399.657 10 361C10 322.343 204.876 291 445.319 291C685.763 291 1045 323.445 709.65 361Z" fill="#ABE0FF"/>
<path opacity="0.31" d="M596.749 355.5C547.994 360.954 578.827 408 398.484 408C218.142 408 72 384.5 72 355.5C72 326.5 218.182 303 398.484 303C578.787 303 848.257 327.319 596.749 355.5Z" fill="white"/>
<path opacity="0.31" d="M581.209 347.512C550.788 350.884 570.012 380 457.598 380C345.184 380 254 365.442 254 347.512C254 329.581 345.143 315 457.598 315C570.052 315 738.092 330.07 581.209 347.512Z" fill="white"/>
<path d="M147 408C147 408 264.691 427.845 457 426.972C457 426.972 248.519 420.403 147 408Z" fill="white"/>
<path d="M662.389 375.933C662.389 375.933 670.711 360.344 699.099 357.994C727.488 355.644 707.142 348.943 684.766 356.482C662.389 364.02 651.201 381.471 662.389 375.933Z" fill="white"/>
<path d="M734.318 353.971C743.495 353.073 750.647 351.344 750.292 350.108C749.936 348.872 742.208 348.598 733.03 349.495C723.853 350.393 716.701 352.122 717.056 353.358C717.412 354.594 725.14 354.868 734.318 353.971Z" fill="white"/>
<path d="M752.907 346.925C757.146 346.511 760.449 345.71 760.284 345.137C760.12 344.563 756.549 344.434 752.31 344.849C748.071 345.264 744.768 346.064 744.933 346.638C745.098 347.211 748.668 347.34 752.907 346.925Z" fill="white"/>
<path d="M543.088 84.2127C540.641 50.4723 504.774 14.1642 473.681 3.53254C451.937 -2.5255 391.597 -2.88657 364.115 58.2956C353.403 82.1265 351.317 109.969 361.387 134.964C372.34 170.63 380.925 209.546 423.933 216.687C498.916 234.5 553.96 152.255 543.088 84.2127ZM483.832 131.794C475.727 153.098 454.023 171.914 430.433 162.044C422.93 157.952 414.626 142.988 412.62 135.205C402.55 95.4061 417.193 72.6583 424.495 63.4309C431.797 54.2034 444.996 51.716 460.001 56.2896C489.649 72.4978 496.79 101.464 483.832 131.794Z" fill="#ABE0FF"/>
<path d="M717.046 246.696C764.266 184.31 831.747 185.434 851.927 211.391C872.108 237.348 766.152 210.508 717.046 246.696Z" fill="#ABE0FF"/>
<path d="M741.759 250.026C780.956 240.237 818.468 247.659 819.631 271.33C820.795 295 790.224 282.322 780.715 266.154C771.207 249.986 741.759 250.026 741.759 250.026Z" fill="#ABE0FF"/>
<path d="M219.846 219.736C165.083 162.365 77.4216 144.512 32.4478 154.301C-12.5261 164.09 -12.9675 221.702 45.1255 210.83C100.49 200.439 177.199 194.621 219.846 219.736Z" fill="#ABE0FF"/>
<path d="M220.447 229.846C149.516 216.005 110.721 247.659 109.918 271.33C109.116 295 152.004 280.597 165.163 255.202C178.322 229.806 220.447 229.846 220.447 229.846Z" fill="#ABE0FF"/>
<path opacity="0.31" d="M527.642 123.971C524.513 101.103 532.496 76.8709 521.905 55.1663C512.035 34.5449 464.735 2.40927 441.305 7.34396C418.958 13.3619 391.356 19.8211 378.598 40.8838C352.28 88.5858 359.14 154.743 405.197 187.721C451.455 217.369 532.777 183.829 527.642 123.971ZM484.072 158.875C409.61 206.818 363.273 105.396 405.278 50.6328C421.486 29.4899 453.902 26.2402 473.441 46.7412C519.096 94.6439 495.506 150.049 484.072 158.875Z" fill="white"/>
<path d="M382.931 177.571C397.093 200.88 411.416 211.391 446.962 210.669C482.508 209.947 510.15 177.691 517.411 167.822C498.475 188.804 465.176 202.726 429.991 201.683C394.766 200.68 382.931 177.571 382.931 177.571Z" fill="white"/>
<path d="M435.969 199.315C437.21 199.315 438.216 198.884 438.216 198.353C438.216 197.821 437.21 197.39 435.969 197.39C434.729 197.39 433.723 197.821 433.723 198.353C433.723 198.884 434.729 199.315 435.969 199.315Z" fill="white"/>
<path d="M429.6 197.441C429.736 196.453 427.96 195.392 425.634 195.07C423.307 194.749 421.311 195.289 421.174 196.277C421.038 197.265 422.813 198.326 425.14 198.647C427.467 198.968 429.463 198.428 429.6 197.441Z" fill="white"/>
<path d="M738.951 124.573C743.765 91.1132 716.444 47.9848 688.36 30.934C668.381 20.3425 609.526 7.1432 569.647 61.0637C554.121 82.0462 546.137 108.806 550.63 135.365C553.72 172.556 553.8 212.394 594.32 228.562C663.727 261.982 735.019 193.378 738.951 124.573ZM670.908 158.393C658.431 177.49 633.236 191.251 612.294 176.568C605.835 170.951 600.9 154.582 600.619 146.558C599.255 105.516 618.432 86.4192 627.539 78.957C636.646 71.4948 650.046 71.8559 663.767 79.5588C689.243 101.745 690.045 131.554 670.908 158.393Z" fill="#90CCFF"/>
<path d="M740.275 118.515C745.089 85.0551 717.768 41.9267 689.685 24.8759C669.705 14.2844 610.85 1.0851 570.971 55.0056C555.445 75.9881 547.461 102.748 551.955 129.307C555.044 166.498 555.124 206.336 595.645 222.504C665.051 255.924 736.343 187.279 740.275 118.515ZM672.233 152.335C659.755 171.432 634.56 185.193 613.618 170.509C607.159 164.893 602.224 148.524 601.943 140.5C600.579 99.458 619.756 80.3611 628.864 72.8989C637.971 65.4367 651.371 65.7977 665.091 73.5007C690.567 95.6867 691.37 125.495 672.233 152.335Z" fill="#ABE0FF"/>
<path opacity="0.31" d="M716.725 154.021C718.57 131.033 731.489 109.047 725.792 85.6173C720.536 63.351 681.139 21.8675 657.227 21.707C634.079 22.7903 605.754 23.2717 588.784 41.1248C552.917 82.1269 545.495 148.244 583.488 190.289C622.364 229.044 708.941 213.598 716.725 154.021ZM666.696 178.895C583.729 209.827 560.058 100.823 612.775 56.29C633.116 39.0787 665.492 42.8099 680.176 67.0019C714.598 123.57 679.734 172.676 666.696 178.895Z" fill="white"/>
<path d="M563.87 175.564C572.737 201.361 584.492 214.681 619.355 221.581C654.259 228.482 688.12 202.806 697.307 194.742C674.319 211.191 638.813 217.69 604.672 209.185C570.53 200.679 563.87 175.564 563.87 175.564Z" fill="white"/>
<path d="M639.132 208.634C639.152 208.102 638.164 207.633 636.924 207.584C635.684 207.536 634.663 207.928 634.642 208.459C634.621 208.991 635.61 209.46 636.849 209.509C638.089 209.557 639.111 209.165 639.132 208.634Z" fill="white"/>
<path d="M630.566 207.427C630.74 206.445 629.008 205.316 626.695 204.904C624.383 204.493 622.367 204.955 622.192 205.936C622.018 206.918 623.75 208.047 626.063 208.459C628.375 208.87 630.391 208.408 630.566 207.427Z" fill="white"/>
<path opacity="0.31" d="M38.907 191.572C20.6928 197.631 9.49949 190.369 12.0671 174.642C14.6348 158.915 88.4947 146.96 145.103 176.528C201.712 206.096 189.917 199.596 189.917 199.596C189.917 199.596 122.035 164.01 38.907 191.572Z" fill="white"/>
<path d="M3.52148 190.369C6.93164 198.232 8.17533 214.32 53.1091 206.938C36.8607 207.46 11.746 205.052 3.52148 190.369Z" fill="white"/>
<path d="M64.3949 204.716C68.6845 204.198 72.0521 202.869 71.9167 201.747C71.7814 200.625 68.1942 200.135 63.9047 200.653C59.6151 201.171 56.2474 202.5 56.3828 203.622C56.5182 204.744 60.1053 205.233 64.3949 204.716Z" fill="white"/>
<path d="M80.4308 202.405C82.7573 202.405 84.6433 201.92 84.6433 201.322C84.6433 200.723 82.7573 200.238 80.4308 200.238C78.1043 200.238 76.2183 200.723 76.2183 201.322C76.2183 201.92 78.1043 202.405 80.4308 202.405Z" fill="white"/>
<path d="M119.828 276.224C122.155 276.224 124.041 275.739 124.041 275.141C124.041 274.543 122.155 274.058 119.828 274.058C117.502 274.058 115.616 274.543 115.616 275.141C115.616 275.739 117.502 276.224 119.828 276.224Z" fill="white"/>
<path opacity="0.31" d="M184.942 228.763C172.705 228.763 140.77 233.738 124.321 251.591C107.872 269.444 113.088 276.545 116.819 277.428C120.55 278.311 129.657 276.305 139.165 262.343C148.633 248.341 159.987 233.257 184.942 228.763Z" fill="white"/>
<path d="M111.483 274.66C114.733 280.156 121.272 283.807 133.91 278.552C146.547 273.296 151.041 268.121 157.781 260.859C150.519 267.559 119.587 287.378 111.483 274.66Z" fill="white"/>
<path opacity="0.31" d="M736.504 229.726C748.54 219.656 785.129 192.695 820.474 199.516C855.779 206.336 848.277 221.06 836.08 218.252C823.844 215.403 773.655 211.993 736.504 229.726Z" fill="white"/>
<path d="M849.961 217.53C849.681 219.215 845.267 223.187 813.934 223.347C782.601 223.508 754.838 226.677 743.444 232.414C759.332 224.35 786.372 221.702 814.335 221.502C842.339 221.301 846.953 220.097 849.961 217.53Z" fill="white"/>
<path d="M831.426 220.097C832.667 220.097 833.673 219.666 833.673 219.134C833.673 218.602 832.667 218.171 831.426 218.171C830.186 218.171 829.18 218.602 829.18 219.134C829.18 219.666 830.186 220.097 831.426 220.097Z" fill="white"/>
<path d="M759.091 250.267C760.332 250.267 761.338 249.836 761.338 249.304C761.338 248.772 760.332 248.341 759.091 248.341C757.85 248.341 756.844 248.772 756.844 249.304C756.844 249.836 757.85 250.267 759.091 250.267Z" fill="white"/>
<path opacity="0.31" d="M764.387 249.305C777.626 248.422 798.007 249.626 807.355 257.81C816.702 265.994 818.628 276.465 812.049 279.635C805.509 282.804 798.248 266.275 792.751 261.22C787.295 256.205 774.697 248.422 764.387 249.305Z" fill="white"/>
<path d="M763.304 252.112C772.21 255.041 777.827 256.766 783.323 266.114C788.82 275.462 808.037 286.695 815.94 279.113C809.361 279.915 802.059 280.758 793.915 274.258C785.771 267.799 783.203 255.964 763.304 252.112Z" fill="white"/>
<path d="M841.095 219.134C843.554 219.134 845.548 218.29 845.548 217.248C845.548 216.207 843.554 215.363 841.095 215.363C838.635 215.363 836.642 216.207 836.642 217.248C836.642 218.29 838.635 219.134 841.095 219.134Z" fill="white"/>
<path d="M359.622 171.272C357.415 116.75 305.42 66.801 249.695 81.0434C241.35 87.0614 235.693 82.247 236.816 72.0567C253.947 64.6346 286.725 58.2155 307.306 61.8262C331.699 62.9897 345.5 29.7307 327.446 13.2015C294.307 -10.3888 252.824 13.041 217.198 17.8954C203.637 18.2565 188.954 21.426 181.772 34.1037C167.249 57.052 194.009 159.918 226.826 156.388C238.822 156.709 247.809 148.645 253.586 139.257C277.578 126.9 300.285 148.685 302.773 172.395C303.334 183.188 285.481 182.867 277.618 183.91C267.708 175.685 253.506 171.633 241.711 179.015C205.683 204.611 242.192 241.722 275.852 240.799C315.932 242.604 363.473 216.527 359.622 171.272Z" fill="#ABE0FF"/>
<path opacity="0.31" d="M349.993 169.026C322.27 56.0492 245.562 92.3573 240.146 88.7866C234.73 85.216 224.339 71.3748 226.987 62.9899C229.635 54.6049 350.635 55.9288 309.793 15.7693C289.332 6.26097 268.992 25.2776 248.009 25.3979C222.734 28.2464 178.201 18.377 187.63 59.1785C234.609 195.384 215.472 110.852 281.83 121.725C312.441 142.547 332.661 184.391 279.262 191.573C267.507 189.165 252.422 179.497 243.476 195.384C233.285 259.615 359.541 218.212 349.993 169.026Z" fill="white"/>
<path d="M249.334 138.534C249.334 138.534 244.72 149.687 230.718 151.934C216.716 154.181 208.492 143.188 200.067 128.625C211.822 141.703 223.537 156.066 249.334 138.534Z" fill="white"/>
<path d="M233.647 206.417C236.816 217.249 248.21 242.404 297.838 233.858C347.466 225.273 355.088 188.884 354.888 166.899C350.274 201.041 320.064 228.201 284.238 228.522C248.371 228.803 233.647 206.417 233.647 206.417Z" fill="white"/>
<path d="M269.55 221.531C269.687 220.543 267.911 219.482 265.585 219.161C263.258 218.839 261.261 219.38 261.125 220.367C260.989 221.355 262.764 222.416 265.091 222.738C267.417 223.059 269.414 222.519 269.55 221.531Z" fill="white"/>
<path d="M231.8 142.898C231.937 141.91 230.161 140.849 227.835 140.528C225.508 140.207 223.511 140.747 223.375 141.735C223.239 142.722 225.014 143.783 227.341 144.105C229.667 144.426 231.664 143.886 231.8 142.898Z" fill="white"/>
<path d="M276.574 224.35C277.815 224.35 278.821 223.918 278.821 223.387C278.821 222.855 277.815 222.424 276.574 222.424C275.334 222.424 274.328 222.855 274.328 223.387C274.328 223.918 275.334 224.35 276.574 224.35Z" fill="white"/>
<path d="M255.793 62.869C261.691 60.502 292.984 56.0086 301.93 56.1289C310.877 56.2493 315.691 57.0918 321.709 51.2344C316.935 54.3236 309.513 53.8421 297.437 54.7248C266.023 57.0517 255.793 62.869 255.793 62.869Z" fill="white"/>
</svg>
