<svg width="855" height="439" viewBox="0 0 855 439" fill="none" xmlns="http://www.w3.org/2000/svg">
<path d="M716.925 184.313C721.659 165.417 724.748 142.99 717.286 124.415C715.199 119.24 715.28 113.423 717.406 108.247C743.844 44.4183 680.657 -5.60995 616.587 7.86999C577.191 9.1538 559.378 63.6352 603.188 74.3068C610.329 76.6739 617.59 74.7883 623.809 71.1776C631.792 66.5639 641.06 64.558 650.167 66.0022C656.185 66.9651 661.52 69.2117 663.968 74.9086C670.106 99.0201 635.443 84.0156 627.379 102.711C618.192 115.75 621.321 134.285 634.32 143.552C655.543 153.903 674.72 144.836 655.824 176.53C645.834 184.754 628.944 181.023 617.671 176.931C602.987 170.873 604.873 150.372 588.063 146.16C534.544 136.05 541.204 202.406 578.274 221.102C623.287 254.28 701.358 244.21 716.925 184.313Z" fill="#90CCFF"/>
<path d="M359.626 177.613C357.419 123.091 305.425 73.1434 249.7 87.3856C241.355 93.4034 235.698 88.5892 236.822 78.399C253.952 70.977 286.73 64.558 307.311 68.1687C331.703 69.3321 345.504 36.0736 327.45 19.5446C294.312 -4.04531 252.829 19.3841 217.204 24.2385C203.643 24.5996 188.96 27.769 181.779 40.4465C167.256 63.3945 194.015 166.259 226.832 162.729C238.828 163.05 247.814 154.986 253.591 145.598C277.582 133.241 300.29 155.026 302.777 178.736C303.339 189.528 285.486 189.207 277.623 190.25C267.713 182.026 253.511 177.974 241.716 185.356C205.689 210.952 242.198 248.062 275.857 247.139C315.936 248.944 363.477 222.867 359.626 177.613Z" fill="#90CCFF"/>
<path d="M717.045 247.701C764.265 185.316 831.745 190.692 851.925 216.649C872.104 242.606 766.15 211.473 717.045 247.701Z" fill="#90CCFF"/>
<path d="M741.758 251.031C780.954 241.242 818.465 252.916 819.629 276.586C820.792 300.257 790.221 287.579 780.713 271.411C771.205 255.243 741.758 251.031 741.758 251.031Z" fill="#90CCFF"/>
<path d="M219.851 220.701C165.089 163.371 77.4293 149.731 32.4561 159.56C-12.5172 169.389 -12.9585 226.959 45.1337 216.087C100.498 205.696 177.205 195.587 219.851 220.701Z" fill="#90CCFF"/>
<path d="M220.454 230.851C149.523 217.01 110.729 252.916 109.926 276.586C109.124 300.256 152.011 285.854 165.17 260.458C178.329 235.063 220.454 230.851 220.454 230.851Z" fill="#90CCFF"/>
<path d="M543.09 91.4376C540.642 57.6977 504.776 21.3901 473.684 10.7586C451.899 4.70062 391.601 4.33955 364.119 65.5208C353.408 89.3514 351.321 117.194 361.391 142.188C372.344 177.854 380.929 216.769 423.937 223.91C498.919 241.723 553.962 159.479 543.09 91.4376ZM483.834 138.978C475.73 160.282 454.026 179.097 430.436 169.228C422.934 165.136 414.629 150.172 412.623 142.389C402.553 102.591 417.197 79.8433 424.498 70.6159C431.8 61.3886 444.999 58.9012 460.003 63.4748C489.651 79.7229 496.792 108.689 483.834 138.978Z" fill="#90CCFF"/>
<path d="M845.96 331.041L839.055 331.392C799.551 312.149 598.339 299 445.303 299C204.869 299 10 330.338 10 368.988C10 407.639 204.869 439 445.303 439C685.737 439 644.588 376.278 709.624 368.988C808.504 357.925 847.004 347.284 845.96 337.791H846V331.041H845.96Z" fill="#90CCFF"/>
<path d="M709.65 362C644.611 369.291 685.722 432 445.319 432C204.916 432 10 400.657 10 362C10 323.343 204.876 292 445.319 292C685.763 292 1045 324.421 709.65 362Z" fill="#ABE0FF"/>
<path opacity="0.31" d="M596.735 356.5C547.979 361.954 578.812 409 398.461 409C218.11 409 72 385.5 72 356.5C72 327.5 218.19 304 398.501 304C578.812 304 848.257 328.342 596.735 356.5Z" fill="white"/>
<path opacity="0.31" d="M581.209 349C550.788 352.425 570.012 382 457.598 382C345.184 382 254 367.213 254 349C254 330.787 345.143 316 457.598 316C570.052 316 738.092 331.283 581.209 349Z" fill="white"/>
<path d="M147 409C147 409 264.691 428.845 457 427.972C457 427.949 248.519 421.403 147 409Z" fill="white"/>
<path d="M662.389 376.933C662.389 376.933 670.711 361.344 699.099 358.994C727.488 356.644 707.142 349.943 684.766 357.482C662.389 365.02 651.201 382.471 662.389 376.933Z" fill="white"/>
<path d="M734.313 354.928C743.49 354.03 750.642 352.3 750.287 351.064C749.931 349.828 742.203 349.554 733.026 350.451C723.848 351.349 716.696 353.079 717.052 354.315C717.407 355.551 725.135 355.825 734.313 354.928Z" fill="white"/>
<path d="M752.902 347.88C757.141 347.466 760.444 346.664 760.279 346.091C760.114 345.518 756.544 345.389 752.305 345.803C748.065 346.218 744.763 347.019 744.928 347.593C745.092 348.166 748.663 348.295 752.902 347.88Z" fill="white"/>
<path d="M543.09 85.2196C540.642 51.4796 504.776 15.1721 473.684 4.54055C451.94 -1.55751 391.601 -1.87846 364.119 59.2627C353.408 83.0933 351.321 110.936 361.391 135.93C372.344 171.596 380.929 210.511 423.937 217.652C498.919 235.505 553.962 153.261 543.09 85.2196ZM483.834 132.76C475.73 154.064 454.026 172.879 430.436 163.01C422.934 158.918 414.629 143.954 412.623 136.171C402.553 96.3726 417.197 73.6252 424.498 64.3979C431.8 55.1706 444.999 52.6832 460.003 57.2568C489.651 73.5049 496.792 102.471 483.834 132.76Z" fill="#ABE0FF"/>
<path d="M717.045 247.701C764.265 185.316 831.745 186.439 851.925 212.396C872.104 238.353 766.15 211.474 717.045 247.701Z" fill="#ABE0FF"/>
<path d="M741.758 251.031C780.954 241.242 818.465 248.664 819.629 272.334C820.792 296.004 790.221 283.326 780.713 267.158C771.205 250.991 741.758 251.031 741.758 251.031Z" fill="#ABE0FF"/>
<path d="M219.851 220.701C165.089 163.371 77.4293 145.478 32.4561 155.307C-12.5172 165.136 -12.9585 222.706 45.1337 211.834C100.498 201.443 177.205 195.586 219.851 220.701Z" fill="#ABE0FF"/>
<path d="M220.454 230.851C149.523 217.01 110.729 248.663 109.926 272.333C109.124 296.004 152.011 281.601 165.17 256.206C178.329 230.81 220.454 230.851 220.454 230.851Z" fill="#ABE0FF"/>
<path opacity="0.31" d="M527.643 124.937C524.514 102.069 532.497 77.8372 521.906 56.1329C512.037 35.5118 464.697 3.33646 441.267 8.3112C418.921 14.329 391.319 20.7882 378.561 41.8506C352.243 89.5519 359.104 155.708 405.16 188.686C451.457 218.333 532.778 184.794 527.643 124.937ZM484.074 159.88C409.613 207.822 363.276 106.362 405.281 51.5995C421.489 30.4568 453.905 27.2072 473.442 47.7079C519.098 95.65 495.508 151.054 484.074 159.88Z" fill="white"/>
<path d="M382.935 178.576C397.097 201.885 411.419 212.396 446.964 211.674C482.51 210.951 510.151 178.696 517.413 168.827C498.477 189.809 465.178 203.73 429.994 202.687C394.77 201.684 382.935 178.576 382.935 178.576Z" fill="white"/>
<path d="M435.971 200.28C437.212 200.28 438.218 199.849 438.218 199.317C438.218 198.786 437.212 198.354 435.971 198.354C434.73 198.354 433.725 198.786 433.725 199.317C433.725 199.849 434.73 200.28 435.971 200.28Z" fill="white"/>
<path d="M429.623 198.427C429.76 197.439 427.984 196.378 425.658 196.057C423.331 195.735 421.335 196.276 421.198 197.263C421.062 198.251 422.837 199.312 425.164 199.634C427.49 199.955 429.487 199.415 429.623 198.427Z" fill="white"/>
<path d="M563.871 176.53C572.737 202.326 584.492 215.646 619.355 222.546C654.259 229.447 688.119 203.771 697.306 195.707C674.318 212.155 638.813 218.655 604.672 210.149C570.531 201.644 563.871 176.53 563.871 176.53Z" fill="white"/>
<path d="M639.112 209.617C639.133 209.085 638.144 208.615 636.905 208.567C635.665 208.519 634.643 208.911 634.622 209.442C634.602 209.974 635.59 210.443 636.83 210.491C638.07 210.54 639.091 210.148 639.112 209.617Z" fill="white"/>
<path d="M630.547 208.407C630.722 207.425 628.989 206.296 626.677 205.885C624.364 205.473 622.348 205.935 622.174 206.917C621.999 207.899 623.732 209.028 626.044 209.439C628.356 209.851 630.372 209.389 630.547 208.407Z" fill="white"/>
<path opacity="0.31" d="M38.9154 192.537C20.7015 198.595 9.50831 191.334 12.0759 175.607C14.6435 159.881 88.5024 147.925 145.11 177.493C201.718 207.06 189.923 200.561 189.923 200.561C189.923 200.561 122.042 165.016 38.9154 192.537Z" fill="white"/>
<path d="M64.4006 205.681C68.6902 205.164 72.0578 203.834 71.9224 202.713C71.787 201.591 68.1999 201.101 63.9104 201.618C59.6209 202.136 56.2533 203.465 56.3887 204.587C56.524 205.709 60.1111 206.199 64.4006 205.681Z" fill="white"/>
<path d="M80.4381 203.37C82.7646 203.37 84.6506 202.885 84.6506 202.286C84.6506 201.688 82.7646 201.203 80.4381 201.203C78.1116 201.203 76.2256 201.688 76.2256 202.286C76.2256 202.885 78.1116 203.37 80.4381 203.37Z" fill="white"/>
<path d="M119.836 277.228C122.162 277.228 124.048 276.743 124.048 276.145C124.048 275.546 122.162 275.062 119.836 275.062C117.509 275.062 115.623 275.546 115.623 276.145C115.623 276.743 117.509 277.228 119.836 277.228Z" fill="white"/>
<path opacity="0.31" d="M184.947 229.728C172.711 229.728 140.776 234.702 124.328 252.555C107.879 270.408 113.094 277.509 116.826 278.392C120.557 279.274 129.664 277.268 139.172 263.307C148.64 249.306 159.993 234.221 184.947 229.728Z" fill="white"/>
<path d="M111.49 275.664C114.74 281.16 121.279 284.811 133.917 279.555C146.554 274.3 151.047 269.124 157.787 261.863C150.526 268.523 119.594 288.381 111.49 275.664Z" fill="white"/>
<path opacity="0.31" d="M736.503 230.731C748.539 220.661 785.127 193.701 820.472 200.521C855.776 207.341 848.274 222.065 836.078 219.257C823.842 216.408 773.653 212.998 736.503 230.731Z" fill="white"/>
<path d="M849.959 218.534C849.678 220.219 845.265 224.191 813.932 224.351C782.599 224.512 754.837 227.681 743.443 233.418C759.33 225.354 786.371 222.707 814.333 222.506C842.336 222.305 846.95 221.062 849.959 218.534Z" fill="white"/>
<path d="M831.423 221.102C832.664 221.102 833.67 220.671 833.67 220.139C833.67 219.607 832.664 219.176 831.423 219.176C830.183 219.176 829.177 219.607 829.177 220.139C829.177 220.671 830.183 221.102 831.423 221.102Z" fill="white"/>
<path d="M759.089 251.271C760.33 251.271 761.336 250.84 761.336 250.309C761.336 249.777 760.33 249.346 759.089 249.346C757.849 249.346 756.843 249.777 756.843 250.309C756.843 250.84 757.849 251.271 759.089 251.271Z" fill="white"/>
<path opacity="0.31" d="M764.385 250.308C777.624 249.426 798.004 250.629 807.352 258.814C816.7 266.998 818.625 277.469 812.046 280.638C805.507 283.808 798.245 267.279 792.749 262.224C787.293 257.169 774.695 249.386 764.385 250.308Z" fill="white"/>
<path d="M763.302 253.117C772.208 256.045 777.825 257.77 783.321 267.118C788.817 276.466 808.034 287.699 815.938 280.117C809.358 280.919 802.057 281.762 793.912 275.262C785.768 268.763 783.201 256.928 763.302 253.117Z" fill="white"/>
<path d="M841.092 220.139C843.551 220.139 845.545 219.295 845.545 218.253C845.545 217.212 843.551 216.368 841.092 216.368C838.632 216.368 836.639 217.212 836.639 218.253C836.639 219.295 838.632 220.139 841.092 220.139Z" fill="white"/>
<path d="M359.626 172.237C357.419 117.715 305.425 67.7674 249.7 82.0096C241.355 88.0275 235.698 83.2132 236.822 73.023C253.952 65.601 286.73 59.182 307.311 62.7927C331.703 63.9561 345.504 30.6976 327.45 14.1686C294.312 -9.42129 252.829 14.0081 217.204 18.8625C203.643 19.2236 188.96 22.393 181.779 35.0705C167.256 58.0185 194.015 160.883 226.832 157.353C238.828 157.674 247.814 149.61 253.591 140.222C277.582 127.865 300.29 149.65 302.777 173.36C303.339 184.152 285.486 183.831 277.623 184.874C267.713 176.65 253.511 172.598 241.716 179.98C205.689 205.576 242.198 242.686 275.857 241.763C315.936 243.568 363.477 217.531 359.626 172.237Z" fill="#ABE0FF"/>
<path opacity="0.31" d="M349.997 170.031C322.275 57.0559 245.568 93.3635 240.151 89.7929C234.735 86.2625 224.345 72.3813 226.992 63.9965C229.64 55.6116 350.639 56.9356 309.798 16.7766C289.337 7.26839 268.997 26.2847 248.015 26.4051C222.74 29.2535 178.208 19.3843 187.636 60.1852C234.615 196.389 215.478 111.858 281.835 122.73C312.446 143.552 332.666 185.396 279.267 192.577C267.513 190.17 252.428 180.502 243.481 196.389C233.291 260.579 359.545 219.216 349.997 170.031Z" fill="white"/>
<path d="M249.338 139.5C249.338 139.5 244.725 150.653 230.723 152.9C216.722 155.147 208.497 144.154 200.072 129.591C211.827 142.67 223.542 157.032 249.338 139.5Z" fill="white"/>
<path d="M233.652 207.381C236.822 218.213 248.215 243.368 297.843 234.823C347.47 226.237 355.092 189.849 354.892 167.864C350.278 202.005 320.068 229.166 284.242 229.487C248.376 229.768 233.652 207.381 233.652 207.381Z" fill="white"/>
<path d="M269.577 222.517C269.713 221.53 267.937 220.468 265.611 220.147C263.284 219.826 261.288 220.366 261.151 221.354C261.015 222.341 262.79 223.403 265.117 223.724C267.443 224.045 269.44 223.505 269.577 222.517Z" fill="white"/>
<path d="M231.826 143.885C231.963 142.898 230.187 141.837 227.861 141.515C225.534 141.194 223.538 141.734 223.401 142.722C223.265 143.71 225.04 144.771 227.367 145.092C229.693 145.413 231.69 144.873 231.826 143.885Z" fill="white"/>
<path d="M276.58 225.314C277.82 225.314 278.826 224.883 278.826 224.351C278.826 223.819 277.82 223.388 276.58 223.388C275.339 223.388 274.333 223.819 274.333 224.351C274.333 224.883 275.339 225.314 276.58 225.314Z" fill="white"/>
<path d="M255.798 63.8762C261.695 61.5092 292.988 57.0158 301.935 57.1362C310.881 57.2566 315.695 58.0991 321.713 52.2417C316.939 55.3309 309.517 54.8494 297.441 55.732C266.028 58.0589 255.798 63.8762 255.798 63.8762Z" fill="white"/>
<path d="M716.925 178.696C721.659 159.8 724.748 137.374 717.286 118.799C715.199 113.623 715.28 107.806 717.406 102.631C743.844 38.8016 680.657 -11.2266 616.587 2.25329C577.191 3.5371 559.378 58.0185 603.188 68.6901C610.329 71.0572 617.59 69.1716 623.809 65.5609C631.792 60.9472 641.06 58.9413 650.167 60.3855C656.185 61.3484 661.52 63.5951 663.968 69.2919C670.106 93.4034 635.443 78.3989 627.379 97.0943C618.192 110.133 621.321 128.668 634.32 137.935C655.543 148.286 674.72 139.219 655.824 170.913C645.834 179.137 628.944 175.406 617.671 171.314C602.987 165.256 604.873 144.756 588.063 140.543C534.544 130.433 541.204 196.79 578.274 215.485C623.287 248.663 701.358 238.594 716.925 178.696Z" fill="#ABE0FF"/>
<path opacity="0.31" d="M704.407 132.119C703.444 124.536 701.599 117.034 698.028 110.374C695.541 105.801 695.581 100.304 697.988 95.7308C706.213 80.0845 705.009 59.9047 697.747 44.0978C688.039 27.609 671.229 11.2405 650.849 11.8021C633.838 14.0889 594.482 9.51537 597.932 35.4723C607.52 57.8586 635.804 36.5154 653.697 41.1692C668.982 47.0265 678.972 65.3608 672.553 81.1677C665.091 96.453 625.172 89.7531 637.168 116.392C645.633 133.804 666.695 110.013 673.315 126.261C691.529 172.799 637.048 218.294 601.783 175.768C596.247 167.463 598.293 154.746 584.813 153.101C545.857 152.94 579.196 201.765 597.611 210.952C651.21 245.575 717.646 192.337 704.407 132.119Z" fill="white"/>
<path d="M583.208 36.314C582.366 50.3155 590.51 59.3422 604.07 62.5517C617.63 65.7612 628.823 50.0747 646.676 55.0094C627.539 45.5413 609.847 60.9871 597.169 53.9262C584.572 46.9053 583.208 41.6899 583.208 36.314Z" fill="white"/>
<path d="M556.328 161.766C554.603 176.169 570.57 225.034 636.405 230.73C702.24 236.427 713.834 161.766 713.834 161.766C713.834 161.766 702.681 229.326 637.488 227.16C572.295 224.993 564.311 177.092 565.555 170.552C566.839 164.053 558.494 153.141 556.328 161.766Z" fill="white"/>
<path d="M630.589 120.243C631.391 128.427 644.309 138.337 656.586 140.022C668.862 141.707 668.862 150.132 668.862 150.132C668.862 150.132 667.578 137.454 655.743 135.167C643.908 132.921 634.962 129.029 630.589 120.243Z" fill="white"/>
<path d="M572.405 185.906C573.358 185.612 573.568 183.554 572.875 181.31C572.182 179.066 570.848 177.485 569.895 177.779C568.942 178.073 568.732 180.131 569.425 182.375C570.118 184.62 571.452 186.2 572.405 185.906Z" fill="white"/>
<path d="M608.019 52.5168C608.103 51.5233 606.273 50.5583 603.933 50.3616C601.592 50.1649 599.627 50.8109 599.544 51.8045C599.46 52.7981 601.29 53.763 603.63 53.9597C605.971 54.1564 607.936 53.5104 608.019 52.5168Z" fill="white"/>
<path d="M574.088 191.935C574.575 191.785 574.678 190.719 574.319 189.554C573.959 188.39 573.273 187.568 572.786 187.718C572.299 187.869 572.196 188.935 572.555 190.099C572.915 191.263 573.601 192.085 574.088 191.935Z" fill="white"/>
</svg>
