<svg width="162" height="161" viewBox="0 0 162 161" fill="none" xmlns="http://www.w3.org/2000/svg">
<path d="M81.0001 0.298828C36.6436 0.298828 0.705078 36.2373 0.705078 80.5938C0.705078 124.95 36.6436 160.889 81.0001 160.889C125.357 160.889 161.295 124.95 161.295 80.5938C161.295 36.2373 125.357 0.298828 81.0001 0.298828ZM120.371 101.671C121.892 103.193 121.892 105.654 120.371 107.175L107.549 119.964C106.028 121.486 103.567 121.486 102.045 119.964L81.0001 98.725L59.9226 119.964C58.4009 121.486 55.9403 121.486 54.4186 119.964L41.6296 107.143C40.1079 105.621 40.1079 103.161 41.6296 101.639L62.869 80.5938L41.6296 59.5164C40.1079 57.9947 40.1079 55.534 41.6296 54.0123L54.4509 41.191C55.9727 39.6693 58.4333 39.6693 59.955 41.191L81.0001 62.4627L102.078 41.2234C103.599 39.7017 106.06 39.7017 107.582 41.2234L120.403 54.0447C121.925 55.5664 121.925 58.0271 120.403 59.5488L99.1312 80.5938L120.371 101.671Z" fill="#E74138"/>
</svg>
