<svg width="162" height="161" viewBox="0 0 162 161" fill="none" xmlns="http://www.w3.org/2000/svg">
<path d="M161.304 80.4864C161.304 124.832 125.351 160.781 81 160.781C36.6489 160.781 0.695557 124.832 0.695557 80.4864C0.695557 36.1406 36.6489 0.191406 81 0.191406C125.351 0.191406 161.304 36.1406 161.304 80.4864ZM71.7112 123.002L131.292 63.4282C133.315 61.4053 133.315 58.1252 131.292 56.1023L123.965 48.7763C121.942 46.7531 118.661 46.7531 116.638 48.7763L68.0476 97.3606L45.362 74.6776C43.3388 72.6547 40.0583 72.6547 38.0348 74.6776L30.708 82.0036C28.6849 84.0265 28.6849 87.3066 30.708 89.3295L64.3841 123.002C66.4075 125.025 69.6877 125.025 71.7112 123.002Z" fill="#46AA68"/>
</svg>
