<svg width="300" height="209" viewBox="0 0 300 209" fill="none" xmlns="http://www.w3.org/2000/svg">
<rect width="300" height="208" fill="#3F8DE9"/>
<path d="M96.8016 131.075C47.1806 109.19 11.8733 76.6827 5.69313e-06 10.8395C5.69313e-06 69.3667 5.69313e-06 208.141 5.69313e-06 208.141H190C190 171.153 146.423 152.96 96.8016 131.075Z" fill="#1865D7"/>
<path d="M123.793 115.396C140.287 117.347 137.704 103.94 124.781 87.214C94.4425 51.2653 58.7465 50.7089 53.1111 51.0331C47.4756 51.3573 38.8089 49.3912 58.6433 77.8981C78.4777 106.405 107.298 113.446 123.793 115.396Z" fill="#1865D7"/>
<circle r="7.3609" transform="matrix(-0.990225 -0.139479 -0.139479 0.990225 149.497 120.002)" fill="#1865D7"/>
</svg>
