<svg width="21" height="21" viewBox="0 0 21 21" fill="none" xmlns="http://www.w3.org/2000/svg">
<path d="M17.4805 3.32528C15.6408 1.48555 13.1948 0.472412 10.5931 0.472412C7.99137 0.472412 5.54533 1.48555 3.7056 3.32528C1.86586 5.16501 0.85277 7.61097 0.85277 10.2127C0.85277 11.8608 1.26996 13.4803 2.06185 14.9149L0 20.8058L5.89083 18.744C7.32545 19.5358 8.94497 19.953 10.593 19.953C13.1948 19.953 15.6408 18.9398 17.4804 17.1001C19.3202 15.2604 20.3334 12.8144 20.3334 10.2127C20.3334 7.61093 19.3202 5.16497 17.4805 3.32528ZM15.4083 13.8311L14.2838 14.9556C13.3523 15.8871 10.7091 14.7544 8.38028 12.4255C6.0514 10.0966 4.91865 7.45354 5.85021 6.52198L6.97466 5.39753C7.20754 5.16465 7.58514 5.16465 7.81802 5.39753L9.2236 6.80311C9.45648 7.036 9.45648 7.41359 9.2236 7.64647L8.38024 8.48983C9.1983 10.2169 10.5889 11.6074 12.3159 12.4255L13.1593 11.5821C13.3922 11.3492 13.7698 11.3492 14.0027 11.5821L15.4082 12.9877C15.6412 13.2206 15.6412 13.5982 15.4083 13.8311Z" fill="white"/>
</svg>
